<svg width="21" height="19" viewBox="0 0 21 19" fill="none" xmlns="http://www.w3.org/2000/svg">
<path d="M4.192 7.11172L4.19203 7.11166L7.25149 1.60314C7.25158 1.60298 7.25167 1.60282 7.25176 1.60266C7.48356 1.18924 7.7346 0.827761 7.9943 0.517772C8.4589 -0.0229484 9.375 0.314212 9.375 1.05388V10.448C9.375 10.708 9.24992 10.9451 9.03366 11.0975C9.03361 11.0975 9.03357 11.0975 9.03352 11.0976L1.53059 16.3561C1.53051 16.3562 1.53043 16.3563 1.53035 16.3563C1.05692 16.6853 0.396999 16.4209 0.295776 15.8717C0.152379 15.0472 0.340105 14.0537 0.944992 12.9539C0.945076 12.9537 0.945159 12.9536 0.945242 12.9534L4.192 7.11172Z" fill="#FFF326" stroke="black" stroke-width="0.5"/>
<path d="M16.683 7.11166L16.683 7.11172L19.9298 12.9534C19.9298 12.9536 19.9299 12.9537 19.93 12.9538C20.5349 14.0536 20.7226 15.0471 20.5792 15.8716C20.478 16.4209 19.8181 16.6853 19.3446 16.3563C19.3445 16.3562 19.3445 16.3562 19.3444 16.3561L11.8415 11.0976C11.8414 11.0975 11.8413 11.0974 11.8412 11.0974C11.625 10.945 11.5 10.708 11.5 10.448V1.05388C11.5 0.31421 12.4161 -0.0229502 12.8807 0.517777C13.1404 0.827769 13.3914 1.18925 13.6233 1.60268C13.6233 1.60283 13.6234 1.60299 13.6235 1.60314L16.683 7.11166Z" fill="#FFF326" stroke="black" stroke-width="0.5"/>
<path d="M3.50495 17.148L3.50554 17.1476L9.94752 12.8802C10.0708 12.7985 10.2478 12.75 10.4379 12.75C10.6281 12.75 10.8051 12.7985 10.9284 12.8802L17.3701 17.1474C17.3701 17.1474 17.3702 17.1475 17.3703 17.1475C17.7845 17.4228 18.0606 17.6744 18.218 17.8881C18.3778 18.1051 18.389 18.244 18.3652 18.3221C18.3413 18.4004 18.2539 18.5102 17.9992 18.6025C17.7486 18.6933 17.3782 18.75 16.8799 18.75H3.98611C3.49085 18.7474 3.12265 18.689 2.87361 18.5971C2.62044 18.5038 2.53332 18.3937 2.50959 18.315C2.48602 18.2369 2.49756 18.0983 2.65733 17.8828C2.81473 17.6705 3.09069 17.4207 3.50495 17.148Z" fill="#FFF326" stroke="black" stroke-width="0.5"/>
</svg>
