<svg width="256" height="256" viewBox="0 0 256 256" fill="none" xmlns="http://www.w3.org/2000/svg">
<path d="M159.15 18.5518C167.912 20.2576 183.442 27.9345 190.475 33.5262C188.958 34.5905 187.597 36.1855 186.252 37.471C184.531 39.1165 182.712 40.6895 181.055 42.3982C172.829 36.5665 159.343 30.471 149.494 28.5595C149.627 28.1202 150.071 27.6695 150.359 27.3207C151.44 26.0102 152.701 24.8019 153.955 23.656C155.284 22.441 158.4 20.113 159.15 18.5518Z" fill="#FAFE39"/>
<path d="M211.03 51.4232C213.281 53.666 215.319 56.0975 217.335 58.5512C217.83 59.1587 218.32 59.7714 218.803 60.3892C219.285 61.0071 219.761 61.63 220.231 62.258C220.7 62.8858 221.163 63.5186 221.619 64.1565C222.075 64.7943 222.524 65.4369 222.967 66.0842C223.409 66.7316 223.845 67.3835 224.273 68.04C224.702 68.6966 225.124 69.3577 225.538 70.0232C225.953 70.6887 226.36 71.3586 226.76 72.0327C227.161 72.7069 227.554 73.3853 227.94 74.068C228.326 74.7505 228.704 75.437 229.076 76.1275C229.447 76.8181 229.811 77.5126 230.167 78.2107C230.524 78.9091 230.873 79.6111 231.215 80.3167C231.556 81.0226 231.89 81.7319 232.217 82.4447C232.544 83.1574 232.863 83.8735 233.174 84.5932C233.485 85.3127 233.789 86.0356 234.085 86.7617C234.381 87.4877 234.67 88.2168 234.95 88.949C235.231 89.6811 235.503 90.4161 235.768 91.154C236.033 91.892 236.29 92.6327 236.54 93.3762C236.789 94.1196 237.03 94.8655 237.264 95.614C237.497 96.3625 237.722 97.1134 237.94 97.8667C238.157 98.6201 238.366 99.3756 238.568 100.133C238.769 100.891 238.963 101.651 239.148 102.413C239.333 103.175 239.51 103.939 239.679 104.704C239.848 105.47 240.009 106.237 240.162 107.006C240.315 107.775 240.459 108.546 240.596 109.318C240.732 110.09 240.86 110.864 240.98 111.638C241.1 112.413 241.212 113.189 241.315 113.966C241.418 114.744 241.514 115.522 241.601 116.301C241.688 117.08 241.766 117.86 241.837 118.641C241.907 119.422 241.969 120.204 242.023 120.986C242.076 121.768 242.122 122.551 242.159 123.334C242.196 124.117 242.225 124.901 242.246 125.685C242.266 126.469 242.278 127.252 242.282 128.036C242.289 128.961 242.285 129.886 242.269 130.81C242.253 131.735 242.226 132.659 242.188 133.583C242.149 134.507 242.1 135.43 242.039 136.353C241.977 137.275 241.905 138.197 241.821 139.118C241.737 140.039 241.642 140.958 241.536 141.877C241.43 142.795 241.312 143.713 241.183 144.628C241.054 145.544 240.914 146.458 240.763 147.37C240.611 148.282 240.449 149.192 240.275 150.101C240.101 151.009 239.917 151.915 239.721 152.818C239.525 153.722 239.317 154.623 239.099 155.522C238.881 156.42 238.652 157.316 238.412 158.209C238.172 159.102 237.921 159.992 237.659 160.878C237.396 161.765 237.123 162.649 236.84 163.529C236.556 164.409 236.262 165.285 235.956 166.158C235.651 167.031 235.335 167.9 235.008 168.765C234.682 169.63 234.344 170.491 233.997 171.348C233.649 172.204 233.291 173.057 232.922 173.905C232.553 174.753 232.174 175.596 231.785 176.435C231.395 177.273 230.995 178.107 230.585 178.936C230.175 179.765 229.755 180.588 229.325 181.407C228.895 182.225 228.455 183.038 228.005 183.846C227.554 184.654 227.094 185.456 226.624 186.252C226.154 187.048 225.675 187.839 225.186 188.623C224.696 189.408 224.197 190.187 223.689 190.959C223.18 191.731 222.662 192.497 222.135 193.257C221.608 194.016 221.071 194.769 220.526 195.516C219.98 196.262 219.425 197.002 218.861 197.734C218.297 198.467 217.724 199.193 217.142 199.912C216.56 200.63 215.97 201.342 215.371 202.046C214.771 202.75 214.163 203.447 213.547 204.136C212.931 204.825 212.306 205.507 211.673 206.181C211.039 206.855 210.398 207.521 209.749 208.179C209.094 208.846 208.432 209.505 207.762 210.156C207.091 210.807 206.413 211.45 205.726 212.084C205.04 212.718 204.346 213.344 203.644 213.961C202.942 214.578 202.233 215.186 201.516 215.786C200.799 216.385 200.075 216.976 199.343 217.557C198.612 218.139 197.873 218.712 197.128 219.275C196.382 219.838 195.629 220.392 194.87 220.937C194.111 221.482 193.345 222.017 192.572 222.543C191.8 223.069 191.021 223.585 190.235 224.091C189.45 224.598 188.658 225.094 187.861 225.581C187.063 226.068 186.26 226.545 185.45 227.012C184.641 227.479 183.826 227.936 183.005 228.383C182.184 228.83 181.358 229.267 180.527 229.693C179.695 230.12 178.858 230.536 178.017 230.942C177.175 231.348 176.328 231.743 175.476 232.128C174.625 232.513 173.769 232.887 172.908 233.25C172.047 233.614 171.182 233.967 170.312 234.309C169.443 234.652 168.569 234.983 167.691 235.304C166.813 235.624 165.932 235.934 165.046 236.233C164.161 236.532 163.272 236.82 162.379 237.097C161.487 237.374 160.591 237.639 159.692 237.894C158.793 238.149 157.89 238.392 156.985 238.625C156.08 238.857 155.172 239.078 154.261 239.288C153.351 239.498 152.438 239.697 151.522 239.884C150.607 240.072 149.689 240.248 148.769 240.412C147.849 240.577 146.927 240.73 146.004 240.872C145.08 241.014 144.155 241.144 143.228 241.263C142.301 241.382 141.373 241.49 140.443 241.586C139.513 241.682 138.583 241.766 137.651 241.839C136.72 241.913 135.787 241.974 134.854 242.024C133.921 242.074 132.987 242.112 132.053 242.139C131.119 242.166 130.184 242.182 129.25 242.185C128.317 242.193 127.385 242.19 126.452 242.174C125.52 242.159 124.588 242.133 123.656 242.095C122.724 242.057 121.792 242.007 120.862 241.946C119.931 241.885 119.001 241.812 118.072 241.728C117.144 241.644 116.216 241.548 115.289 241.441C114.363 241.334 113.438 241.216 112.514 241.086C111.591 240.956 110.669 240.815 109.749 240.662C108.829 240.51 107.911 240.346 106.995 240.17C106.079 239.995 105.165 239.808 104.254 239.61C103.342 239.412 102.434 239.203 101.527 238.983C100.621 238.762 99.7177 238.531 98.8172 238.288C97.9167 238.045 97.0193 237.791 96.125 237.526C95.2308 237.261 94.34 236.986 93.4525 236.699C92.5651 236.412 91.6814 236.114 90.8014 235.805C89.9213 235.496 89.0451 235.177 88.1729 234.846C87.3008 234.516 86.4329 234.175 85.5692 233.823C84.7055 233.471 83.8463 233.108 82.9914 232.735C82.1366 232.362 81.2866 231.978 80.4414 231.584C79.5961 231.19 78.7558 230.786 77.9204 230.371C77.0853 229.956 76.2553 229.531 75.4304 229.095C74.6056 228.66 73.7863 228.214 72.9727 227.759C72.1588 227.303 71.3509 226.837 70.5487 226.362C69.7464 225.886 68.9501 225.401 68.1599 224.905C67.3696 224.41 66.5855 223.905 65.8077 223.39C65.03 222.876 64.2588 222.351 63.4939 221.817C62.7291 221.284 61.971 220.741 61.2197 220.188C60.4682 219.636 59.7237 219.074 58.9862 218.503C58.2487 217.932 57.5184 217.352 56.7952 216.763C56.072 216.174 55.3563 215.577 54.6479 214.97C53.9394 214.363 53.2386 213.748 52.5454 213.124C51.8523 212.5 51.1668 211.868 50.4892 211.227C49.8117 210.586 49.1422 209.937 48.4807 209.279C38.1074 198.92 30.4619 187.291 24.5276 173.905C24.5276 173.905 17.9199 158.72 16.6399 144.64C16.6399 144.64 23.4283 170.727 24.2583 172.649C25.9407 176.544 27.8454 180.383 30.2639 183.879C41.4492 201.371 57.5777 216.257 76.3309 225.267C77.1689 225.673 78.0118 226.068 78.8594 226.452C79.7073 226.837 80.5596 227.211 81.4164 227.574C82.2734 227.938 83.1348 228.291 84.0004 228.633C84.8661 228.976 85.7358 229.307 86.6097 229.628C87.4835 229.949 88.3612 230.259 89.2427 230.558C90.1242 230.857 91.0093 231.145 91.8979 231.423C92.7864 231.7 93.6783 231.966 94.5735 232.222C95.4686 232.477 96.3668 232.721 97.2679 232.954C98.1693 233.188 99.0733 233.41 99.9799 233.62C100.887 233.831 101.796 234.031 102.707 234.219C103.619 234.408 104.533 234.585 105.449 234.751C106.365 234.917 107.283 235.072 108.202 235.215C109.122 235.358 110.043 235.49 110.966 235.61C111.89 235.731 112.814 235.84 113.74 235.938C114.665 236.036 115.592 236.122 116.52 236.197C117.448 236.272 118.377 236.335 119.306 236.387C120.235 236.439 121.165 236.479 122.096 236.508C123.026 236.537 123.957 236.555 124.888 236.561C125.819 236.567 126.749 236.561 127.68 236.544C128.611 236.528 129.541 236.499 130.471 236.459C131.401 236.419 132.331 236.368 133.259 236.305C134.188 236.242 135.116 236.168 136.043 236.082C136.97 235.997 137.895 235.9 138.82 235.791C139.744 235.683 140.668 235.563 141.589 235.431C142.511 235.3 143.431 235.157 144.349 235.003C145.267 234.849 146.183 234.684 147.097 234.508C148.011 234.331 148.922 234.143 149.832 233.944C150.741 233.745 151.648 233.535 152.552 233.313C153.456 233.092 154.357 232.859 155.256 232.616C156.154 232.372 157.049 232.117 157.941 231.851C158.834 231.586 159.722 231.309 160.608 231.021C161.493 230.734 162.374 230.435 163.252 230.125C164.106 229.827 164.955 229.518 165.801 229.198C166.647 228.879 167.489 228.549 168.326 228.208C169.164 227.868 169.997 227.518 170.826 227.157C171.655 226.796 172.479 226.425 173.299 226.044C174.119 225.663 174.934 225.271 175.744 224.87C176.554 224.469 177.359 224.058 178.159 223.636C178.959 223.215 179.754 222.784 180.543 222.343C181.333 221.903 182.116 221.452 182.895 220.992C183.673 220.532 184.445 220.063 185.212 219.583C185.979 219.104 186.739 218.616 187.494 218.118C188.249 217.62 188.997 217.113 189.739 216.596C190.481 216.08 191.217 215.555 191.946 215.02C192.675 214.486 193.398 213.942 194.113 213.39C194.829 212.837 195.538 212.276 196.24 211.706C196.942 211.137 197.637 210.558 198.324 209.971C199.012 209.384 199.692 208.789 200.365 208.185C201.038 207.582 201.703 206.97 202.361 206.349C203.019 205.729 203.669 205.101 204.312 204.465C204.954 203.829 205.588 203.185 206.215 202.533C206.841 201.881 207.46 201.221 208.07 200.554C208.68 199.887 209.282 199.213 209.876 198.531C210.469 197.849 211.054 197.16 211.631 196.463C212.207 195.767 212.775 195.064 213.335 194.353C213.894 193.643 214.444 192.926 214.986 192.202C215.527 191.478 216.06 190.747 216.583 190.01C217.107 189.273 217.621 188.53 218.126 187.78C218.631 187.03 219.127 186.274 219.614 185.512C220.1 184.75 220.577 183.982 221.045 183.208C221.512 182.434 221.97 181.655 222.419 180.87C222.867 180.085 223.305 179.294 223.734 178.498C224.163 177.702 224.582 176.901 224.991 176.095C225.4 175.289 225.8 174.478 226.189 173.662C226.661 172.669 227.12 171.67 227.564 170.664C228.007 169.659 228.437 168.647 228.851 167.629C229.266 166.611 229.666 165.587 230.051 164.557C230.436 163.527 230.806 162.492 231.161 161.452C231.516 160.411 231.856 159.366 232.181 158.316C232.506 157.266 232.815 156.211 233.11 155.152C233.404 154.093 233.683 153.03 233.947 151.962C234.21 150.895 234.459 149.824 234.691 148.75C234.924 147.676 235.141 146.598 235.343 145.517C235.544 144.437 235.73 143.353 235.9 142.267C236.071 141.181 236.225 140.093 236.364 139.002C236.503 137.912 236.626 136.82 236.733 135.725C236.84 134.631 236.932 133.536 237.007 132.439C237.083 131.343 237.142 130.245 237.186 129.147C237.23 128.048 237.258 126.949 237.27 125.85C237.282 124.751 237.278 123.652 237.259 122.553C237.239 121.454 237.204 120.355 237.152 119.257C237.101 118.159 237.033 117.062 236.95 115.965C236.867 114.869 236.768 113.775 236.653 112.681C236.539 111.588 236.408 110.496 236.262 109.407C236.115 108.317 235.953 107.23 235.776 106.145C235.598 105.061 235.404 103.979 235.195 102.899C234.986 101.82 234.762 100.744 234.522 99.6712C234.281 98.5986 234.026 97.5295 233.755 96.464C233.484 95.3986 233.197 94.3375 232.896 93.2805C232.594 92.2233 232.277 91.1707 231.945 90.1227C231.613 89.0749 231.266 88.032 230.903 86.994C230.541 85.9561 230.164 84.9237 229.772 83.8967C229.38 82.8697 228.973 81.8486 228.551 80.8335C228.129 79.8181 227.693 78.8091 227.243 77.8065C226.792 76.804 226.326 75.8081 225.847 74.819C225.367 73.8296 224.874 72.8476 224.366 71.8727C222.271 67.816 219.987 63.6652 217.268 59.9872C216.118 58.4315 211.362 52.6702 211.055 51.5715C211.041 51.5232 211.038 51.4727 211.03 51.4232Z" fill="#D29D14"/>
<path d="M19.1217 159.306C18.0579 155.294 17.0042 151.297 16.2635 147.209C13.4547 131.707 13.6916 115.023 17.5078 99.7055C17.7324 98.8026 17.9682 97.9028 18.215 97.006C18.4619 96.109 18.7199 95.2152 18.9889 94.3247C19.2579 93.4342 19.5379 92.5471 19.8289 91.6635C20.1198 90.7798 20.4217 89.8999 20.7345 89.0237C21.0472 88.1477 21.3708 87.2756 21.7051 86.4075C22.0395 85.5393 22.3845 84.6755 22.7403 83.816C23.096 82.9563 23.4624 82.1012 23.8393 81.2507C24.2162 80.4002 24.6036 79.5545 25.0016 78.7135C25.3994 77.8726 25.8076 77.0368 26.2261 76.206C26.6446 75.3751 27.0733 74.5496 27.5123 73.7295C27.9513 72.9093 28.4004 72.0946 28.8596 71.2855C29.3187 70.4765 29.7878 69.6732 30.2668 68.8757C30.746 68.0782 31.2349 67.2868 31.7336 66.5015C32.2322 65.7161 32.7405 64.9371 33.2583 64.1642C33.7763 63.3916 34.3037 62.6253 34.8406 61.8655C35.3776 61.1058 35.9238 60.3529 36.4793 59.6067C37.0348 58.8606 37.5996 58.1213 38.1736 57.389C38.7474 56.6568 39.3302 55.9319 39.9221 55.2142C40.5137 54.4964 41.1143 53.786 41.7238 53.083C42.3331 52.3801 42.9511 51.6849 43.5778 50.9972C44.2043 50.3097 44.8393 49.63 45.4828 48.958C46.1263 48.2861 46.778 47.6224 47.4378 46.9667C48.0976 46.3109 48.7656 45.6634 49.4416 45.0242C50.1174 44.3851 50.8011 43.7543 51.4926 43.132C52.1842 42.5096 52.8834 41.8961 53.5901 41.2912C54.2967 40.6862 55.0108 40.0901 55.7323 39.5027C56.4538 38.9154 57.1825 38.3371 57.9183 37.768C58.6541 37.1986 59.3969 36.6386 60.1466 36.0877C60.8961 35.5369 61.6524 34.9954 62.4156 34.4632C63.1786 33.9312 63.9481 33.4086 64.7241 32.8955C65.5001 32.3825 66.2823 31.8791 67.0708 31.3852C67.8593 30.8916 68.6538 30.4077 69.4543 29.9337C70.0995 29.5417 70.7486 29.1563 71.4016 28.7775C72.0546 28.3986 72.7114 28.0266 73.3721 27.6615C74.0327 27.2961 74.6971 26.9376 75.3651 26.586C76.0332 26.2341 76.7048 25.8893 77.3798 25.5515C78.055 25.2135 78.7335 24.8825 79.4153 24.5585C80.0972 24.2345 80.7822 23.9175 81.4706 23.6075C82.1589 23.2975 82.8504 22.9946 83.5451 22.6988C84.2396 22.403 84.9371 22.1144 85.6376 21.8329C86.3381 21.5514 87.0414 21.2771 87.7476 21.01C88.4536 20.7429 89.1623 20.483 89.8738 20.2305C90.5852 19.9779 91.2991 19.7326 92.0156 19.4947C92.7321 19.2568 93.4509 19.0262 94.1721 18.803C94.8932 18.5798 95.6166 18.364 96.3423 18.1556C97.0678 17.9472 97.7955 17.7463 98.5253 17.5528C99.255 17.3594 99.9866 17.1734 100.72 16.9949C101.454 16.8165 102.189 16.6455 102.926 16.4821C103.663 16.3187 104.402 16.1629 105.142 16.0146C105.882 15.8664 106.624 15.7257 107.367 15.5927C108.11 15.4596 108.854 15.3342 109.6 15.2164C110.346 15.0986 111.093 14.9884 111.841 14.8859C112.589 14.7834 113.337 14.6886 114.087 14.6015C114.837 14.5143 115.588 14.4349 116.34 14.3631C117.091 14.2913 117.843 14.2273 118.596 14.1709C119.349 14.1146 120.102 14.066 120.856 14.0251C121.61 13.9842 122.364 13.951 123.119 13.9255C123.873 13.9001 124.628 13.8824 125.383 13.8724C126.137 13.8624 126.892 13.8602 127.647 13.8656C128.402 13.8711 129.157 13.8844 129.912 13.9053C130.666 13.9263 131.421 13.955 132.175 13.9914C132.929 14.0278 133.682 14.072 134.436 14.1238C135.189 14.1757 135.941 14.2353 136.693 14.3026C137.445 14.3699 138.196 14.4448 138.947 14.5275C145.84 15.3201 152.434 16.8776 159.15 18.5518C158.4 20.113 155.284 22.441 153.955 23.656C152.701 24.8019 151.44 26.0102 150.359 27.3207C150.072 27.6695 149.628 28.1202 149.494 28.5595C145.182 27.961 141.034 26.794 136.67 26.4402C132.918 26.136 129.113 25.9245 125.348 26.006C124.686 26.0205 124.025 26.0414 123.363 26.0687C122.702 26.0961 122.04 26.1299 121.38 26.1702C120.719 26.2106 120.058 26.2573 119.398 26.3105C118.738 26.3636 118.079 26.4232 117.42 26.4892C116.761 26.5554 116.103 26.6279 115.446 26.7067C114.788 26.7856 114.132 26.8709 113.476 26.9627C112.82 27.0544 112.166 27.1525 111.512 27.257C110.858 27.3615 110.205 27.4723 109.554 27.5895C108.902 27.7068 108.252 27.8304 107.602 27.9602C106.953 28.0902 106.305 28.2265 105.659 28.369C105.012 28.5116 104.367 28.6606 103.723 28.8157C103.08 28.9709 102.438 29.1323 101.797 29.3C101.157 29.4676 100.518 29.6416 99.8806 29.8217C99.2436 30.0019 98.6083 30.1883 97.9748 30.381C97.3413 30.5735 96.7097 30.7722 96.0801 30.9772C95.4506 31.1821 94.8231 31.3931 94.1976 31.6102C93.5721 31.8274 92.9487 32.0506 92.3276 32.28C91.7066 32.5093 91.0878 32.7446 90.4713 32.986C89.8547 33.2275 89.2405 33.4749 88.6288 33.7282C88.0172 33.9816 87.408 34.2409 86.8013 34.5062C86.1948 34.7716 85.5908 35.0427 84.9893 35.3197C84.388 35.5969 83.7895 35.8798 83.1938 36.1685C82.598 36.4573 82.005 36.7519 81.4148 37.0522C80.8248 37.3526 80.2377 37.6586 79.6536 37.9702C79.0696 38.2821 78.4886 38.5996 77.9106 38.9227C77.3327 39.2459 76.7581 39.5746 76.1866 39.909C75.6151 40.2433 75.0469 40.5832 74.4821 40.9287C73.9172 41.2741 73.3558 41.625 72.7978 41.9815C72.2398 42.3378 71.6854 42.6996 71.1346 43.0667C70.5836 43.4341 70.0362 43.8066 69.4926 44.1845C68.9489 44.5625 68.409 44.9456 67.8728 45.334C67.3366 45.7225 66.8043 46.1161 66.2758 46.515C65.6186 47.011 64.9676 47.515 64.3228 48.027C63.6781 48.5391 63.0399 49.0592 62.4081 49.5872C61.7761 50.1151 61.1508 50.6507 60.5323 51.1942C59.9138 51.7376 59.3021 52.2886 58.6971 52.8472C58.0922 53.4059 57.4944 53.972 56.9036 54.5455C56.3127 55.1188 55.7291 55.6995 55.1526 56.2875C54.5762 56.8755 54.0072 57.4705 53.4456 58.0725C52.8839 58.6745 52.3297 59.2834 51.7831 59.8992C51.2366 60.5151 50.6977 61.1376 50.1666 61.7667C49.6354 62.3959 49.1121 63.0315 48.5968 63.6735C48.0815 64.3156 47.5741 64.9641 47.0748 65.619C46.5756 66.2736 46.0846 66.9344 45.6016 67.6012C45.1187 68.2682 44.6442 68.9411 44.1781 69.6197C43.7119 70.2984 43.2541 70.9827 42.8048 71.6727C42.3556 72.3627 41.9151 73.0582 41.4831 73.7592C41.0512 74.4602 40.6281 75.1665 40.2136 75.878C39.7991 76.5895 39.3935 77.306 38.9968 78.0275C38.6001 78.749 38.2125 79.4753 37.8338 80.2065C37.4553 80.9376 37.0858 81.6733 36.7253 82.4135C36.365 83.1538 36.0138 83.8985 35.6718 84.6475C35.33 85.3966 34.9974 86.1498 34.6741 86.907C34.3509 87.6643 34.0371 88.4255 33.7328 89.1905C33.4285 89.9555 33.1336 90.7242 32.8483 91.4967C32.563 92.2691 32.2873 93.0448 32.0213 93.824C31.7553 94.6031 31.499 95.3856 31.2523 96.1712C31.0056 96.9567 30.7688 97.7452 30.5418 98.5367C30.3146 99.3281 30.0974 100.122 29.8901 100.919C29.6827 101.716 29.4852 102.515 29.2976 103.317C29.1101 104.119 28.9325 104.923 28.7648 105.729C28.5973 106.535 28.4398 107.343 28.2923 108.153C28.1446 108.963 28.0071 109.775 27.8798 110.588C27.7523 111.402 27.635 112.217 27.5278 113.033C27.3768 114.216 27.2456 115.402 27.1341 116.59C27.0227 117.778 26.9311 118.967 26.8593 120.158C26.7873 121.349 26.7352 122.54 26.7031 123.733C26.6709 124.925 26.6586 126.118 26.6663 127.311C26.6738 128.504 26.7012 129.697 26.7486 130.889C26.7959 132.081 26.863 133.272 26.9498 134.461C27.0368 135.651 27.1436 136.839 27.2701 138.026C27.3966 139.212 27.5428 140.396 27.7088 141.577C28.0946 144.205 28.7403 146.767 29.2008 149.376C27.2603 150.187 23.7464 154.213 22.272 155.922C21.2695 157.084 20.336 158.354 19.1217 159.306Z" fill="#FAE527"/>
<path d="M190.475 33.5262C193.362 35.5834 196.169 37.7437 198.897 40.007C201.625 42.2703 204.267 44.6307 206.821 47.0882C208.124 48.3175 210.029 49.99 211.03 51.4232C211.038 51.4727 211.041 51.5232 211.055 51.5715C211.362 52.6702 216.118 58.4315 217.268 59.9872C219.987 63.6652 222.271 67.816 224.366 71.8727C224.874 72.8476 225.367 73.8297 225.847 74.819C226.327 75.8082 226.792 76.804 227.243 77.8065C227.693 78.8092 228.13 79.8182 228.551 80.8335C228.973 81.8487 229.38 82.8697 229.772 83.8967C230.164 84.9237 230.541 85.9562 230.903 86.994C231.266 88.032 231.613 89.0749 231.945 90.1227C232.277 91.1707 232.594 92.2233 232.896 93.2805C233.198 94.3375 233.484 95.3987 233.755 96.464C234.026 97.5295 234.282 98.5986 234.522 99.6712C234.762 100.744 234.986 101.82 235.195 102.899C235.404 103.979 235.598 105.061 235.776 106.145C235.953 107.23 236.116 108.317 236.262 109.407C236.408 110.496 236.539 111.588 236.653 112.681C236.768 113.775 236.867 114.869 236.95 115.965C237.034 117.062 237.101 118.159 237.152 119.257C237.204 120.355 237.239 121.454 237.259 122.553C237.279 123.652 237.282 124.751 237.27 125.85C237.258 126.949 237.23 128.048 237.186 129.147C237.143 130.245 237.083 131.343 237.007 132.439C236.932 133.536 236.84 134.631 236.733 135.725C236.626 136.82 236.503 137.912 236.364 139.003C236.225 140.093 236.071 141.181 235.901 142.267C235.73 143.353 235.544 144.437 235.343 145.518C235.141 146.598 234.924 147.676 234.691 148.75C234.459 149.824 234.21 150.895 233.947 151.962C233.683 153.03 233.404 154.093 233.11 155.152C232.815 156.211 232.506 157.266 232.181 158.316C231.856 159.366 231.516 160.411 231.161 161.452C230.806 162.492 230.436 163.527 230.051 164.557C229.666 165.587 229.266 166.611 228.851 167.629C228.437 168.647 228.007 169.659 227.564 170.665C227.12 171.67 226.661 172.669 226.189 173.662C225.8 174.478 225.401 175.289 224.991 176.095C224.582 176.901 224.163 177.703 223.734 178.499C223.306 179.294 222.867 180.085 222.419 180.87C221.97 181.655 221.512 182.434 221.045 183.208C220.577 183.982 220.1 184.75 219.614 185.512C219.127 186.274 218.631 187.03 218.126 187.78C217.621 188.53 217.107 189.273 216.583 190.01C216.06 190.747 215.527 191.478 214.986 192.202C214.444 192.926 213.894 193.643 213.335 194.353C212.775 195.064 212.207 195.767 211.631 196.464C211.054 197.16 210.469 197.849 209.876 198.531C209.282 199.213 208.68 199.887 208.07 200.555C207.46 201.222 206.841 201.881 206.215 202.533C205.589 203.185 204.954 203.829 204.312 204.465C203.669 205.101 203.019 205.729 202.361 206.35C201.704 206.97 201.038 207.582 200.365 208.185C199.692 208.789 199.012 209.384 198.324 209.971C197.637 210.558 196.942 211.137 196.24 211.706C195.538 212.276 194.829 212.837 194.113 213.39C193.398 213.942 192.675 214.486 191.946 215.02C191.217 215.555 190.481 216.08 189.739 216.596C188.997 217.113 188.249 217.62 187.494 218.118C186.74 218.616 185.979 219.104 185.212 219.583C184.445 220.063 183.673 220.532 182.895 220.992C182.116 221.452 181.333 221.903 180.543 222.344C179.754 222.784 178.959 223.215 178.159 223.637C177.359 224.058 176.554 224.469 175.744 224.87C174.934 225.271 174.119 225.663 173.299 226.044C172.479 226.425 171.655 226.796 170.826 227.157C169.997 227.518 169.164 227.868 168.326 228.208C167.489 228.549 166.647 228.879 165.801 229.198C164.955 229.518 164.106 229.827 163.252 230.126C162.374 230.435 161.493 230.734 160.608 231.021C159.722 231.309 158.834 231.586 157.941 231.852C157.049 232.117 156.154 232.372 155.256 232.616C154.357 232.859 153.456 233.092 152.552 233.313C151.648 233.535 150.741 233.745 149.831 233.944C148.922 234.143 148.011 234.331 147.097 234.508C146.183 234.684 145.267 234.849 144.348 235.003C143.43 235.157 142.511 235.3 141.589 235.432C140.667 235.563 139.744 235.683 138.82 235.791C137.895 235.9 136.97 235.997 136.043 236.083C135.116 236.168 134.188 236.242 133.259 236.305C132.331 236.368 131.401 236.419 130.471 236.459C129.541 236.499 128.611 236.528 127.68 236.544C126.749 236.561 125.818 236.567 124.888 236.561C123.957 236.555 123.026 236.537 122.096 236.508C121.165 236.479 120.235 236.439 119.306 236.387C118.377 236.335 117.448 236.272 116.52 236.197C115.592 236.122 114.665 236.036 113.74 235.938C112.814 235.84 111.89 235.731 110.966 235.611C110.043 235.49 109.122 235.358 108.202 235.215C107.282 235.072 106.365 234.917 105.449 234.751C104.533 234.585 103.619 234.408 102.707 234.219C101.796 234.031 100.887 233.831 99.9799 233.62C99.0733 233.41 98.1693 233.188 97.2682 232.954C96.3668 232.721 95.4686 232.477 94.5734 232.222C93.6783 231.966 92.7864 231.7 91.8979 231.423C91.0093 231.145 90.1242 230.857 89.2427 230.558C88.3612 230.259 87.4835 229.949 86.6097 229.628C85.7358 229.307 84.8661 228.976 84.0004 228.633C83.1348 228.291 82.2734 227.938 81.4164 227.574C80.5596 227.211 79.7072 226.837 78.8594 226.452C78.0117 226.068 77.1689 225.673 76.3309 225.268C57.5777 216.257 41.4492 201.371 30.2639 183.88C33.5832 181.599 37.2582 179.26 40.4287 176.835C47.1387 186.988 55.1647 196.351 64.9067 203.721C67.115 205.415 69.3848 207.022 71.7162 208.542C74.0477 210.062 76.4338 211.49 78.8747 212.827C96.9627 222.514 118.706 226.763 139.084 223.92C139.887 223.815 140.689 223.701 141.489 223.576C142.289 223.452 143.088 223.318 143.885 223.173C144.682 223.029 145.477 222.876 146.27 222.712C147.063 222.548 147.854 222.375 148.643 222.192C149.432 222.009 150.218 221.816 151.002 221.613C151.786 221.411 152.568 221.198 153.347 220.977C154.126 220.755 154.902 220.523 155.675 220.282C156.448 220.041 157.218 219.791 157.985 219.531C158.752 219.271 159.516 219.002 160.276 218.723C161.036 218.444 161.793 218.156 162.547 217.859C163.3 217.561 164.049 217.255 164.795 216.939C165.541 216.623 166.283 216.298 167.02 215.963C167.758 215.629 168.491 215.286 169.221 214.934C169.95 214.581 170.675 214.22 171.395 213.85C172.115 213.48 172.831 213.101 173.542 212.713C174.253 212.325 174.959 211.929 175.66 211.523C176.361 211.118 177.057 210.705 177.748 210.282C178.439 209.86 179.125 209.429 179.805 208.99C180.486 208.551 181.161 208.103 181.83 207.647C182.5 207.191 183.163 206.727 183.821 206.255C184.479 205.783 185.131 205.302 185.777 204.814C186.423 204.326 187.063 203.829 187.697 203.325C188.33 202.821 188.958 202.309 189.579 201.79C190.201 201.27 190.815 200.743 191.423 200.208C192.032 199.674 192.633 199.132 193.228 198.582C193.823 198.032 194.411 197.475 194.992 196.911C195.573 196.347 196.147 195.776 196.714 195.198C197.281 194.62 197.841 194.035 198.394 193.443C198.946 192.851 199.492 192.252 200.029 191.646C200.567 191.041 201.098 190.429 201.62 189.811C202.143 189.192 202.658 188.567 203.166 187.936C203.673 187.305 204.172 186.667 204.664 186.024C205.166 185.369 205.66 184.709 206.146 184.042C206.632 183.376 207.109 182.703 207.578 182.025C208.048 181.346 208.508 180.662 208.961 179.972C209.413 179.282 209.856 178.587 210.291 177.886C210.726 177.185 211.153 176.479 211.57 175.768C211.988 175.056 212.397 174.34 212.796 173.619C213.196 172.897 213.587 172.171 213.969 171.44C214.351 170.709 214.724 169.973 215.087 169.232C215.451 168.492 215.806 167.747 216.151 166.998C216.496 166.249 216.832 165.496 217.159 164.738C217.486 163.981 217.803 163.22 218.111 162.454C218.418 161.689 218.717 160.92 219.005 160.148C219.294 159.375 219.574 158.599 219.843 157.819C220.113 157.04 220.373 156.257 220.623 155.471C220.873 154.685 221.114 153.896 221.344 153.104C221.575 152.312 221.796 151.517 222.007 150.72C222.218 149.923 222.419 149.123 222.61 148.32C222.802 147.518 222.983 146.713 223.154 145.906C223.326 145.099 223.487 144.291 223.639 143.48C223.79 142.669 223.931 141.856 224.063 141.042C224.194 140.228 224.315 139.412 224.426 138.594C224.537 137.777 224.638 136.959 224.729 136.139C224.82 135.319 224.901 134.498 224.971 133.676C225.042 132.854 225.102 132.032 225.152 131.208C225.203 130.385 225.243 129.561 225.272 128.737C225.302 127.913 225.322 127.088 225.331 126.263C225.341 125.438 225.34 124.614 225.329 123.789C225.318 122.964 225.297 122.14 225.266 121.315C225.234 120.491 225.193 119.667 225.141 118.844C225.089 118.021 225.027 117.198 224.955 116.376C224.883 115.555 224.801 114.734 224.709 113.914C224.616 113.095 224.514 112.276 224.401 111.459C224.295 110.728 224.182 109.998 224.06 109.269C223.939 108.54 223.809 107.813 223.672 107.087C223.534 106.361 223.389 105.637 223.235 104.914C223.082 104.191 222.92 103.47 222.751 102.751C222.582 102.032 222.405 101.314 222.22 100.599C222.035 99.8837 221.842 99.1705 221.642 98.4595C221.441 97.7483 221.233 97.0394 221.016 96.3327C220.8 95.6262 220.577 94.9222 220.345 94.2205C220.113 93.5188 219.874 92.8198 219.627 92.1235C219.38 91.4272 219.126 90.7336 218.864 90.0427C218.602 89.3519 218.332 88.664 218.055 87.979C217.778 87.2942 217.493 86.6124 217.201 85.9337C216.909 85.2551 216.609 84.5797 216.302 83.9075C215.996 83.2353 215.681 82.5667 215.36 81.9015C215.038 81.2363 214.709 80.5747 214.373 79.9165C214.037 79.2585 213.694 78.6042 213.344 77.9537C212.993 77.3032 212.636 76.6567 212.271 76.0142C211.907 75.3716 211.535 74.733 211.156 74.0985C210.778 73.464 210.392 72.8337 210 72.2075C209.607 71.5815 209.208 70.9598 208.802 70.3425C208.396 69.7252 207.983 69.1124 207.564 68.5042C207.144 67.8959 206.718 67.2923 206.286 66.6935C205.853 66.0945 205.414 65.5003 204.968 64.911C204.522 64.3218 204.07 63.7375 203.612 63.158C203.153 62.5787 202.688 62.0044 202.217 61.4352C201.746 60.8661 201.269 60.3021 200.785 59.7432C200.302 59.1846 199.812 58.6312 199.317 58.0832C198.821 57.5352 198.319 56.9927 197.812 56.4557C197.304 55.9187 196.791 55.3873 196.272 54.8615C195.753 54.3358 195.228 53.8158 194.697 53.3015C194.167 52.7873 193.631 52.279 193.089 51.7765C192.548 51.274 192 50.7775 191.448 50.287C188.152 47.3595 184.564 45.0317 181.055 42.3982C182.712 40.6895 184.531 39.1165 186.252 37.471C187.597 36.1855 188.958 34.5905 190.475 33.5262Z" fill="#FAD827"/>
<path d="M29.2007 149.376C28.7402 146.767 28.0944 144.205 27.7087 141.577C27.5427 140.396 27.3964 139.212 27.2699 138.026C27.1434 136.839 27.0367 135.651 26.9497 134.461C26.8628 133.272 26.7957 132.081 26.7484 130.889C26.7011 129.697 26.6737 128.504 26.6662 127.311C26.6585 126.118 26.6707 124.925 26.7029 123.733C26.7351 122.54 26.7871 121.349 26.8591 120.158C26.931 118.967 27.0226 117.778 27.1339 116.59C27.2454 115.402 27.3767 114.216 27.5277 113.033C27.6348 112.217 27.7522 111.402 27.8797 110.588C28.007 109.775 28.1445 108.963 28.2922 108.153C28.4397 107.343 28.5972 106.535 28.7647 105.729C28.9323 104.923 29.1099 104.119 29.2974 103.317C29.4851 102.515 29.6826 101.716 29.8899 100.919C30.0972 100.122 30.3145 99.3281 30.5417 98.5367C30.7687 97.7452 31.0055 96.9567 31.2522 96.1712C31.4988 95.3856 31.7552 94.6032 32.0212 93.824C32.2872 93.0448 32.5628 92.2691 32.8482 91.4967C33.1335 90.7242 33.4283 89.9555 33.7326 89.1905C34.037 88.4255 34.3507 87.6643 34.6739 86.907C34.9972 86.1498 35.3298 85.3967 35.6717 84.6475C36.0137 83.8985 36.3648 83.1538 36.7252 82.4135C37.0857 81.6733 37.4552 80.9377 37.8337 80.2065C38.2123 79.4753 38.6 78.749 38.9966 78.0275C39.3933 77.306 39.7989 76.5895 40.2134 75.878C40.6279 75.1665 41.0511 74.4602 41.4829 73.7592C41.9149 73.0582 42.3555 72.3627 42.8046 71.6727C43.254 70.9827 43.7117 70.2984 44.1779 69.6197C44.6441 68.9411 45.1186 68.2682 45.6014 67.6012C46.0844 66.9344 46.5755 66.2737 47.0746 65.619C47.574 64.9642 48.0813 64.3157 48.5966 63.6735C49.112 63.0315 49.6352 62.3959 50.1664 61.7667C50.6976 61.1376 51.2364 60.5151 51.7829 59.8992C52.3296 59.2834 52.8837 58.6745 53.4454 58.0725C54.0071 57.4705 54.5761 56.8755 55.1524 56.2875C55.7289 55.6995 56.3126 55.1188 56.9034 54.5455C57.4942 53.972 58.0921 53.4059 58.6969 52.8472C59.3019 52.2887 59.9137 51.7377 60.5322 51.1942C61.1507 50.6507 61.7759 50.1151 62.4079 49.5872C63.0397 49.0592 63.678 48.5392 64.3226 48.027C64.9675 47.515 65.6185 47.011 66.2756 46.515C66.8041 46.1162 67.3365 45.7225 67.8727 45.334C68.4088 44.9457 68.9487 44.5625 69.4924 44.1845C70.0361 43.8067 70.5834 43.4341 71.1344 43.0667C71.6852 42.6996 72.2397 42.3378 72.7977 41.9815C73.3557 41.625 73.9171 41.2741 74.4819 40.9287C75.0467 40.5832 75.6149 40.2433 76.1864 39.909C76.7579 39.5747 77.3326 39.2459 77.9104 38.9227C78.4884 38.5996 79.0694 38.2821 79.6534 37.9702C80.2376 37.6586 80.8247 37.3526 81.4147 37.0522C82.0048 36.7519 82.5978 36.4573 83.1937 36.1685C83.7893 35.8798 84.3878 35.5969 84.9891 35.3197C85.5905 35.0427 86.1945 34.7716 86.8011 34.5062C87.4078 34.2409 88.017 33.9816 88.6287 33.7282C89.2403 33.4749 89.8545 33.2275 90.4712 32.986C91.0877 32.7447 91.7064 32.5093 92.3274 32.28C92.9486 32.0507 93.5719 31.8274 94.1974 31.6102C94.8229 31.3931 95.4504 31.1821 96.0799 30.9772C96.7096 30.7722 97.3411 30.5735 97.9746 30.381C98.6081 30.1883 99.2434 30.0019 99.8804 29.8217C100.518 29.6416 101.156 29.4677 101.797 29.3C102.437 29.1323 103.079 28.9709 103.723 28.8157C104.367 28.6606 105.012 28.5117 105.659 28.369C106.305 28.2265 106.953 28.0902 107.602 27.9602C108.251 27.8304 108.902 27.7068 109.554 27.5895C110.205 27.4723 110.858 27.3615 111.512 27.257C112.165 27.1525 112.82 27.0544 113.476 26.9627C114.132 26.8709 114.788 26.7856 115.446 26.7067C116.103 26.6279 116.761 26.5554 117.42 26.4892C118.079 26.4232 118.738 26.3637 119.398 26.3105C120.058 26.2573 120.718 26.2106 121.379 26.1702C122.04 26.1299 122.701 26.0961 123.363 26.0687C124.024 26.0414 124.686 26.0205 125.348 26.006C129.113 25.9245 132.918 26.136 136.67 26.4402C141.033 26.794 145.182 27.961 149.494 28.5595C159.343 30.471 172.829 36.5665 181.055 42.3982C184.564 45.0317 188.152 47.3595 191.448 50.287C192 50.7775 192.547 51.274 193.089 51.7765C193.631 52.279 194.167 52.7873 194.697 53.3015C195.228 53.8158 195.753 54.3358 196.272 54.8615C196.791 55.3873 197.304 55.9187 197.812 56.4557C198.319 56.9927 198.821 57.5352 199.317 58.0832C199.812 58.6312 200.302 59.1846 200.785 59.7432C201.269 60.3021 201.746 60.8661 202.217 61.4352C202.688 62.0044 203.153 62.5787 203.612 63.158C204.07 63.7375 204.522 64.3218 204.968 64.911C205.414 65.5003 205.853 66.0945 206.286 66.6935C206.718 67.2923 207.144 67.8959 207.564 68.5042C207.983 69.1124 208.396 69.7252 208.802 70.3425C209.208 70.9598 209.607 71.5815 210 72.2075C210.392 72.8337 210.778 73.464 211.156 74.0985C211.535 74.733 211.906 75.3716 212.271 76.0142C212.636 76.6569 212.993 77.3034 213.344 77.9537C213.694 78.6042 214.037 79.2586 214.373 79.9167C214.709 80.5747 215.038 81.2363 215.36 81.9015C215.681 82.5666 215.996 83.2353 216.302 83.9075C216.609 84.5797 216.909 85.2551 217.201 85.9337C217.493 86.6124 217.778 87.2942 218.055 87.979C218.332 88.664 218.602 89.3519 218.864 90.0427C219.126 90.7336 219.38 91.4272 219.627 92.1235C219.874 92.8198 220.113 93.5188 220.345 94.2205C220.577 94.9222 220.8 95.6262 221.016 96.3327C221.233 97.0394 221.441 97.7483 221.642 98.4595C221.842 99.1705 222.035 99.8837 222.22 100.599C222.405 101.314 222.582 102.032 222.751 102.751C222.921 103.47 223.082 104.191 223.235 104.914C223.389 105.637 223.534 106.361 223.672 107.087C223.809 107.813 223.939 108.54 224.06 109.269C224.182 109.998 224.296 110.728 224.401 111.459C224.514 112.276 224.616 113.095 224.709 113.914C224.801 114.734 224.883 115.555 224.955 116.376C225.027 117.198 225.089 118.021 225.141 118.844C225.193 119.667 225.234 120.491 225.266 121.315C225.297 122.14 225.318 122.964 225.329 123.789C225.34 124.614 225.341 125.438 225.331 126.263C225.322 127.088 225.302 127.913 225.272 128.737C225.243 129.561 225.203 130.385 225.152 131.208C225.102 132.032 225.042 132.854 224.971 133.676C224.901 134.498 224.82 135.319 224.729 136.139C224.638 136.959 224.537 137.777 224.426 138.594C224.315 139.412 224.194 140.228 224.063 141.042C223.931 141.856 223.79 142.669 223.639 143.48C223.487 144.291 223.326 145.099 223.154 145.906C222.983 146.713 222.802 147.518 222.61 148.32C222.419 149.123 222.218 149.923 222.007 150.72C221.796 151.517 221.575 152.312 221.344 153.104C221.113 153.896 220.873 154.685 220.623 155.471C220.373 156.257 220.113 157.04 219.843 157.819C219.573 158.599 219.294 159.375 219.005 160.148C218.717 160.92 218.418 161.689 218.111 162.455C217.803 163.22 217.486 163.981 217.159 164.738C216.832 165.496 216.496 166.249 216.151 166.998C215.806 167.747 215.451 168.492 215.088 169.233C214.724 169.973 214.351 170.709 213.969 171.44C213.587 172.171 213.197 172.897 212.797 173.619C212.397 174.34 211.988 175.056 211.57 175.768C211.153 176.479 210.727 177.185 210.291 177.886C209.856 178.587 209.413 179.282 208.961 179.972C208.508 180.662 208.048 181.346 207.578 182.025C207.109 182.703 206.632 183.376 206.146 184.042C205.66 184.709 205.166 185.369 204.664 186.024C204.172 186.667 203.673 187.305 203.166 187.936C202.658 188.567 202.143 189.192 201.62 189.81C201.098 190.429 200.567 191.041 200.029 191.647C199.492 192.252 198.946 192.851 198.394 193.443C197.841 194.035 197.281 194.62 196.714 195.198C196.147 195.776 195.573 196.347 194.992 196.912C194.411 197.476 193.823 198.032 193.228 198.582C192.633 199.131 192.032 199.674 191.423 200.208C190.815 200.743 190.201 201.27 189.579 201.79C188.958 202.309 188.33 202.821 187.697 203.325C187.063 203.829 186.423 204.326 185.777 204.814C185.131 205.302 184.479 205.783 183.821 206.255C183.163 206.727 182.499 207.191 181.83 207.647C181.161 208.103 180.486 208.551 179.805 208.99C179.125 209.429 178.439 209.86 177.748 210.282C177.057 210.705 176.361 211.118 175.66 211.523C174.959 211.929 174.253 212.325 173.542 212.713C172.831 213.101 172.115 213.48 171.395 213.85C170.675 214.22 169.95 214.581 169.221 214.933C168.491 215.286 167.758 215.629 167.02 215.963C166.282 216.298 165.541 216.623 164.795 216.939C164.049 217.254 163.3 217.561 162.547 217.858C161.793 218.156 161.036 218.444 160.276 218.723C159.516 219.002 158.752 219.271 157.985 219.531C157.218 219.791 156.448 220.041 155.675 220.282C154.902 220.523 154.126 220.755 153.347 220.977C152.568 221.198 151.786 221.411 151.002 221.613C150.218 221.816 149.432 222.009 148.643 222.192C147.854 222.375 147.063 222.548 146.27 222.712C145.477 222.876 144.682 223.029 143.885 223.173C143.088 223.318 142.289 223.452 141.489 223.576C140.689 223.701 139.887 223.815 139.084 223.92C118.706 226.763 96.9626 222.514 78.8746 212.827C76.4338 211.49 74.0476 210.062 71.7161 208.542C69.3848 207.022 67.115 205.415 64.9067 203.721C55.1647 196.351 47.1386 186.988 40.4286 176.835C37.2581 179.26 33.5832 181.599 30.2639 183.88C27.8454 180.383 25.9407 176.544 24.2583 172.649C23.4283 170.727 19.1216 159.306 19.1216 159.306C20.3359 158.354 21.2694 157.084 22.2719 155.922C23.7463 154.213 27.2602 150.187 29.2007 149.376Z" fill="#E59F18"/>
<path d="M115.785 204.932C117.292 205.124 118.784 205.421 120.295 205.586C121.579 205.726 122.868 205.743 124.153 205.865C123.238 206.415 120.961 206.822 119.911 206.589L119.913 206.395L120.198 206.19L120.083 205.984C119.463 205.76 118.331 206.144 117.613 206.118C118.274 205.909 119.027 206.026 119.641 205.78C118.988 205.488 116.726 205.299 115.848 205.143L115.785 204.932Z" fill="#D26914"/>
<path d="M137.887 52.488C139.649 52.5697 141.487 53.018 143.198 53.4437C149.969 55.128 156.128 57.8505 162.148 61.3345C162.584 61.6417 162.316 62.2965 162.56 62.72C162.556 62.699 162.434 62.8153 162.56 62.72C162.048 62.7153 162.001 61.68 161.453 61.3997C158.544 59.9125 155.639 58.4347 152.641 57.1332C148.478 55.3255 143.854 53.715 139.403 52.8222L137.887 52.488Z" fill="#D26914"/>
<path d="M199.853 82.0915C200.845 83.1705 201.575 84.4527 202.488 85.5957C203.965 87.4472 206.049 88.7507 207.96 90.1055C204.392 91.6942 201.96 94.5897 199.91 97.825L199.817 97.865C199.314 97.604 198.004 95.2372 197.482 94.59C195.973 92.7187 193.911 91.1975 191.842 90.0062C195.98 87.0167 196.919 86.425 199.853 82.0915Z" fill="#FEFEFE"/>
<path d="M19.1216 159.306C20.3359 158.354 21.2694 157.084 22.2719 155.922C23.7463 154.213 27.2602 150.187 29.2007 149.376C31.1117 157.965 35.6122 169.465 40.4287 176.834C37.2582 179.26 33.5832 181.599 30.2639 183.879C25.1041 175.055 22.6445 169.699 19.1216 159.306Z" fill="#FECE39"/>
<path d="M95.7377 194.582C105.995 199.404 117.837 202.316 129.215 201.976C143.286 201.555 155.935 197.912 167.881 190.436C173.038 187.208 177.739 183.489 181.917 179.058C193.408 166.872 200.451 151.854 201.815 135.11C202.065 132.04 202.232 128.902 202.062 125.824C201.882 122.562 201.606 119.171 201.023 115.955C200.799 114.715 199.704 111.054 199.706 110.275C199.706 110.215 199.708 110.155 199.71 110.095C201.472 114.284 202.946 118.681 203.714 123.171C204.129 125.6 204.165 128.128 204.236 130.588C204.531 140.83 203.179 149.483 199.292 159.021C191.387 178.422 176.505 192.397 157.299 200.471C156.38 200.858 155.452 201.224 154.516 201.569C153.58 201.914 152.636 202.237 151.685 202.54C150.734 202.842 149.777 203.123 148.813 203.381C147.85 203.64 146.881 203.877 145.907 204.092C144.932 204.308 143.954 204.501 142.971 204.671C141.988 204.842 141.001 204.991 140.011 205.117C139.022 205.243 138.03 205.346 137.035 205.427C136.041 205.509 135.045 205.567 134.048 205.603C130.741 205.723 127.446 205.437 124.153 205.865C122.868 205.743 121.579 205.726 120.295 205.586C118.784 205.421 117.292 205.124 115.785 204.932C112.729 204.335 109.702 203.618 106.703 202.781C94.8129 199.386 84.2594 192.576 75.4932 183.943C72.1989 180.698 69.2744 177.452 67.0134 173.394C67.0442 173.42 67.0752 173.446 67.1057 173.472C67.9392 174.195 68.6367 175.11 69.3762 175.928C70.3357 176.989 71.3659 178.014 72.4117 178.99C73.2655 179.797 74.1359 180.586 75.0229 181.356C75.9098 182.126 76.8124 182.878 77.7309 183.61C78.6494 184.342 79.5829 185.055 80.5314 185.748C81.4798 186.441 82.4423 187.114 83.4189 187.767C84.3956 188.42 85.3855 189.052 86.3887 189.663C87.3918 190.275 88.4073 190.865 89.4352 191.433C90.4632 192.002 91.5026 192.548 92.5534 193.073C93.6043 193.598 94.6657 194.101 95.7377 194.582Z" fill="#B26307"/>
<path d="M34.2787 135.912C34.2094 130.831 33.9112 125.841 34.1577 120.751C34.2012 120.001 34.2538 119.253 34.3154 118.505C34.3771 117.757 34.4479 117.01 34.5279 116.263C34.6079 115.517 34.6969 114.772 34.7949 114.028C34.8931 113.284 35.0004 112.541 35.1167 111.799C35.233 111.058 35.3584 110.318 35.4927 109.579C35.627 108.841 35.7704 108.104 35.9227 107.369C36.075 106.635 36.2364 105.902 36.4067 105.171C36.577 104.44 36.7562 103.711 36.9442 102.984C37.1322 102.258 37.3291 101.533 37.5349 100.812C37.7406 100.09 37.9551 99.3706 38.1784 98.654C38.4018 97.9375 38.6338 97.2238 38.8744 96.513C39.1151 95.802 39.3644 95.0941 39.6224 94.3895C39.8804 93.6846 40.147 92.9831 40.4222 92.2847C40.6974 91.5864 40.981 90.8916 41.2732 90.2002C41.5654 89.5089 41.8659 88.8212 42.1747 88.1372C42.4837 87.4531 42.8009 86.7729 43.1264 86.0967C43.4519 85.4204 43.7856 84.7481 44.1274 84.08C44.4694 83.4118 44.8195 82.748 45.1777 82.0885C45.5359 81.4288 45.902 80.7736 46.2762 80.123C46.6502 79.4723 47.0322 78.8264 47.4222 78.1852C47.812 77.5439 48.2097 76.9074 48.6152 76.2757C49.0207 75.6441 49.4339 75.0175 49.8547 74.396C50.2754 73.7745 50.7036 73.1582 51.1394 72.5472C51.5753 71.9362 52.0185 71.3306 52.4692 70.7302C52.9197 70.1301 53.3775 69.5354 53.8427 68.9462C54.3079 68.3572 54.7801 67.774 55.2594 67.1965C55.7388 66.619 56.2251 66.0474 56.7184 65.4817C57.2118 64.9161 57.7119 64.3566 58.2189 63.8032C58.7259 63.2497 59.2396 62.7026 59.7599 62.1617C60.2803 61.6207 60.8072 61.0862 61.3407 60.5582C61.874 60.0302 62.4138 59.5088 62.9599 58.994C63.5061 58.4791 64.0584 57.9711 64.6169 57.4697C65.0871 57.0444 65.5616 56.6239 66.0404 56.2082C66.5191 55.7926 67.002 55.3819 67.4892 54.9762C67.9764 54.5704 68.4676 54.1696 68.9629 53.774C69.4583 53.3781 69.9576 52.9875 70.4609 52.602C70.9643 52.2165 71.4715 51.8361 71.9827 51.461C72.4939 51.0858 73.0088 50.7159 73.5274 50.3512C74.0459 49.9866 74.5682 49.6272 75.0942 49.2732C75.6202 48.9192 76.1498 48.5706 76.6829 48.2275C77.2161 47.8843 77.7527 47.5466 78.2927 47.2145C78.8327 46.8823 79.376 46.5556 79.9227 46.2345C80.4694 45.9135 81.0193 45.598 81.5725 45.288C82.1256 44.9781 82.6819 44.674 83.2412 44.3755C83.8005 44.077 84.3629 43.7842 84.9282 43.4972C85.4935 43.2102 86.0618 42.9291 86.6329 42.6537C87.2039 42.3782 87.7778 42.1086 88.3544 41.845C88.9309 41.5813 89.5101 41.3236 90.0919 41.0717C90.6738 40.8199 91.2582 40.574 91.8452 40.334C92.432 40.0941 93.0213 39.8603 93.6129 39.6325C94.2046 39.4045 94.7985 39.1826 95.3947 38.967C95.9909 38.7513 96.5892 38.5416 97.1897 38.338C97.79 38.1345 98.3924 37.9371 98.9969 37.746C99.6014 37.5548 100.208 37.3698 100.816 37.191C101.425 37.0121 102.035 36.8396 102.646 36.6732C103.258 36.5069 103.872 36.3468 104.487 36.193C105.102 36.0391 105.718 35.8916 106.336 35.7502C106.954 35.6091 107.574 35.4742 108.195 35.3457C108.816 35.2171 109.438 35.0948 110.061 34.979C110.684 34.8631 111.309 34.7536 111.934 34.6505C112.56 34.5475 113.186 34.4508 113.814 34.3605C114.442 34.2701 115.07 34.1862 115.699 34.1087C116.329 34.0312 116.959 33.9602 117.589 33.8957C118.22 33.8311 118.851 33.7729 119.483 33.7212C124.879 33.2752 130.234 33.3797 135.635 33.6542C129.948 39.5182 121.054 47.584 116 54C117.496 53.9425 120.002 53.428 121.5 53.4437C123.663 53.4667 125.084 53.759 127.25 53.75C129.206 52.24 132.968 48.032 134.65 46.2287C138.141 42.4857 141.538 38.5695 145.399 35.2C148.3 36.012 151.229 36.7622 154.094 37.6957C161.818 40.2122 168.885 43.553 175.862 47.6797C174.529 49.2625 172.979 50.6985 171.519 52.1652C168.429 55.2682 165.292 58.29 162.148 61.3345C156.128 57.8505 149.969 55.128 143.198 53.4437C141.487 53.018 139.649 52.5697 137.887 52.488C137.348 52.2125 134.4 52.48 134.4 52.48C132.907 52.5055 132.439 52.3067 130.94 52.3062C127.095 52.305 123.181 52.4745 119.363 52.9305C116.399 53.2845 113.468 53.9515 110.573 54.6637C96.3039 58.174 83.0552 65.237 72.8082 75.8495C72.4834 76.1843 72.1618 76.5222 71.8434 76.8632C71.5251 77.2044 71.21 77.5485 70.8982 77.8955C70.5864 78.2425 70.2779 78.5924 69.9727 78.9452C69.6675 79.2981 69.3658 79.6537 69.0674 80.0122C68.7689 80.3709 68.4739 80.7323 68.1824 81.0965C67.8909 81.4606 67.6029 81.8276 67.3182 82.1972C67.0337 82.5669 66.7527 82.9392 66.4752 83.3142C66.1977 83.6892 65.9238 84.0669 65.6535 84.4472C65.3831 84.8274 65.1164 85.2101 64.8534 85.5955C64.5904 85.9806 64.331 86.3684 64.0752 86.7587C63.8195 87.1489 63.5676 87.5415 63.3194 87.9365C63.0713 88.3315 62.8269 88.7288 62.5862 89.1285C62.3455 89.5281 62.1086 89.93 61.8754 90.334C61.6424 90.7381 61.4133 91.1445 61.1879 91.553C60.9626 91.9615 60.7412 92.3721 60.5237 92.7847C60.3062 93.1976 60.0926 93.6123 59.8829 94.029C59.6733 94.4458 59.4676 94.8646 59.2659 95.2852C59.0643 95.7059 58.8666 96.1284 58.6729 96.5527C58.4793 96.9772 58.2897 97.4035 58.1042 97.8315C57.9187 98.2595 57.7372 98.6892 57.5597 99.1207C57.3824 99.5522 57.2091 99.9854 57.0399 100.42C56.8708 100.855 56.7058 101.291 56.5449 101.729C56.3841 102.167 56.2274 102.606 56.0749 103.047C55.9223 103.488 55.7739 103.931 55.6299 104.374C55.4858 104.818 55.3459 105.263 55.2102 105.709C55.0745 106.156 54.9431 106.603 54.8159 107.052C54.6888 107.501 54.5659 107.951 54.4474 108.402C54.3288 108.853 54.2144 109.306 54.1044 109.759C53.9944 110.212 53.8888 110.667 53.7874 111.122C53.6859 111.577 53.5889 112.034 53.4962 112.491C53.4035 112.948 53.3152 113.406 53.2312 113.865C53.1472 114.324 53.0675 114.784 52.9922 115.244C52.4459 118.637 52.2394 122.022 52.0794 125.451C51.9794 127.592 51.8447 129.749 51.8867 131.893C51.9145 132.907 51.9642 133.92 52.0357 134.931C52.1074 135.943 52.2007 136.953 52.3157 137.961C52.4309 138.968 52.5676 139.973 52.7259 140.975C52.8843 141.977 53.0642 142.975 53.2657 143.969C53.4672 144.963 53.6899 145.952 53.9339 146.936C54.1781 147.921 54.4434 148.899 54.7297 149.872C55.0159 150.845 55.3229 151.812 55.6509 152.772C55.9789 153.732 56.3274 154.684 56.6964 155.628C57.5597 157.858 58.9844 160.136 59.6689 162.35C58.6017 163.622 55.7134 165.459 54.2702 166.593C51.6087 168.685 49.1612 171.059 46.2824 172.858C42.8522 166.769 40.2462 160.137 38.1214 153.492C37.2439 150.748 36.5064 147.966 35.6447 145.218C38.5492 142.517 41.3652 139.727 44.2414 136.996C46.2102 135.127 49.2349 132.748 50.6974 130.536C50.6479 126.633 50.5734 122.662 51.0507 118.781C49.3647 120.426 47.5957 121.985 45.9362 123.659C44.0902 125.521 42.3644 127.501 40.5344 129.379C38.4297 131.539 36.2712 133.646 34.2787 135.912Z" fill="#FAF227"/>
<path d="M77.934 52.8795C78.6247 53.6118 79.067 54.5515 79.6552 55.3658C81.035 57.2763 82.8775 58.4083 84.8322 59.6473C84.1812 60.188 83.4292 60.648 82.7385 61.1408C80.477 62.7533 79.306 64.2425 78.0202 66.6805C75.9945 63.1248 74.5027 61.7473 71.021 59.6358C73.891 57.6958 76.1305 55.9165 77.934 52.8795Z" fill="#FEFEFE"/>
<path d="M59.669 162.351C58.9845 160.137 57.5598 157.858 56.6965 155.629C56.3275 154.684 55.979 153.732 55.651 152.772C55.323 151.812 55.016 150.846 54.7298 149.873C54.4435 148.9 54.1782 147.921 53.934 146.937C53.69 145.952 53.4673 144.963 53.2658 143.969C53.0643 142.975 52.8844 141.977 52.726 140.975C52.5677 139.973 52.431 138.968 52.3158 137.961C52.2008 136.953 52.1075 135.943 52.0358 134.932C51.9643 133.92 51.9146 132.907 51.8868 131.893C51.8448 129.749 51.9795 127.593 52.0795 125.451C52.2395 122.022 52.446 118.637 52.9923 115.244C53.0676 114.784 53.1473 114.324 53.2313 113.865C53.3153 113.406 53.4036 112.948 53.4963 112.491C53.589 112.034 53.686 111.577 53.7875 111.122C53.8889 110.667 53.9945 110.212 54.1045 109.759C54.2145 109.306 54.3289 108.853 54.4475 108.402C54.566 107.951 54.6889 107.501 54.816 107.052C54.9432 106.603 55.0746 106.156 55.2103 105.709C55.346 105.263 55.4859 104.818 55.63 104.374C55.774 103.931 55.9224 103.488 56.075 103.047C56.2275 102.606 56.3842 102.167 56.545 101.729C56.7059 101.291 56.8709 100.855 57.04 100.42C57.2092 99.9854 57.3825 99.5523 57.5598 99.1208C57.7373 98.6893 57.9188 98.2595 58.1043 97.8315C58.2898 97.4035 58.4794 96.9773 58.673 96.5528C58.8667 96.1284 59.0644 95.7059 59.266 95.2853C59.4677 94.8646 59.6734 94.4458 59.883 94.029C60.0927 93.6123 60.3063 93.1976 60.5238 92.7848C60.7413 92.3721 60.9627 91.9615 61.188 91.553C61.4134 91.1445 61.6425 90.7382 61.8755 90.334C62.1087 89.93 62.3456 89.5282 62.5863 89.1285C62.827 88.7289 63.0714 88.3315 63.3195 87.9365C63.5677 87.5415 63.8196 87.1489 64.0753 86.7588C64.3311 86.3684 64.5905 85.9807 64.8535 85.5955C65.1165 85.2102 65.3832 84.8274 65.6535 84.4473C65.9239 84.0669 66.1978 83.6893 66.4753 83.3143C66.7528 82.9393 67.0338 82.5669 67.3183 82.1973C67.603 81.8276 67.891 81.4607 68.1825 81.0965C68.474 80.7324 68.769 80.3709 69.0675 80.0123C69.3659 79.6538 69.6676 79.2981 69.9728 78.9453C70.278 78.5924 70.5865 78.2425 70.8983 77.8955C71.2101 77.5485 71.5252 77.2044 71.8435 76.8633C72.1619 76.5223 72.4835 76.1844 72.8083 75.8495C83.0553 65.237 96.304 58.174 110.573 54.6638C113.469 53.9515 116.399 53.2845 119.363 52.9305C123.182 52.4745 127.096 52.305 130.94 52.3063C132.439 52.3068 134.237 52.3317 135.73 52.3062C136.88 52.3063 142.08 52.9305 142.08 52.9305C148.48 53.76 154.065 56.7644 162.5 61.5C162.5 61.5 128.516 84.7198 127.854 86.041C123.715 89.7743 119.644 93.587 115.476 97.287C111.348 100.952 106.932 104.586 103.228 108.686C99.0968 106.358 100.487 108.13 96.2501 106C95.9626 106.399 93.8753 109.517 94.0001 110.25C93.9848 110.188 94.0108 110.313 94.0001 110.25C99.1543 113.447 94.115 110.526 99.3445 113.602C99.9665 116.412 100.4 119.301 100.826 122.147L100.71 122.451C100.586 122.377 100.476 122.261 100.324 122.293C99.6505 122.436 88.065 133.218 85.8558 134.732L85.9935 136.1C85.9228 136.283 85.887 136.5 85.7328 136.624C84.6348 137.507 83.6745 138.621 82.6625 139.606L76.2443 145.819C70.9583 150.963 65.4988 155.996 60.3588 161.284C60.1285 161.52 59.758 161.826 59.7258 162.168C59.7203 162.226 59.7218 162.285 59.7198 162.343L59.669 162.351Z" fill="#E5B437"/>
<path d="M56.7477 122.277C61.0167 125.057 63.0455 127.59 65.755 131.802C68.0497 128.034 70.4285 125.033 74.1047 122.502C75.0762 122.745 76.032 123.379 76.8867 123.884C71.8075 127.861 69.5587 129.599 65.825 135.119C62.4602 130.016 59.244 127.249 54.178 123.933C55.0186 123.356 55.8752 122.804 56.7477 122.277Z" fill="#D26914"/>
<path d="M65.5378 109.498C68.4771 114.65 71.7291 117.656 76.7241 120.674C75.8506 121.276 74.9451 121.856 74.1048 122.502C70.4286 125.033 68.0498 128.034 65.7551 131.802C63.0456 127.59 61.0168 125.057 56.7478 122.277C55.9306 121.766 55.1103 121.273 54.2673 120.805C59.4858 117.729 62.4058 114.63 65.5378 109.498Z" fill="#FEFEFE"/>
<path d="M162.438 61.524C177.424 73.1984 185.812 80.476 194.75 97.75C196 100.166 198.602 107.381 199.75 110C199.75 110 201.237 114.49 201.462 115.729C202.045 118.945 202.32 122.336 202.5 125.598C202.67 128.677 202.503 131.814 202.253 134.884C200.889 151.628 193.846 166.646 182.355 178.832C178.177 183.263 173.476 186.982 168.319 190.21C156.373 197.687 143.724 201.329 129.653 201.75C118.275 202.09 106.433 199.178 96.1757 194.356C97.109 193.854 98.0825 193.434 99.0152 192.929C101.608 191.523 104.172 189.944 106.61 188.285C109.672 186.201 112.516 183.832 115.465 181.595C113.868 180.372 112.349 178.993 110.818 177.687L102.641 170.687L94.2372 163.443C92.7585 162.165 91.21 160.937 89.7992 159.585C89.299 159.106 88.713 158.608 88.5135 157.927L87.8755 152.197C87.6222 151.832 87.6687 151.501 87.688 151.08C87.3175 146.013 86.9527 140.926 86.4315 135.874L86.2937 134.506C88.503 132.992 100.088 122.21 100.762 122.067C100.913 122.035 101.023 122.151 101.148 122.225L101.264 121.921C100.837 119.075 100.404 116.186 99.7825 113.376C94.553 110.3 99.8423 113.221 94.688 110.024C94.6988 110.087 94.6728 109.962 94.688 110.024C94.4005 110.423 94.5633 109.291 94.688 110.024C97.0568 110.772 95.7165 104.657 97.938 105.774C102.175 107.904 99.5347 106.132 103.666 108.46C107.37 104.36 111.786 100.726 115.914 97.061C120.082 93.361 124.153 89.5483 128.291 85.815C128.954 84.4938 162.438 61.524 162.438 61.524Z" fill="#D29D14"/>
<path d="M121.136 133.271L121.137 133.27C122.732 132.147 123.681 130.37 123.681 128.414V77.2409C123.681 71.8034 116.881 69.1189 113.319 73.2771L113.318 73.2792C111.833 75.0504 110.407 77.1057 109.096 79.4447L109.095 79.4455L92.4265 109.457L92.4265 109.457L74.7373 141.284L74.7368 141.285C71.3159 147.504 70.1616 153.292 71.0243 158.242L71.0247 158.244C71.7964 162.461 76.7725 164.345 80.2579 161.921L80.2587 161.921L121.136 133.271Z" fill="url(#paint0_linear_271_15)" stroke="black" stroke-width="0.5"/>
<path d="M175.455 161.921L175.456 161.921C178.941 164.345 183.917 162.461 184.689 158.244L184.69 158.242C185.552 153.292 184.398 147.504 180.977 141.285L180.977 141.284L163.287 109.457L163.287 109.457L146.619 79.4455L146.618 79.4447C145.307 77.1057 143.881 75.0504 142.396 73.2792L142.396 73.2792L142.395 73.2771C138.833 69.1189 132.033 71.8034 132.033 77.2409V128.414C132.033 130.37 132.981 132.147 134.577 133.27L134.577 133.271L175.455 161.921Z" fill="url(#paint1_linear_271_15)" stroke="black" stroke-width="0.5"/>
<path d="M166.513 163.566L166.513 163.565L131.421 140.319C130.43 139.663 129.138 139.342 127.859 139.342C126.581 139.342 125.289 139.663 124.298 140.319L89.2064 163.565C86.8686 165.104 85.1945 166.587 84.1806 167.954C83.1691 169.319 82.7881 170.609 83.1275 171.734C83.4668 172.859 84.4982 173.728 86.0959 174.318C87.6976 174.908 89.9124 175.236 92.7091 175.25H92.7104H162.951C165.762 175.25 167.988 174.933 169.597 174.35C171.203 173.768 172.241 172.903 172.584 171.777C172.927 170.652 172.548 169.358 171.538 167.987C170.525 166.612 168.851 165.119 166.513 163.566Z" fill="url(#paint2_linear_271_15)" stroke="black" stroke-width="0.5"/>
<path d="M185.415 165.67C185.725 165.821 185.789 165.974 185.886 166.307C186.256 167.575 186.087 168.807 185.394 169.935C184.684 171.092 183.478 171.853 182.161 172.127C182.073 172.145 181.983 172.161 181.894 172.174C181.804 172.188 181.715 172.199 181.624 172.208C181.534 172.217 181.444 172.223 181.354 172.228C181.263 172.232 181.173 172.235 181.082 172.235C180.992 172.235 180.902 172.232 180.811 172.228C180.721 172.223 180.631 172.217 180.54 172.208C180.45 172.199 180.361 172.188 180.271 172.174C180.182 172.161 180.093 172.145 180.004 172.127C179.915 172.109 179.827 172.089 179.739 172.067C179.652 172.045 179.564 172.02 179.478 171.993C179.391 171.967 179.305 171.938 179.22 171.907C179.135 171.876 179.051 171.843 178.968 171.808C178.884 171.773 178.802 171.736 178.72 171.697C178.639 171.658 178.558 171.617 178.478 171.573C178.399 171.53 178.321 171.485 178.243 171.438C178.166 171.391 178.09 171.342 178.015 171.291C177.157 170.72 176.416 169.957 176.225 168.912C176.134 168.412 176.152 167.964 176.41 167.513C176.511 167.668 176.614 167.822 176.72 167.973C176.766 168.038 176.813 168.103 176.862 168.166C176.911 168.229 176.961 168.29 177.013 168.351C177.065 168.411 177.118 168.471 177.173 168.528C177.228 168.586 177.285 168.643 177.342 168.698C177.4 168.753 177.459 168.806 177.519 168.858C177.58 168.91 177.642 168.961 177.704 169.009C177.767 169.058 177.832 169.106 177.897 169.151C177.962 169.197 178.029 169.241 178.096 169.283C178.164 169.326 178.233 169.366 178.302 169.405C178.372 169.444 178.442 169.481 178.514 169.516C178.585 169.552 178.658 169.585 178.731 169.617C178.804 169.649 178.878 169.678 178.952 169.706C179.027 169.734 179.102 169.761 179.178 169.785C179.254 169.809 179.331 169.831 179.408 169.851C179.485 169.872 179.562 169.89 179.64 169.907C179.719 169.923 179.797 169.937 179.876 169.95C179.957 169.963 180.038 169.974 180.12 169.982C180.202 169.991 180.284 169.997 180.366 170.002C180.448 170.006 180.53 170.009 180.612 170.009C180.694 170.009 180.777 170.007 180.859 170.003C180.941 170 181.023 169.994 181.104 169.985C181.186 169.977 181.268 169.967 181.349 169.955C181.43 169.942 181.511 169.928 181.592 169.912C181.672 169.895 181.752 169.877 181.832 169.856C181.911 169.836 181.99 169.813 182.069 169.788C182.147 169.764 182.225 169.737 182.302 169.709C182.379 169.68 182.456 169.65 182.531 169.617C182.607 169.585 182.681 169.55 182.755 169.514C182.829 169.478 182.902 169.44 182.973 169.4C183.045 169.36 183.116 169.318 183.185 169.274C183.255 169.231 183.324 169.185 183.391 169.138C183.458 169.091 183.524 169.042 183.589 168.991C184.71 168.124 185.21 167.04 185.415 165.67Z" fill="#B23F07"/>
<path d="M196.223 125.918C196.295 125.515 196.291 125.163 196.271 124.756L196.68 124.714C197.192 125.539 197.397 127.295 197.199 128.257C196.933 129.542 195.981 130.825 194.87 131.491C193.535 132.292 191.728 132.523 190.222 132.144C190.058 132.101 189.897 132.051 189.738 131.993C189.579 131.935 189.423 131.869 189.271 131.796C189.118 131.723 188.969 131.643 188.824 131.555C188.679 131.468 188.539 131.374 188.403 131.273C188.267 131.173 188.136 131.066 188.01 130.953C187.884 130.84 187.764 130.721 187.65 130.596C187.535 130.471 187.427 130.341 187.325 130.206C187.223 130.071 187.128 129.932 187.039 129.787C186.692 129.214 186.37 128.117 186.534 127.445C186.573 127.286 186.586 127.279 186.655 127.155C186.77 127.42 186.902 127.676 187.053 127.922C187.68 128.967 188.715 129.676 189.906 129.926C191.35 130.23 192.964 129.921 194.196 129.11C195.41 128.311 195.94 127.297 196.223 125.918Z" fill="#B23F07"/>
<path d="M176.41 167.513C176.218 166.979 175.992 166.443 175.946 165.872C175.855 164.752 176.254 163.633 176.982 162.786C177.85 161.776 179.147 161.155 180.471 161.063C181.685 160.978 182.932 161.342 183.852 162.152C184.898 163.073 185.298 164.323 185.415 165.67C185.21 167.04 184.71 168.124 183.589 168.991C183.524 169.042 183.458 169.091 183.391 169.138C183.324 169.185 183.255 169.231 183.185 169.274C183.116 169.318 183.045 169.36 182.973 169.4C182.902 169.44 182.829 169.478 182.755 169.514C182.681 169.55 182.607 169.585 182.531 169.617C182.456 169.65 182.379 169.68 182.302 169.709C182.225 169.737 182.147 169.764 182.069 169.788C181.99 169.813 181.911 169.836 181.832 169.856C181.752 169.877 181.672 169.895 181.592 169.912C181.511 169.928 181.43 169.942 181.349 169.955C181.268 169.967 181.186 169.977 181.104 169.985C181.023 169.994 180.941 170 180.859 170.003C180.777 170.007 180.694 170.009 180.612 170.009C180.53 170.009 180.448 170.006 180.366 170.002C180.284 169.997 180.202 169.991 180.12 169.982C180.038 169.974 179.957 169.963 179.876 169.95C179.797 169.937 179.719 169.923 179.64 169.907C179.562 169.89 179.485 169.872 179.408 169.851C179.331 169.831 179.254 169.809 179.178 169.785C179.102 169.761 179.027 169.734 178.952 169.706C178.878 169.678 178.804 169.649 178.731 169.617C178.658 169.585 178.585 169.552 178.514 169.516C178.442 169.481 178.372 169.444 178.302 169.405C178.233 169.366 178.164 169.326 178.096 169.283C178.029 169.241 177.962 169.197 177.897 169.151C177.832 169.106 177.767 169.058 177.704 169.009C177.642 168.961 177.58 168.91 177.519 168.858C177.459 168.806 177.4 168.753 177.342 168.698C177.285 168.643 177.228 168.586 177.173 168.528C177.118 168.471 177.065 168.411 177.013 168.351C176.961 168.29 176.911 168.229 176.862 168.166C176.813 168.103 176.766 168.038 176.72 167.973C176.614 167.822 176.511 167.668 176.41 167.513Z" fill="#FEFEFE"/>
<path d="M186.655 127.156C186.575 126.892 186.494 126.625 186.441 126.354C186.205 125.143 186.617 123.728 187.353 122.757C187.445 122.636 187.543 122.52 187.646 122.409C187.75 122.297 187.858 122.191 187.972 122.09C188.086 121.989 188.204 121.894 188.328 121.805C188.451 121.716 188.578 121.633 188.709 121.557C188.841 121.48 188.975 121.41 189.114 121.346C189.252 121.283 189.393 121.226 189.537 121.177C189.68 121.127 189.826 121.085 189.974 121.05C190.122 121.014 190.271 120.987 190.422 120.966C191.817 120.785 193.36 121.305 194.437 122.191C195.655 123.193 196.081 124.407 196.223 125.918C195.94 127.297 195.41 128.312 194.196 129.11C192.964 129.921 191.35 130.23 189.906 129.927C188.715 129.676 187.68 128.967 187.053 127.922C186.902 127.676 186.77 127.42 186.655 127.156Z" fill="#FEFEFE"/>
<defs>
<linearGradient id="paint0_linear_271_15" x1="80.4169" y1="71.5" x2="145.744" y2="120.031" gradientUnits="userSpaceOnUse">
<stop stop-color="#FFF326"/>
<stop offset="0.5" stop-color="#FFC01E"/>
<stop offset="1" stop-color="#E58118"/>
</linearGradient>
<linearGradient id="paint1_linear_271_15" x1="141.7" y1="71.5" x2="207.027" y2="120.031" gradientUnits="userSpaceOnUse">
<stop stop-color="#FFF326"/>
<stop offset="0.5" stop-color="#FFC01E"/>
<stop offset="1" stop-color="#E58118"/>
</linearGradient>
<linearGradient id="paint2_linear_271_15" x1="99.2776" y1="139.592" x2="114.137" y2="187.988" gradientUnits="userSpaceOnUse">
<stop stop-color="#FFF326"/>
<stop offset="0.5" stop-color="#FFC01E"/>
<stop offset="1" stop-color="#E58118"/>
</linearGradient>
</defs>
</svg>
