<svg width="29" height="29" viewBox="0 0 29 29" fill="none" xmlns="http://www.w3.org/2000/svg">
<path fill-rule="evenodd" clip-rule="evenodd" d="M12.2991 14.5101L3.52982 11.587C1.17661 10.8026 0 10.4104 0 9.68966C0 8.9689 1.17661 8.57669 3.52982 7.79229L3.52982 7.79229L25.087 0.60656C26.7428 0.0546297 27.5707 -0.221335 28.0077 0.215681C28.4447 0.652697 28.1688 1.48059 27.6168 3.13638L20.4311 24.6936C19.6467 27.0468 19.2545 28.2234 18.5337 28.2234C17.813 28.2234 17.4208 27.0468 16.6364 24.6936L13.7133 15.9243L20.9655 8.67209C21.356 8.28157 21.356 7.6484 20.9655 7.25788C20.575 6.86736 19.9418 6.86736 19.5513 7.25788L12.2991 14.5101Z" fill="white"/>
</svg>
