<svg width="177" height="162" viewBox="0 0 177 162" fill="none" xmlns="http://www.w3.org/2000/svg">
<path d="M81.769 9.70842V89.1734C81.769 92.0639 80.3686 94.6917 78.0045 96.3565C78.0044 96.3565 78.0044 96.3566 78.0044 96.3566L14.5268 140.846C9.36049 144.439 2.00786 141.633 0.870113 135.416C-0.447983 127.854 1.30877 118.968 6.58738 109.372L34.0562 59.9489L59.9403 13.3449C61.9638 9.73545 64.1631 6.56649 66.45 3.83793C71.7006 -2.29096 81.769 1.64715 81.769 9.70842Z" fill="white" stroke="black" stroke-width="0.1"/>
<path d="M162.86 140.846L99.3822 96.3566C99.3822 96.3566 99.3821 96.3565 99.3821 96.3565C97.018 94.6917 95.6176 92.0639 95.6176 89.1734V9.70842C95.6176 1.64703 105.686 -2.2911 110.937 3.83816C113.224 6.56667 115.423 9.73555 117.446 13.3449L143.33 59.9489L170.799 109.372C176.078 118.968 177.835 127.854 176.517 135.416C175.379 141.633 168.026 144.439 162.86 140.846Z" fill="white" stroke="black" stroke-width="0.1"/>
<path d="M28.9126 144.125L28.9127 144.125L83.4058 108.026C84.8579 107.064 86.7749 106.582 88.6946 106.582C90.6143 106.582 92.5313 107.064 93.9834 108.026L148.476 144.125C152.085 146.522 154.638 148.807 156.168 150.885C157.7 152.963 158.202 154.826 157.727 156.383C157.252 157.941 155.793 159.212 153.359 160.094C150.926 160.976 147.526 161.466 143.188 161.466H34.1132C29.7966 161.444 26.4138 160.938 23.993 160.045C21.5715 159.152 20.1212 157.875 19.6514 156.318C19.1817 154.76 19.6869 152.903 21.2193 150.836C22.7512 148.769 25.3044 146.5 28.9126 144.125Z" fill="white" stroke="black" stroke-width="0.1"/>
</svg>
