<svg width="256" height="256" viewBox="0 0 256 256" fill="none" xmlns="http://www.w3.org/2000/svg">
<g clip-path="url(#clip0_271_828)">
<path d="M244.5 85C227.965 92.3316 224.554 98.0124 230 112.5C218.901 112.727 212.5 114 206 119L129 179.5L130 188L122 194L110.5 207.5L107 204L77.5 194C78.2131 209.125 78.4481 217.185 74.5 220.5L25.5 253.5C35.3668 235.848 39.8772 225.798 45.5 207.5C41 207 35 199.5 35.5 194C39.388 198.839 41.6758 200.561 47.5 202C49.3478 188.978 46.88 183.991 37 179C30 176.5 23 180.5 21.5 187C20.5 189.5 23 196 21 201C27.6905 200.089 30.3253 197.111 33.5 187.5C35.4702 191.823 35.3224 194.616 32 200.5C25.5 210.5 14 209 9 210C17.5 200 3.5 179 21 170.5C16.969 168.161 15.0671 165.725 13 160C20 164.5 23.1737 165.577 26.5 164.5C32.3686 160.188 34.4248 157.392 33.5 151L36 149.5L23 144L17 124L23.5 113.5L31 107.5L33.5 98L39.5 112.5L42 105L60.5 109.5L55 99L155.5 20C160.241 15.3773 161.966 11.9521 163 4C174.109 14.8299 180.357 13.201 191.5 1.5C194.984 20.0185 199.961 25.2858 215.5 23.5C211.374 43.2473 215.217 49.4716 235.5 50C225.8 67.2946 226.821 75.2182 244.5 85Z" fill="black"/>
<path d="M54.1304 158.482C54.1442 157.904 54.1891 157.362 54.2901 156.792C54.9804 156.388 58.9047 157.38 59.8433 157.61C58.1273 158.4 55.9852 158.381 54.1304 158.482Z" fill="#755322"/>
<path d="M93.8569 155.357L107.458 160.135C105.969 160.688 97.5748 155.927 95.7291 157.126C95.5849 157.839 96.3076 158.955 96.6334 159.641C96.0877 160.264 95.4555 160.869 94.953 161.519C95.2613 161.769 95.4961 161.944 95.8868 162.036C96.5964 162.204 102.491 165.146 102.749 165.531L102.711 165.611C99.836 164.458 97.0093 162.819 94.1899 161.507C95.0264 160.96 95.6359 160.346 96.2327 159.551C95.673 158.055 94.7344 156.681 93.8569 155.357Z" fill="#FBE74D"/>
<path d="M35.6187 194.952C36.3203 195.503 36.8392 196.507 37.4318 197.2C39.7361 199.892 42.2946 201.267 45.7251 201.972C45.4617 203.315 45.1727 204.653 44.8584 205.985L44.7384 206.396L44.4605 206.538C44.0916 206.476 43.8199 206.373 43.4923 206.187C39.4499 203.899 36.7679 199.321 35.6187 194.952Z" fill="#FAD225"/>
<path d="M66.0322 125.043C68.6263 124.24 71.6032 127.749 74.0493 126.708C75.4431 129.951 77.0508 133.14 78.5471 136.341C76.3344 135.646 74.1573 134.842 72.0239 133.932L70.4599 135.533C69.1108 131.989 67.5573 128.515 66.0322 125.043Z" fill="#FAD225"/>
<path d="M40.0771 116.221C41.1684 113.157 42.3488 110.117 43.3529 107.023C46.4289 107.996 49.5176 108.928 52.6184 109.819C51.0091 111.193 49.5154 112.786 47.9673 114.234C46.8631 115.267 45.409 116.336 44.4724 117.509C43.0138 117.05 41.5612 116.592 40.0771 116.221Z" fill="#DD9105"/>
<path d="M33.3937 100.623C34.6919 103.95 35.9044 107.311 37.0301 110.701C34.5577 112.136 32.3606 114.979 30.8375 117.351C30.2943 118.197 29.8405 119.201 29.2223 119.984C28.3833 117.576 27.1824 115.441 25.8716 113.27C27.8649 111.491 29.958 109.827 32.1407 108.286C32.6992 105.757 33.1176 103.198 33.3937 100.623Z" fill="#DD9105"/>
<path d="M59.8433 157.61L61.2006 157.816C62.8883 159.509 64.6641 161.2 66.2036 163.032C66.1503 163.017 66.0946 163.009 66.0434 162.988C65.1384 162.617 64.6866 161.288 63.7825 161.024C63.234 161.263 63.0606 161.576 62.8417 162.125C61.6304 165.163 62.2453 168.716 61.2903 171.804C61.2318 171.992 61.1779 172.182 61.1172 172.369C61.5481 172.823 62.3803 173.344 62.516 173.919C61.8429 173.507 61.2361 172.978 60.6499 172.452C56.5572 168.776 54.3999 163.944 54.1304 158.482C55.9852 158.381 58.1273 158.4 59.8433 157.61Z" fill="#A1701E"/>
<path d="M69.1303 216.902C70.3355 217.769 71.5715 218.61 72.7045 219.57C68.7909 222.088 65.0257 224.946 61.2436 227.662C60.2226 228.395 57.8042 230.424 56.7667 230.771C54.7429 232.41 52.4187 233.99 50.1935 235.353L50.176 235.183H50.0134C49.7408 235.411 49.5046 235.618 49.184 235.779C48.7511 235.382 48.6227 234.404 48.4692 233.832C49.4856 232.299 51.1555 231.563 52.1038 230.095C52.1265 229.785 52.1506 229.494 52.2246 229.19L52.2842 228.954C53.4525 227.854 55.3585 226.709 56.7639 225.893C57.6655 225.081 58.8009 224.402 59.7982 223.706C62.8981 221.544 66.3735 219.482 69.1303 216.902Z" fill="url(#paint0_linear_271_828)"/>
<path d="M56.7639 225.893C56.8475 225.872 56.9318 225.855 57.0146 225.832C57.7536 225.626 58.5699 224.981 59.1317 224.477C59.2746 224.348 59.4107 224.27 59.5856 224.192C59.5117 225.505 59.1993 226.707 59.4078 228.018C59.4487 228.275 59.4403 228.38 59.3353 228.616C58.5418 229.298 57.38 229.816 56.7189 230.561L56.7667 230.771C54.7429 232.41 52.4187 233.99 50.1935 235.353L50.176 235.183H50.0134C49.7408 235.411 49.5046 235.618 49.184 235.779C48.7511 235.382 48.6227 234.404 48.4692 233.832C49.4856 232.299 51.1555 231.564 52.1038 230.095C52.1265 229.785 52.1506 229.494 52.2246 229.191L52.2842 228.954C53.4525 227.854 55.3585 226.709 56.7639 225.893Z" fill="#6B9E69"/>
<path d="M29.2222 119.984C29.8404 119.201 30.2942 118.197 30.8374 117.351C32.3605 114.979 34.5575 112.136 37.03 110.701C37.8112 112.856 38.7362 115.061 39.248 117.297L42.3852 118.361C41.4817 119.98 33.4296 127.066 31.7449 128.057C31.0336 125.337 30.1614 122.633 29.2222 119.984Z" fill="#F7B617"/>
<path d="M23.4283 115.733C25.8876 118.367 27.5435 121.779 28.7651 125.138C28.7156 125.092 28.6642 125.048 28.6164 124.999C28.4058 124.789 28.4738 124.88 28.3794 124.583L27.9555 124.634L28.2342 124.411C27.9529 124.51 27.9289 124.641 27.8105 124.903C27.3681 125.886 27.2335 127.014 26.8195 128.02C26.3194 129.236 22.5653 136.275 21.8243 136.916C21.5439 135.559 21.0104 134.155 20.6122 132.82C19.8302 130.198 19.0917 127.554 18.1934 124.971C19.849 121.842 21.5947 118.762 23.4283 115.733Z" fill="#DD9105"/>
<path d="M93.0784 162.719C95.2499 163.556 97.3991 164.582 99.4791 165.627C94.8078 169.51 90.4422 173.669 85.9044 177.693C84.8824 178.601 83.1253 179.569 82.3745 180.656C80.6393 180.005 78.9127 179.33 77.1953 178.633C82.5248 173.364 87.8192 168.059 93.0784 162.719Z" fill="#FAD225"/>
<path d="M71.75 179.088L73.3671 179.577C75.2255 190.216 76.9085 201 76.036 211.827C75.8971 213.551 75.7979 216.105 74.8035 217.583C74.5452 217.966 74.1382 218.331 73.6687 218.417C72.5505 218.618 70.6422 216.742 69.8662 216.05C73.9032 203.958 72.3831 191.537 71.75 179.088Z" fill="url(#paint1_linear_271_828)"/>
<path d="M17.7318 191.988C18.0404 190.6 17.2268 188.959 17.4267 187.492C17.5176 186.823 17.9199 186.606 18.4235 186.222C18.4281 186.29 18.4468 186.359 18.4371 186.426C18.3663 186.924 18.251 187.11 18.3161 187.64C18.96 187.093 19.3293 185.401 19.7891 184.571C20.1055 184.001 20.2964 183.895 20.9186 183.707L20.9571 183.788C20.7373 184.299 20.5952 184.806 20.4687 185.345C20.2786 186.156 19.7496 188.224 20.1932 188.939L20.3805 188.77C20.9462 194.351 21.8827 196.652 19.6454 202.179C23.9773 201.421 28.0291 199.671 30.629 195.953C32.1815 193.735 32.8222 191.091 33.4807 188.505C34.5157 190.863 34.4693 193.019 33.5543 195.4C31.8489 199.838 27.0674 204.723 22.704 206.61C19.8452 207.846 16.7345 208.381 13.6709 208.836C14.1219 207.844 15.2725 206.992 15.8979 206.049C18.8539 201.595 18.7066 197.014 17.7318 191.988Z" fill="#F7B617"/>
<path d="M61.1172 172.369C61.1779 172.182 61.2319 171.992 61.2903 171.804C62.2453 168.716 61.6304 165.163 62.8417 162.125C63.0606 161.576 63.234 161.263 63.7825 161.024C64.6866 161.288 65.1384 162.617 66.0434 162.988C66.0946 163.009 66.1503 163.017 66.2036 163.032C68.4284 164.881 71.6129 168.29 73.5568 170.537C73.6731 173.165 73.9104 175.789 73.8632 178.421C70.305 177.661 66.8142 176.887 63.7258 174.853C63.3522 174.607 62.7706 174.275 62.516 173.919C62.3803 173.344 61.5481 172.823 61.1172 172.369Z" fill="#755322"/>
<path d="M99.4791 165.627C102.433 167.056 105.403 168.447 108.391 169.802C107.149 171.2 105.534 172.394 104.116 173.614C101.577 175.802 99.0213 177.973 96.4505 180.124C94.7064 181.588 92.88 183.008 91.2638 184.613C88.2679 183.405 85.3627 181.906 82.3745 180.656C83.1253 179.569 84.8824 178.601 85.9044 177.693C90.4422 173.669 94.8078 169.51 99.4791 165.627Z" fill="#FAF56C"/>
<path d="M115.2 179.266C116.601 184.751 118.015 190.206 119.569 195.653C116.478 198.918 113.074 202.15 110.384 205.747C109.57 203.538 108.856 201.293 108.031 199.087C106.905 196.07 105.651 193.065 104.779 189.963L104.627 189.846C104.982 189.797 105.222 189.629 105.474 189.385C106.82 188.074 108.052 186.575 109.336 185.2C111.244 183.177 113.199 181.198 115.2 179.266Z" fill="#F7B617"/>
<path d="M34.4727 151.146C37.9321 152.14 41.3811 153.171 44.8192 154.236C47.478 155.067 50.1824 156.059 52.9127 156.618C52.8981 159.692 53.195 162.707 54.4047 165.568C48.8844 163.933 44.9937 163.719 39.3019 164.234C37.8173 164.369 36.0072 164.491 34.6082 165.007L34.6813 165.19L32.8709 165.056C31.0458 164.867 29.1968 164.643 27.3628 164.587C30.6586 162.729 33.6363 160.483 34.6753 156.658C35.1939 154.75 35.0071 153.028 34.4727 151.146Z" fill="#513D27"/>
<path d="M52.6182 109.819C57.7684 111.468 62.9343 113.068 68.1152 114.617L74.0492 126.708C71.6031 127.749 68.6262 124.24 66.0321 125.043C65.7797 124.422 65.4999 123.424 65.006 122.964C64.5905 122.578 64.2179 122.687 63.6949 122.695C62.8651 122.598 62.1566 122.848 61.3843 123.127C59.318 122.56 57.2921 121.749 55.2646 121.05C51.687 119.81 48.089 118.629 44.4722 117.509C45.4088 116.336 46.8629 115.267 47.9671 114.234C49.5152 112.786 51.0089 111.193 52.6182 109.819Z" fill="#F7B617"/>
<path d="M108.392 169.802C109.121 170.108 109.859 170.403 110.567 170.757C111.515 171.132 112.461 171.522 113.416 171.879C113.963 174.327 114.44 176.875 115.2 179.266C113.199 181.198 111.244 183.177 109.336 185.2C108.052 186.575 106.82 188.074 105.474 189.385C105.223 189.629 104.983 189.797 104.627 189.846C101.772 189.699 95.5043 186.327 92.4645 185.149L91.2642 184.613C92.8803 183.008 94.7067 181.588 96.4508 180.124C99.0216 177.973 101.577 175.802 104.116 173.614C105.534 172.394 107.149 171.2 108.392 169.802Z" fill="#FAD225"/>
<path d="M108.392 169.802C109.121 170.108 109.859 170.403 110.567 170.757C108.35 172.469 106.305 174.428 104.164 176.237C100.467 179.358 96.4669 182.438 92.4645 185.149L91.2642 184.613C92.8803 183.008 94.7067 181.588 96.4508 180.124C99.0216 177.973 101.577 175.802 104.116 173.614C105.534 172.394 107.149 171.2 108.392 169.802Z" fill="#DD9105"/>
<path d="M47.529 203.721C48.3644 204.185 49.162 204.696 49.9634 205.215C51.2854 214.327 43.6526 230.964 38.267 238.166C37.8847 238.672 37.4941 239.173 37.0955 239.667C42.0788 235.984 47.1429 232.413 52.284 228.954L52.2244 229.191C52.1503 229.494 52.1262 229.785 52.1036 230.095C51.1553 231.564 49.4853 232.299 48.469 233.832C48.6224 234.404 48.7509 235.382 49.1838 235.779C49.5043 235.618 49.7405 235.411 50.0131 235.183H50.1757L50.1932 235.353C48.211 237.13 45.6445 238.544 43.454 240.08L27.3491 251.406C36.5603 236.681 43.3719 220.585 47.529 203.721Z" fill="url(#paint2_linear_271_828)"/>
<path d="M73.5896 145.738C74.8188 146.737 75.9045 148.224 76.9531 149.418L84.6603 158.294C81.1825 161.913 77.2893 165.221 74.0082 169.012L73.6825 168.978C71.862 166.972 69.8364 165.135 67.9065 163.234C65.9101 161.229 63.9375 159.201 61.9893 157.149C65.9172 153.414 69.6846 149.501 73.5896 145.738Z" fill="#DA3725"/>
<path d="M71.8601 152.406C73.1717 152.277 74.4601 152.323 75.6788 152.881C76.3947 153.21 77.0343 153.684 77.5567 154.273C78.079 154.863 78.4727 155.555 78.7124 156.306C78.9722 157.074 79.0755 157.887 79.0162 158.696C78.9569 159.505 78.7363 160.294 78.3672 161.016C77.4378 162.837 75.9001 163.976 73.9985 164.611C72.6874 164.724 71.4646 164.688 70.251 164.114C68.7715 163.415 67.7034 162.037 67.1849 160.506C66.6676 158.979 66.708 157.314 67.4345 155.86C68.348 154.032 69.9818 153.019 71.8601 152.406Z" fill="#F7B617"/>
<path d="M42.3854 118.361C47.7874 120.112 53.2166 121.827 58.5911 123.659C57.1261 124.884 55.5809 126.007 54.0988 127.212C49.2175 131.179 44.2865 135.251 39.6236 139.472C37.724 138.631 35.7835 137.894 33.8455 137.145C33.0812 134.132 32.5517 131.061 31.7451 128.057C33.4298 127.066 41.4819 119.98 42.3854 118.361Z" fill="#FAD225"/>
<path d="M76.3959 179.845C78.6462 181.073 81.2838 181.883 83.6511 182.899C87.8965 184.723 92.1026 186.661 96.3249 188.539C98.2455 189.392 100.473 190.171 102.246 191.278C102.892 193.406 103.566 195.525 104.269 197.635C104.8 199.203 105.509 200.847 105.809 202.47L105.653 202.626L105.028 202.479C99.5021 200.374 93.808 198.671 88.2321 196.695C84.5581 195.392 80.9292 193.876 77.3547 192.325C76.8637 188.356 75.8809 184.505 74.9863 180.616L76.3959 179.845Z" fill="#F7B617"/>
<path d="M21.8242 136.916C22.5652 136.275 26.3194 129.236 26.8194 128.02C27.2335 127.014 27.3681 125.886 27.8105 124.903C27.9288 124.641 27.9529 124.509 28.2342 124.411L27.9555 124.634L28.3794 124.583C28.4738 124.88 28.4057 124.788 28.6163 124.999C28.6642 125.048 28.7155 125.092 28.765 125.138C30.5934 129.275 31.5354 133.867 32.9703 138.16C38.1471 140.164 43.2402 142.325 48.3756 144.427C51.3945 145.661 54.8453 146.754 57.644 148.425C55.6242 150.46 53.6333 152.524 51.6718 154.616C42.3869 150.63 33.0515 146.763 23.6679 143.015C23.0334 140.988 22.4188 138.955 21.8242 136.916Z" fill="#FAD225"/>
<path d="M49.9636 205.215C51.7079 206.108 53.4015 207.093 55.135 208.007C57.389 209.193 59.6899 210.302 61.842 211.669C64.354 213.265 66.708 215.17 69.1302 216.902C66.3734 219.482 62.898 221.544 59.7982 223.706C58.8008 224.402 57.6654 225.081 56.7639 225.893C55.3585 226.709 53.4524 227.854 52.2842 228.954C47.1431 232.413 42.079 235.984 37.0957 239.667C37.4943 239.173 37.8849 238.672 38.2672 238.166C43.6528 230.964 51.2856 214.327 49.9636 205.215Z" fill="#755322"/>
<path d="M61.3845 123.127C62.1567 122.848 62.8653 122.598 63.695 122.695C64.8743 127.742 67.1685 132.338 68.7605 137.237C66.7731 139.288 64.7745 141.327 62.7649 143.355C61.4257 144.686 59.9596 145.968 58.7397 147.404C53.0714 145.006 47.3028 142.856 41.6823 140.348L39.6235 139.473C44.2864 135.251 49.2174 131.179 54.0987 127.212C55.5808 126.007 57.126 124.884 58.591 123.659L60.3926 124.181L61.3845 123.127Z" fill="#FAF56C"/>
<path d="M58.591 123.659L60.3926 124.181C58.5562 126.162 56.4424 127.89 54.3943 129.645L45.031 137.665C43.9427 138.585 42.7434 139.408 41.6823 140.348L39.6235 139.472C44.2864 135.251 49.2174 131.179 54.0987 127.212C55.5808 126.007 57.126 124.884 58.591 123.659Z" fill="#DD9105"/>
<path d="M96.633 159.641C96.3073 158.955 95.5845 157.839 95.7288 157.126C97.5744 155.927 105.969 160.688 107.458 160.135C113.032 161.881 118.455 164.022 124.087 165.606C124.492 167.179 125.125 168.968 125.281 170.57C125.595 171.689 125.942 172.809 126.138 173.957C127.279 178.089 128.217 182.422 128.917 186.649L127.996 187.426C126.144 189.256 123.63 191.001 121.627 192.742C119.001 185.572 116.459 178.371 113.998 171.143C110.455 169.53 105.975 167.608 102.71 165.611L102.748 165.531C102.49 165.146 96.5961 162.204 95.8865 162.036C95.4958 161.944 95.2609 161.769 94.9526 161.519C95.4551 160.869 96.0873 160.264 96.633 159.641Z" fill="#F7B617"/>
<path d="M125.41 174.158L125.482 174.065C125.498 173.737 125.517 173.494 125.422 173.176C125.404 173.111 125.378 173.048 125.355 172.985L125.441 172.84L125.675 172.978L125.876 173.868L126.138 173.957C127.279 178.089 128.217 182.422 128.918 186.649L127.996 187.426C126.997 183.077 125.81 178.61 125.41 174.158Z" fill="#FAF56C"/>
<path d="M72.67 135.642C74.7614 136.919 77.7459 137.388 80.0165 138.501C84.309 145.876 89.8142 152.262 94.65 159.255C92.7476 160.78 90.9808 162.563 89.2055 164.237C84.2912 168.873 79.6075 173.732 74.8635 178.539C74.8457 175.945 74.6924 173.353 74.4044 170.775L83.5735 161.671C84.7826 160.469 85.958 159.233 87.0982 157.966C82.8906 152.815 78.701 147.553 74.1556 142.693C71.4281 145.391 68.7175 148.105 66.0238 150.836C64.0457 152.834 62.0057 154.805 60.1412 156.908C57.8801 156.325 55.6122 155.768 53.3379 155.239C59.5176 148.446 66.4158 142.359 72.67 135.642Z" fill="#F7B617"/>
<path d="M34.681 165.19L34.6079 165.007C36.0069 164.491 37.817 164.369 39.3016 164.234C44.9934 163.719 48.8841 163.933 54.4044 165.568C55.3447 167.554 56.4462 169.303 57.8155 171.025C58.6642 171.847 59.4572 172.743 60.3437 173.524C62.8306 175.714 66.1549 177.517 69.3207 178.478C70.0257 178.691 71.0244 179.068 71.7497 179.088C72.3828 191.537 73.9028 203.958 69.8659 216.05C65.95 212.837 62.2268 209.957 57.7709 207.506C58.386 206.552 58.7952 205.563 59.1146 204.481C59.3176 203.845 59.4617 203.18 59.6001 202.528C61.5025 193.557 59.4799 184.959 54.5341 177.388C48.9714 170.573 43.4123 166.831 34.681 165.19Z" fill="#755322"/>
<path d="M34.681 165.19L34.6079 165.007C36.0069 164.491 37.817 164.369 39.3016 164.234C44.9934 163.719 48.8841 163.933 54.4044 165.568C55.3447 167.554 56.4462 169.303 57.8155 171.025C57.1876 170.893 56.6193 169.99 56.269 169.464C54.1082 166.219 55.0904 165.652 50.6835 164.726C46.9143 163.933 43.4508 164.352 39.6764 164.338L38.9576 165.978C44.1647 167.478 48.5668 170.356 52.26 174.285C53.1363 175.217 54.0906 176.235 54.7455 177.331L54.5341 177.388C48.9714 170.573 43.4123 166.831 34.681 165.19Z" fill="#A1701E"/>
<path d="M58.3218 100.597C59.5884 100.282 72.0593 105.657 74.3294 106.508C81.6949 119.181 87.6174 132.628 94.3453 145.633C94.9331 145.616 95.5338 145.627 96.1192 145.58C101.137 146.811 106.145 148.685 111.059 150.296C112.731 150.845 114.766 151.779 116.49 152.024C117.627 151.905 118.831 152.61 119.913 152.936C120.39 153.08 120.773 153.132 121.225 152.878C121.411 152.532 121.538 152.354 121.457 151.94C121.374 151.527 121.051 151.345 120.719 151.163L120.713 150.946C120.98 151.009 121.248 151.058 121.517 151.112C123.241 150.511 126.73 147.131 128.442 145.816C128.358 149.256 128.51 152.72 128.57 156.163L127.023 155.613C126.24 156.349 125.053 156.309 124.179 157.049C122.942 158.099 122.232 159.677 121.023 160.716C110.492 157.227 99.9693 153.821 89.507 150.122C87.6439 145.877 85.4073 141.749 83.3276 137.607C79.0208 129.029 74.635 120.409 70.714 111.65C68.5903 111.181 66.507 110.494 64.4501 109.793C62.2652 106.872 60.3796 103.624 58.3218 100.597Z" fill="#FAF56C"/>
<path d="M120.713 150.947C120.98 151.009 121.248 151.058 121.516 151.112C123.241 150.511 126.73 147.131 128.442 145.816C128.358 149.256 128.509 152.72 128.569 156.163L127.022 155.613C123.515 154.406 119.981 153.272 116.49 152.024C117.626 151.905 118.83 152.61 119.912 152.936C120.389 153.08 120.773 153.133 121.225 152.878C121.41 152.532 121.538 152.354 121.456 151.94C121.374 151.528 121.05 151.345 120.719 151.163L120.713 150.947Z" fill="#B5231A"/>
<path d="M14.1204 161.418C20.9403 166.523 23.658 166.055 31.7761 165.845C39.7181 166.382 46.773 169.768 52.0263 175.797C57.6593 182.263 59.9018 191.008 59.2734 199.455C59.1698 200.848 59.0115 202.292 58.657 203.647C58.3684 204.912 57.9646 206.111 57.5309 207.334C54.7661 205.833 51.9894 204.34 49.3293 202.66C49.4883 201.116 49.8569 199.587 50.043 198.043C50.5489 193.841 49.9003 189.632 47.8344 185.91C45.3234 181.386 41.5313 178.719 36.6311 177.287C35.2163 177.036 33.8088 176.945 32.3738 176.913C28.6431 177.282 25.1736 178.564 22.7358 181.538C20.9748 183.687 20.3634 186.035 20.3804 188.77L20.1931 188.939C19.7495 188.224 20.2785 186.156 20.4686 185.346C20.5951 184.806 20.7372 184.299 20.957 183.788L20.9185 183.707C20.2963 183.895 20.1054 184.001 19.789 184.571C19.3292 185.401 18.9599 187.093 18.316 187.64C18.2509 187.11 18.3662 186.924 18.437 186.426C18.4466 186.359 18.4279 186.29 18.4233 186.222C17.9198 186.606 17.5175 186.823 17.4266 187.492C17.2267 188.959 18.0403 190.6 17.7317 191.988C18.7065 197.014 18.8538 201.595 15.8978 206.049C15.2724 206.992 14.1218 207.844 13.6708 208.836L9.89502 209.443C11.0841 207.469 12.2651 205.493 12.9716 203.285C14.2948 199.151 13.4424 195.478 13.0431 191.312C12.711 187.847 12.8051 184.23 13.8196 180.879C15.2957 176.002 18.4781 172.558 22.9029 170.174C22.2661 169.948 21.6406 169.691 21.0286 169.405C17.8706 167.921 15.3096 164.645 14.1204 161.418Z" fill="#F8D03C"/>
<path d="M33.8656 174.739C34.756 174.871 35.6019 175.069 36.3541 175.596L36.1772 175.55C35.7302 175.438 35.4174 175.358 34.9547 175.461C34.6624 175.746 34.64 176.117 34.565 176.499L34.7193 176.747C35.3248 176.887 36.0745 176.766 36.6002 177.069L36.6313 177.287C35.2165 177.035 33.809 176.945 32.374 176.913C33.1866 176.418 33.8061 176.128 34.103 175.178L33.8656 174.739Z" fill="#F7B617"/>
<path d="M32.0154 174.584C32.6333 174.627 33.2495 174.669 33.8652 174.739L34.1026 175.178C33.8057 176.128 33.1862 176.418 32.3736 176.913C28.6429 177.282 25.1734 178.564 22.7356 181.538C20.9746 183.687 20.3632 186.035 20.3803 188.77L20.1929 188.939C19.7493 188.224 20.2783 186.156 20.4684 185.346C20.5949 184.806 20.737 184.299 20.9568 183.788L20.9183 183.707C20.2961 183.895 20.1052 184.001 19.7888 184.571C19.329 185.401 18.9597 187.093 18.3158 187.64C18.2507 187.11 18.366 186.924 18.4368 186.426C18.4465 186.359 18.4278 186.29 18.4232 186.222C17.9196 186.606 17.5173 186.823 17.4264 187.492C17.2265 188.959 18.0401 190.6 17.7315 191.988C17.6041 191.575 17.5042 191.154 17.4324 190.728C16.8114 187.134 17.8736 183.693 19.9803 180.761C22.3715 177.431 25.9454 175.322 29.9695 174.653C30.6307 174.548 31.3446 174.592 32.0154 174.584Z" fill="url(#paint3_linear_271_828)"/>
<path d="M29.9695 174.653C30.6306 174.548 31.3445 174.592 32.0153 174.584L32.2758 174.856C31.8819 175.383 28.7434 176.272 27.9343 176.68L27.8276 176.64C28.5421 176.159 30.0952 175.662 30.269 174.791L29.9695 174.653Z" fill="#F7B617"/>
<path d="M175.996 120.44C176.908 119.891 177.783 119.137 178.641 118.5C181.606 116.307 184.589 113.765 187.716 111.835C188.008 112.176 188.284 112.622 188.739 112.73L188.737 112.815C190.692 115.088 192.882 117.427 194.576 119.895C195.326 119.374 196.065 118.822 196.865 118.381L197.285 118.772C197.8 118.411 198.284 118.1 198.864 117.85L199.244 117.38C201.301 116.129 203.397 114.412 205.642 113.564C203.901 115.721 194.943 123.512 194.625 124.548C194.872 124.785 195.111 125 195.387 125.202C193.398 126.806 191.393 128.39 189.373 129.954C174.973 141.447 160.281 152.588 145.947 164.163C140.946 168.203 135.643 171.925 130.933 176.304C130.437 174.137 128.056 163.489 127.173 162.569C126.874 162.477 126.581 162.39 126.276 162.322C124.843 162.264 122.447 161.183 121.023 160.716C122.232 159.677 122.942 158.099 124.179 157.049C125.053 156.309 126.24 156.349 127.023 155.613L128.57 156.163L130.001 156.546L131.056 155.786C134.177 153.51 137.07 150.917 140.159 148.593C143.546 145.331 147.854 142.834 151.37 139.656C151.019 138.784 151.22 129.226 151.182 127.562L153.578 125.67C155.089 124.177 157.036 122.886 158.735 121.594L160.651 120.049C161.882 118.615 164.388 116.915 165.932 115.666L166.592 115.102C168.247 118.004 169.54 121.154 171.299 123.985C172.881 122.825 174.432 121.623 175.996 120.44Z" fill="#F7B617"/>
<path d="M152.41 145.908C152.434 145.915 152.459 145.918 152.482 145.931C153.023 146.213 154.068 149.303 154.383 150.054L152.562 151.491L152.292 151.593C151.685 150.871 151.03 148.175 150.691 147.162L152.41 145.908Z" fill="#12163A"/>
<path d="M147.909 149.144C148.05 149.283 147.992 149.197 148.071 149.434C148.56 150.878 149.143 152.3 149.686 153.726L147.677 155.421C146.909 154.184 146.448 152.066 145.958 150.669L147.909 149.144Z" fill="#12163A"/>
<path d="M143.192 152.835C143.871 153.752 144.596 156.431 145.032 157.613C144.322 158.145 143.66 158.709 142.997 159.298C142.131 158.052 141.684 155.93 141.253 154.477C141.906 153.938 142.553 153.391 143.192 152.835Z" fill="#451F39"/>
<path d="M138.65 156.966C139.228 157.274 140.139 160.667 140.408 161.487C139.72 161.968 139.053 162.486 138.379 162.988C137.419 162.292 136.907 159.459 136.633 158.312L138.65 156.966Z" fill="#771722"/>
<path d="M199.244 117.38C201.301 116.129 203.397 114.412 205.642 113.564C203.901 115.721 194.942 123.512 194.625 124.548C194.872 124.785 195.111 125 195.387 125.202C193.398 126.806 191.393 128.39 189.373 129.954C189.241 129.741 189.212 129.646 189.192 129.387C189.166 129.041 189.291 128.808 189.508 128.54C190.589 127.204 192.186 126.061 193.466 124.9C194.772 123.717 195.92 122.38 197.222 121.194C199.558 119.061 202.081 117.099 204.14 114.685C202.374 115.7 200.763 117.09 198.864 117.85L199.244 117.38Z" fill="#FAD225"/>
<path d="M140.159 148.593C139.547 150.108 136.532 150.845 136.716 152.624L137.002 152.93C137.784 152.541 139.239 151.074 139.999 151.109C139.358 151.99 136.576 153.671 135.528 154.491C132.339 156.983 129.382 159.733 126.276 162.322C124.843 162.264 122.447 161.183 121.023 160.716C122.232 159.677 122.942 158.099 124.179 157.049C125.053 156.309 126.24 156.349 127.023 155.613L128.57 156.163L130.001 156.546L131.056 155.786C134.177 153.51 137.07 150.917 140.159 148.593Z" fill="url(#paint4_linear_271_828)"/>
<path d="M185.993 119.687C186.56 119.974 187.011 120.745 187.407 121.247C183.239 124.293 179.239 127.608 175.162 130.776C171.811 133.378 168.035 135.907 165.089 138.947C164.4 138.583 163.985 137.917 163.56 137.291C165.817 134.995 168.699 133.094 171.248 131.115L185.993 119.687Z" fill="#AA4E06"/>
<path d="M175.995 120.44C176.908 119.891 177.783 119.137 178.641 118.5C181.606 116.307 184.589 113.765 187.716 111.835C188.008 112.176 188.283 112.622 188.739 112.73L188.737 112.815C190.692 115.088 192.882 117.427 194.576 119.895C195.326 119.374 196.065 118.822 196.865 118.381L197.285 118.772C197.237 118.792 197.193 118.821 197.142 118.833C196.29 119.054 195.957 119.206 195.395 119.92L195.499 119.883C194.959 120.74 193.995 121.047 193.112 121.441C190.837 119.256 188.935 116.78 186.881 114.398C180.847 120 173.883 124.663 167.437 129.775C163.919 132.567 160.34 135.298 156.858 138.134C151.366 142.609 145.932 147.218 139.999 151.109C139.239 151.074 137.784 152.541 137.002 152.93L136.716 152.624C136.532 150.845 139.547 150.108 140.159 148.593C143.546 145.331 147.854 142.834 151.37 139.656C151.019 138.784 151.22 129.226 151.182 127.562L153.578 125.67C155.089 124.177 157.036 122.886 158.735 121.594L160.651 120.049C161.882 118.615 164.388 116.915 165.932 115.666L166.592 115.102C168.247 118.004 169.54 121.154 171.299 123.985C172.881 122.825 174.432 121.623 175.995 120.44Z" fill="#FBE74D"/>
<path d="M166.592 115.102C168.246 118.004 169.54 121.154 171.298 123.985L170.075 124.911C167.049 127.378 163.95 129.864 160.781 132.142C160.842 128.141 160.876 124.037 160.651 120.049C161.882 118.615 164.388 116.915 165.932 115.666L166.592 115.102Z" fill="#E2592D"/>
<path d="M166.592 115.102C168.246 118.004 169.54 121.154 171.298 123.985L170.075 124.911C168.881 121.787 167.325 118.709 165.932 115.666L166.592 115.102Z" fill="#931919"/>
<path d="M160.651 120.049C160.876 124.037 160.842 128.141 160.781 132.142L158.747 133.828C157.139 135.239 155.41 136.534 153.708 137.829L151.37 139.656C151.019 138.784 151.22 129.226 151.182 127.562L153.578 125.67C155.089 124.177 157.036 122.886 158.735 121.594L160.651 120.049Z" fill="#DA3725"/>
<path d="M160.65 120.049C160.876 124.037 160.842 128.141 160.781 132.142L158.746 133.828C158.609 132.197 158.685 130.49 158.668 128.849C158.645 126.436 158.547 124.001 158.734 121.594L160.65 120.049Z" fill="#931919"/>
<path d="M151.182 127.562L153.578 125.67C153.726 129.708 153.706 133.787 153.708 137.829L151.37 139.656C151.019 138.784 151.22 129.226 151.182 127.562Z" fill="#931919"/>
<path d="M224.373 154.337C224.739 154.763 224.793 155.774 224.907 156.342L227.459 156.562L224.922 156.989C224.822 157.805 224.762 158.631 224.684 159.448C224.345 158.694 224.319 157.802 224.229 156.988C223.35 156.86 222.473 156.725 221.597 156.582C222.445 156.43 223.297 156.396 224.155 156.347C224.26 155.683 224.307 155.007 224.373 154.337Z" fill="#F9FBF4"/>
<path d="M217.444 162.14C217.616 162.805 217.774 163.483 217.985 164.134C218.479 165.658 219.482 166.325 220.832 167.016C218.772 168.075 218.067 169.431 217.351 171.563C216.583 169.303 216.037 168.118 213.834 167.015C214.21 166.864 214.584 166.707 214.936 166.506C216.571 165.578 217.004 163.828 217.444 162.14Z" fill="#F9FBF4"/>
<path d="M184.427 180.376C186.065 180.123 187.699 179.815 188.722 178.363C190.382 176.007 189.295 172.818 189.999 171.19C190.563 173.683 190.157 177.964 192.619 179.454C194.294 180.469 196.862 180.419 198.779 180.687C196.629 180.954 192.954 180.575 191.51 182.412C189.79 184.597 190.854 187.734 190.12 189.82C189.672 187.436 190.354 183.129 188.064 181.628C186.942 180.892 185.533 180.894 184.238 180.879C182.926 180.886 181.624 180.863 180.314 180.79C181.255 180.416 183.323 180.491 184.427 180.376Z" fill="#F9FBF4"/>
<path d="M31.0844 31.5639C31.5018 32.3741 31.5394 33.2529 32.1087 34.0385C33.1482 35.4727 34.8625 35.5026 36.4771 35.7277C35.2548 35.8802 33.172 35.8998 32.2467 36.7757C31.3341 37.6397 31.4295 38.865 31.3981 40.0185L31.3627 40.2417C30.8175 39.772 31.0204 37.796 30.4575 36.9863C29.6683 35.8512 27.7481 35.8319 26.4927 35.6547C27.58 35.4499 28.9724 35.3479 29.8694 34.6702C30.8479 33.9309 30.9206 32.6826 31.0844 31.5639Z" fill="#F6E7CC"/>
<path d="M25.4598 72.1782C25.5219 72.3888 25.5038 72.2986 25.5338 72.5179C25.7397 74.021 25.9773 75.7808 26.9027 77.035C28.1072 78.6674 31.0217 78.844 32.9005 79.1427C31.1631 79.2667 29.1676 79.4172 27.6773 80.4C25.5478 81.8044 25.9736 83.8172 25.5665 85.9693L25.4234 85.6509C25.1178 84.2236 24.8469 82.5611 23.9291 81.3844C22.4773 79.5231 19.1384 79.2003 16.96 78.9595C18.7746 78.6398 21.2132 78.6342 22.8239 77.6805C24.6179 76.6185 24.9781 74.0458 25.4598 72.1782Z" fill="#F9FBF4"/>
<path d="M163.491 5.33309C164.735 6.69142 165.981 8.08624 167.41 9.25556C170.29 11.6146 173.984 13.2042 177.763 12.8129C183.584 12.21 187.972 6.73526 191.411 2.51709C191.412 6.77298 192.277 11.4647 194.095 15.3301C195.988 19.3536 199.16 22.6309 203.4 24.1313C206.078 25.0788 211.458 25.569 214.04 24.3356L214.812 24.3996C214.814 24.4011 212.61 31.8723 212.387 33.7612C211.553 40.8007 214.885 46.9671 221.683 49.3683C225.755 50.8064 230.574 50.7873 234.823 50.2231C233.787 51.4307 232.844 52.681 231.952 53.9987C228.971 58.4928 227.044 64.0253 228.157 69.453C229.188 74.4767 232.751 78.89 236.965 81.6787C237.561 82.0656 238.169 82.4325 238.789 82.7788C240.235 83.485 241.673 84.2154 243.138 84.8795C236.366 88.3154 229.759 90.4581 227.177 98.4624C225.626 103.267 226.921 107.485 228.945 111.895C228.325 111.725 227.671 111.585 227.07 111.368C220.996 110.594 214.521 111.164 209.2 114.464C206.64 116.052 204.226 118.114 201.839 119.961C199.662 121.675 197.511 123.422 195.387 125.202C195.111 125 194.872 124.785 194.625 124.548C194.943 123.512 203.901 115.721 205.642 113.564C203.397 114.412 201.301 116.129 199.244 117.38L198.864 117.85C198.284 118.1 197.8 118.412 197.285 118.772L196.865 118.381C196.065 118.822 195.326 119.374 194.576 119.895C192.882 117.427 190.692 115.088 188.737 112.815L188.739 112.73C188.284 112.622 188.008 112.176 187.716 111.835C184.589 113.765 181.606 116.307 178.641 118.5C177.783 119.137 176.908 119.891 175.996 120.44C174.432 121.623 172.881 122.825 171.299 123.985C169.54 121.154 168.247 118.004 166.593 115.102C167.942 113.998 169.3 112.905 170.666 111.821L171.029 111.412L171.041 111.165C171.699 110.296 172.896 109.547 173.756 108.858C173.692 108.51 173.475 108.273 173.268 107.997C172.114 107.457 171.259 109.491 170.1 109.694C170.304 109.517 170.492 109.32 170.685 109.133C171.472 108.451 172.3 107.807 173.104 107.146C175.358 105.714 177.243 103.679 179.46 102.177C179.662 102.008 179.845 101.814 180.032 101.628L182.405 99.7358C181.862 96.7465 182.612 82.6391 182.156 81.7552C183.141 80.9446 184.097 80.0636 184.949 79.1141C187.796 75.9403 189.174 71.2635 188.949 67.0551C188.659 61.6466 186.203 58.0381 182.293 54.5154C181.272 53.7609 180.223 53.1133 179.117 52.4932C179.409 50.7096 179.259 48.7386 179.255 46.9271C179.245 43.5024 179.186 40.0709 179.268 36.6473C177.397 35.6916 175.309 34.9626 173.373 34.1211L173.055 33.9714L171.228 33.0912C166.822 37.317 161.684 40.95 156.881 44.7255C155.183 46.0604 152.712 47.7089 151.332 49.3219C149.877 50.062 148.482 51.4433 147.236 52.5151C147.205 52.4251 147.14 52.3397 147.146 52.2452C147.166 51.9524 149.137 48.8338 149.421 48.2652C149.171 47.6779 149.162 46.9334 149.077 46.2966L149.073 45.9893L148.352 45.648C146.155 43.738 144.448 41.3504 142.447 39.2479C142.119 39.6175 141.819 39.9619 141.411 40.2461L141.334 40.0448C142.496 38.24 145.052 37.7781 145.916 36.4871C147.164 34.6275 145.567 33.4411 145.328 31.6957C145.286 31.3928 145.223 31.1292 145.147 30.8338C143.557 31.1354 140.162 35.5737 138.69 35.817C138.635 35.8261 138.58 35.8193 138.523 35.8204C141.172 33.3375 144.129 31.169 147.011 28.9702C149.885 26.759 152.739 24.5208 155.571 22.2559C161.744 17.253 162.696 12.9383 163.491 5.33309Z" fill="url(#paint5_linear_271_828)"/>
<path d="M152.397 42.8267C152.707 43.3285 153.013 43.8249 153.363 44.3003C151.965 45.4175 150.332 46.6955 149.42 48.2652C149.17 47.6779 149.161 46.9334 149.077 46.2966L149.072 45.9893L149.127 45.2817C149.137 45.2679 149.147 45.2534 149.158 45.2403C149.9 44.3696 151.249 42.9258 152.397 42.8267Z" fill="#FBE74D"/>
<path d="M147.173 35.6073C148.324 35.0642 149.33 34.1136 150.312 33.3094C151.269 34.6308 152.323 35.8796 153.464 37.0457L153.407 37.6515C152.529 38.264 151.781 39.2002 151.106 40.0266C149.751 38.6024 148.471 37.0825 147.173 35.6073Z" fill="#12163A"/>
<path d="M146.296 36.382C148.577 38.2358 150.052 40.7944 152.238 42.6669C152.294 42.7158 152.343 42.7734 152.397 42.8266C151.249 42.9258 149.9 44.3695 149.158 45.2402C149.147 45.2534 149.136 45.2678 149.127 45.2816L149.072 45.9892L148.352 45.648C146.155 43.738 144.447 41.3504 142.447 39.2478C142.666 38.9074 142.957 38.7869 143.305 38.6091C144.406 38.1291 145.471 37.2458 146.296 36.382Z" fill="#12163A"/>
<path d="M142.447 39.2478C142.666 38.9074 142.957 38.7869 143.305 38.6091C144.837 40.5703 147.372 43.5255 149.127 45.2816L149.072 45.9892L148.352 45.648C146.155 43.738 144.447 41.3504 142.447 39.2478Z" fill="#F9FBF4"/>
<path d="M197.07 106.301L199.797 104.281C201.764 106.715 203.715 109.234 205.854 111.521C204.899 112.142 203.999 112.761 203.144 113.515C202.546 113.995 201.949 114.547 201.281 114.921C199.16 112.606 197.205 110.145 195.431 107.555C195.962 107.111 196.506 106.703 197.07 106.301Z" fill="#0A0739"/>
<path d="M195.431 107.555C195.962 107.111 196.506 106.703 197.07 106.301C199.178 108.638 201.057 111.164 203.144 113.515C202.546 113.995 201.949 114.547 201.281 114.921C199.16 112.607 197.205 110.145 195.431 107.555Z" fill="#FAD225"/>
<path d="M193.176 109.309L195.431 107.555C197.205 110.145 199.16 112.606 201.281 114.921C200.577 115.531 199.865 116.13 199.205 116.788L199.244 117.38L198.864 117.85C198.284 118.1 197.8 118.411 197.285 118.772L196.865 118.381C196.064 118.822 195.326 119.374 194.576 119.895C192.882 117.427 190.692 115.088 188.737 112.815L188.739 112.73L191.155 110.831C191.739 110.249 192.45 109.695 193.176 109.309Z" fill="#0A0739"/>
<path d="M193.176 109.309C194.912 111.933 197.191 114.363 199.206 116.788L199.244 117.38L198.864 117.85C198.284 118.1 197.8 118.412 197.285 118.772L196.865 118.381L197.038 118.185C196.747 117.467 192.103 112.093 191.155 110.831C191.739 110.249 192.45 109.695 193.176 109.309Z" fill="#FAF56C"/>
<path d="M193.176 109.309L195.431 107.555C197.205 110.145 199.16 112.606 201.281 114.921C200.577 115.531 199.864 116.13 199.205 116.788C197.191 114.363 194.912 111.933 193.176 109.309Z" fill="#0A0739"/>
<path d="M213.376 93.4963C213.785 94.0973 213.581 99.3854 213.712 100.553C213.521 100.678 213.332 100.807 213.145 100.937C210.1 103.064 207.693 106.087 207.048 109.795C206.229 108.944 205.475 108.032 204.709 107.135C203.555 105.831 202.471 104.41 201.487 102.973C205.366 99.7704 209.806 97.0337 213.376 93.4963Z" fill="#FAD225"/>
<path d="M169.303 24.3817C176.836 27.8469 184.788 30.6463 192.56 33.5394C194.966 34.4348 197.463 35.1896 199.823 36.186C199.328 38.7379 199.022 41.3193 198.579 43.8792C203.762 49.6309 209.184 55.1466 214.386 60.8768C214.075 64.3661 214.054 67.9004 213.952 71.4013C213.871 74.2665 213.696 77.1371 213.7 80.0032C215.774 82.016 218.018 83.86 220.239 85.7068C218.898 86.9605 217.253 88.8653 215.561 89.5996C215.306 89.545 215.111 89.4861 214.881 89.363C215.787 88.1063 216.787 86.9366 217.82 85.7849C215.796 83.8809 213.761 81.9886 211.714 80.1081C211.767 73.5847 212.527 67.0561 212.498 60.5368C210.675 58.1369 208.345 56.0141 206.242 53.8543C203.076 50.6075 199.97 47.3024 196.926 43.9408C197.242 41.6495 197.824 39.3865 198.005 37.0812C192.346 34.617 186.423 32.6282 180.668 30.378C176.905 28.9061 173.238 27.0848 169.431 25.7431C166.418 27.7399 163.458 29.9893 160.611 32.2212C158.722 33.702 155.526 36.7543 153.408 37.6515L153.464 37.0457C155.056 35.1226 157.649 33.4784 159.615 31.9359C162.838 29.4057 166.013 26.827 169.303 24.3817Z" fill="#DD9105"/>
<path d="M169.431 25.743C173.237 27.0848 176.904 28.9061 180.668 30.378C186.422 32.6282 192.345 34.617 198.005 37.0812C197.824 39.3865 197.242 41.6495 196.926 43.9408C199.97 47.3024 203.075 50.6075 206.241 53.8543C208.345 56.014 210.675 58.1369 212.497 60.5368C212.527 67.0561 211.766 73.5847 211.714 80.1081C213.76 81.9886 215.795 83.8809 217.82 85.7849C216.787 86.9365 215.787 88.1063 214.881 89.363C214.259 88.5489 213.014 87.76 212.218 87.0937C210.65 85.7813 209.143 84.4754 207.747 82.9747L207.739 62.8301C205.759 59.8726 194.738 48.0219 191.907 46.0599C192.207 44.1445 192.326 42.2014 192.451 40.2684C189.097 38.6172 185.515 37.3352 182.073 35.8742C178.169 34.2163 174.323 32.3386 170.311 30.9504C165.094 35.3522 159.545 39.3595 154.33 43.7742C153.378 42.4332 152.163 41.2856 151.106 40.0266C151.781 39.2002 152.529 38.264 153.407 37.6515C155.526 36.7543 158.722 33.702 160.611 32.2212C163.457 29.9893 166.417 27.7398 169.431 25.743Z" fill="#F7B617"/>
<path d="M180.528 103.768L197.841 90.1478C199.848 88.5396 201.922 86.9728 203.867 85.2903C207.063 87.2962 210.225 89.3552 213.353 91.4663C204.754 98.1886 196.208 104.978 187.716 111.835C184.589 113.765 181.606 116.307 178.641 118.5C177.783 119.137 176.907 119.891 175.995 120.44C174.432 121.623 172.88 122.825 171.298 123.985C169.54 121.154 168.246 118.004 166.592 115.102C167.942 113.998 169.299 112.905 170.665 111.821L171.029 111.412L171.041 111.165C171.698 110.296 172.896 109.547 173.756 108.858C173.691 108.51 173.475 108.273 173.268 107.997C172.114 107.457 171.259 109.491 170.1 109.694C170.304 109.517 170.492 109.32 170.685 109.133C171.472 108.45 172.299 107.807 173.104 107.146C175.358 105.714 177.243 103.679 179.46 102.177C179.894 102.682 180.14 103.252 180.528 103.768Z" fill="#DD9105"/>
<path d="M173.104 107.146C175.358 105.714 177.243 103.679 179.46 102.177C179.894 102.682 180.14 103.252 180.528 103.768C177.464 106.372 174.271 109.038 171.029 111.412L171.041 111.165C171.698 110.296 172.896 109.547 173.756 108.858C173.691 108.51 173.475 108.273 173.268 107.997C172.114 107.457 171.259 109.491 170.1 109.694C170.303 109.517 170.492 109.32 170.685 109.133C171.472 108.45 172.299 107.807 173.104 107.146Z" fill="#FAF56C"/>
<path d="M166.592 115.102C167.942 113.998 169.299 112.905 170.665 111.821C171.859 114.636 173.895 118.249 175.995 120.44C174.432 121.623 172.88 122.825 171.298 123.985C169.54 121.154 168.246 118.004 166.592 115.102Z" fill="#E2592D"/>
<path d="M179.268 36.6472L182.115 37.8526C184.988 39.0089 187.831 40.2389 190.641 41.5411C190.563 43.3353 190.46 45.1283 190.333 46.9196C193.883 50.1738 197.173 53.6353 200.482 57.1306C201.988 58.7198 203.806 60.3651 205.003 62.2021C204.975 68.7935 204.843 75.4027 204.983 81.9922C200.349 85.8857 195.552 89.5692 190.782 93.293C188.029 95.4429 185.309 97.7998 182.404 99.7357C181.862 96.7465 182.611 82.6391 182.156 81.7552C183.14 80.9446 184.097 80.0636 184.949 79.1141C187.796 75.9403 189.174 71.2635 188.948 67.0551C188.659 61.6466 186.203 58.0381 182.292 54.5154C181.272 53.7609 180.223 53.1132 179.116 52.4932C179.409 50.7096 179.259 48.7385 179.254 46.9271C179.245 43.5023 179.185 40.0709 179.268 36.6472Z" fill="#FAF56C"/>
<path d="M179.268 36.6472L182.115 37.8526C181.863 39.7439 181.983 41.7701 181.994 43.677C182.007 46.2711 181.995 48.8724 182.07 51.4653C182.099 52.4355 182.349 53.5766 182.292 54.5154C181.272 53.7609 180.223 53.1132 179.116 52.4932C179.409 50.7096 179.259 48.7385 179.254 46.9271C179.245 43.5023 179.185 40.0709 179.268 36.6472Z" fill="#FAD225"/>
<path d="M163.491 5.33309C164.735 6.69142 165.981 8.08624 167.41 9.25556C170.29 11.6146 173.984 13.2042 177.763 12.8129C183.584 12.21 187.972 6.73526 191.411 2.51709C191.412 6.77298 192.277 11.4647 194.095 15.3301C195.988 19.3536 199.16 22.6309 203.4 24.1313C206.078 25.0788 211.458 25.569 214.04 24.3356L214.812 24.3996C214.814 24.4011 212.61 31.8723 212.387 33.7612C211.553 40.8007 214.885 46.9671 221.683 49.3683C225.755 50.8064 230.574 50.7873 234.823 50.2231C233.787 51.4307 232.844 52.681 231.952 53.9987C228.971 58.4928 227.044 64.0253 228.157 69.453C229.188 74.4767 232.751 78.89 236.965 81.6787C237.561 82.0656 238.169 82.4325 238.789 82.7788C240.235 83.485 241.673 84.2154 243.138 84.8795C236.366 88.3154 229.759 90.4581 227.177 98.4624C225.626 103.267 226.921 107.485 228.945 111.895C228.325 111.725 227.671 111.585 227.07 111.368C223.955 108.035 219.402 105.966 217.861 101.336C217.152 99.2055 217.27 96.6998 218.341 94.7027C221.091 89.5687 231.82 86.6266 237.193 84.9137C235.522 84.553 233.904 83.8495 232.312 83.2374C227.525 81.3967 221.798 79.3047 218.518 75.1472C217.227 73.5119 216.522 71.5355 216.799 69.4387C217.828 61.6477 227.188 56.2024 232.872 51.7681C230.875 51.888 228.862 52.3641 226.874 52.6212C220.987 53.3829 212.714 54.0631 207.773 50.166C205.678 48.5137 204.759 46.1107 204.468 43.5349C203.944 38.8921 205.96 34.3374 208.825 30.7845C204.226 30.9573 199.468 30.7393 195.418 28.3107C191.467 25.9425 189.637 21.9515 188.581 17.6311C187.399 19.6108 186.134 21.6892 184.119 22.9287C182.186 24.1186 179.895 24.2861 177.725 23.7591C173.684 22.7783 169.913 19.6841 167.639 16.2632C166.776 14.9621 166.136 13.5026 165.32 12.1661C165.089 19.506 161.511 25.4864 156.799 30.8929C155.523 32.3549 154.131 33.7068 152.885 35.193C152.296 34.5939 151.311 33.0971 150.458 33.016L150.313 33.3094C149.33 34.1136 148.325 35.0642 147.173 35.6073C146.729 35.7847 146.522 35.9585 146.296 36.3821C145.472 37.2459 144.406 38.1291 143.306 38.6091C142.958 38.7869 142.666 38.9074 142.447 39.2479C142.119 39.6175 141.819 39.9619 141.411 40.2461L141.334 40.0448C142.496 38.24 145.052 37.7781 145.916 36.4871C147.164 34.6275 145.567 33.4411 145.328 31.6957C145.286 31.3928 145.223 31.1292 145.147 30.8338C143.557 31.1354 140.162 35.5737 138.69 35.817C138.635 35.8261 138.58 35.8193 138.523 35.8204C141.172 33.3375 144.129 31.169 147.011 28.9702C149.885 26.759 152.739 24.5208 155.571 22.2559C161.744 17.253 162.696 12.9383 163.491 5.33309Z" fill="#F8D03C"/>
<path d="M138.523 35.8204C138.579 35.8193 138.635 35.826 138.69 35.817C140.161 35.5737 143.557 31.1354 145.147 30.8337C145.223 31.1291 145.286 31.3928 145.327 31.6957C145.567 33.4411 147.164 34.6274 145.916 36.487C145.052 37.7781 142.496 38.24 141.334 40.0448L141.411 40.2461C141.819 39.9619 142.119 39.6174 142.447 39.2479C144.448 41.3504 146.155 43.738 148.352 45.648L149.072 45.9892L149.077 46.2966C149.161 46.9334 149.171 47.6779 149.42 48.2652C149.137 48.8338 147.165 51.9524 147.146 52.2451C147.139 52.3397 147.205 52.4251 147.236 52.5151C148.482 51.4433 149.877 50.0619 151.332 49.3218C152.712 47.7089 155.183 46.0604 156.881 44.7255C161.684 40.95 166.822 37.317 171.228 33.0911L173.055 33.9713L173.372 34.1211C175.309 34.9625 177.396 35.6916 179.268 36.6472C179.185 40.0709 179.245 43.5024 179.254 46.9271C179.259 48.7386 179.409 50.7096 179.116 52.4932C180.223 53.1132 181.272 53.7609 182.293 54.5154C186.203 58.0381 188.659 61.6466 188.949 67.0551C189.174 71.2635 187.796 75.9403 184.949 79.1141C184.097 80.0636 183.14 80.9446 182.156 81.7552C182.611 82.6391 181.862 96.7465 182.405 99.7358L180.032 101.628C179.845 101.814 179.662 102.008 179.46 102.177C177.243 103.679 175.358 105.714 173.104 107.146C172.299 107.807 171.472 108.45 170.685 109.133C170.492 109.32 170.304 109.517 170.1 109.694C171.259 109.491 172.114 107.457 173.268 107.997C173.475 108.273 173.691 108.51 173.756 108.858C172.896 109.547 171.699 110.296 171.041 111.165L171.029 111.412L170.665 111.821C169.299 112.905 167.942 113.998 166.592 115.102L165.932 115.666C164.388 116.915 161.882 118.615 160.651 120.049L158.735 121.594C157.036 122.886 155.089 124.177 153.578 125.67L151.182 127.562C151.22 129.226 151.019 138.784 151.37 139.656C147.854 142.834 143.546 145.331 140.158 148.593C137.07 150.917 134.177 153.51 131.056 155.786L130.001 156.546L128.569 156.163C128.51 152.72 128.358 149.256 128.442 145.816C126.73 147.131 123.241 150.511 121.516 151.112C121.248 151.058 120.98 151.009 120.713 150.946L120.719 151.163C121.05 151.345 121.374 151.527 121.457 151.94C121.538 152.354 121.411 152.532 121.225 152.878C120.773 153.132 120.39 153.08 119.912 152.936C118.83 152.61 117.627 151.905 116.49 152.024C114.766 151.779 112.731 150.845 111.059 150.297C106.145 148.685 101.137 146.811 96.1191 145.58C95.5336 145.627 94.933 145.616 94.3451 145.633C87.6172 132.628 81.6948 119.181 74.3293 106.508C72.0592 105.657 59.5883 100.282 58.3217 100.597C58.1141 100.345 58.0203 100.213 57.9717 99.8875C58.8171 98.3445 66.2584 92.9022 68.0092 91.4875C81.9511 80.2213 96.0626 69.2169 110.151 58.1391C119.55 50.6258 129.008 43.1859 138.523 35.8204Z" fill="url(#paint6_linear_271_828)"/>
<path d="M146.86 90.8932C146.923 90.9582 146.931 90.9591 146.981 91.0652C147.113 91.3431 147.211 91.8706 147.081 92.1571C146.561 93.2878 143.267 93.9943 142.12 94.3868L142.038 94.2193C143.628 93.0856 145.235 91.9767 146.86 90.8932Z" fill="#DD9105"/>
<path d="M144.028 117.371L144.162 117.486C144.57 118.491 144.33 127.942 144.333 129.817L143.207 130.752C142.277 129.145 143.841 119.635 144.028 117.371Z" fill="#DD9105"/>
<path d="M154.275 85.8797C154.694 86.6357 154.521 89.391 154.545 90.3945L154.255 90.494C153.615 90.714 152.58 91.2278 151.961 90.9244C151.568 89.9565 151.246 88.9525 150.903 87.9663C152.01 87.2356 153.113 86.5234 154.275 85.8797Z" fill="#F7B617"/>
<path d="M120.016 116.547C120.035 116.592 120.056 116.636 120.073 116.682C120.178 116.961 120.249 117.711 120.499 117.812C120.772 117.923 120.959 117.858 121.232 117.896C121.314 117.909 121.394 117.942 121.475 117.964C120.945 118.146 120.562 118.286 120.144 118.668L120.215 118.789C120.93 118.73 121.572 118.599 122.265 118.424L122.398 118.588C121.653 118.902 120.93 119.075 120.119 119.019C119.75 118.597 119.815 117.668 119.369 117.593C118.315 118.102 117.688 119.132 116.681 119.642L116.655 119.995L117.299 120.222L117.274 120.066C117.348 120.113 117.419 120.164 117.495 120.208C117.549 120.24 117.609 120.262 117.664 120.294C118.351 120.693 118.628 121.264 119.466 121.09C120.724 120.831 122.424 119.866 123.7 120.243C123.727 120.251 123.755 120.259 123.782 120.266C119.77 121.188 115.795 122.256 111.771 123.128C114.47 120.869 117.309 118.795 120.016 116.547Z" fill="#931919"/>
<path d="M108.044 142.106C109.039 141.241 109.972 140.337 110.895 139.397C110.886 142.117 110.905 144.838 110.864 147.556C109.918 147.241 108.978 146.912 108.042 146.57C108.011 145.078 107.986 143.596 108.044 142.106Z" fill="#DD9105"/>
<path d="M156.995 74.3438C157.605 75.9227 158.295 77.319 159.262 78.7095C158.028 79.5793 156.864 80.5478 155.687 81.493C154.502 80.3645 153.452 79.0802 152.422 77.8116C153.706 76.4808 155.561 75.5463 156.995 74.3438Z" fill="#F7B617"/>
<path d="M143.396 96.3751C147.069 94.779 151.157 93.4598 154.619 91.4673C151.705 94.4525 149.062 97.712 145.997 100.546C145.982 100.543 145.967 100.537 145.95 100.537C145.855 100.542 145.76 100.554 145.665 100.562C145.111 99.8339 145.607 98.654 144.906 97.7883L144.607 97.7961L144.406 97.8254C144.372 97.8012 144.337 97.7801 144.307 97.7529C144.005 97.4922 144.002 97.2086 143.954 96.8368C143.945 96.7712 143.939 96.7056 143.931 96.64C143.77 96.4883 143.601 96.4505 143.396 96.3751Z" fill="#931919"/>
<path d="M135.362 122.612L137.51 123.104C137.487 125.753 137.498 128.402 137.542 131.051C137.553 132.386 137.713 133.949 137.48 135.263C137.399 135.72 136.815 136.049 136.466 136.318L135.293 137.271C135.483 132.406 135.328 127.483 135.362 122.612Z" fill="#DD9105"/>
<path d="M120.116 131.786L120.265 131.926C120.589 133.522 120.322 135.599 120.315 137.259C120.3 140.996 120.364 144.747 120.209 148.48L118.105 148.081L117.75 147.976C117.234 146.795 117.559 136.217 117.562 134.101C118.358 133.283 119.26 132.544 120.116 131.786Z" fill="#DD9105"/>
<path d="M129.086 125.084C129.572 125.935 129.299 140.194 129.302 142.347L126.718 144.284L126.604 144.179C126.267 142.896 126.544 139.917 126.552 138.481L126.543 127.142C127.372 126.432 128.226 125.757 129.086 125.084Z" fill="#DD9105"/>
<path d="M130.409 67.9824L131.582 67.166C131.249 73.013 131.563 78.9478 131.505 84.8097C131.485 86.8061 131.573 88.9135 131.341 90.889C130.642 91.1302 129.086 90.6195 128.311 90.4695C128.301 83.5952 128.495 76.6521 128.156 69.7894C128.904 69.1831 129.655 68.5807 130.409 67.9824Z" fill="#DD9105"/>
<path d="M154.255 94.5778C154.562 94.909 154.372 119.46 154.488 121.989C153.394 122.843 152.345 123.772 151.28 124.661L151.14 124.548C150.788 123.481 151.044 119.351 151.042 117.929C151.037 111.674 151.26 105.32 150.875 99.0791C151.832 97.466 153.032 95.9939 154.255 94.5778Z" fill="#F7B617"/>
<path d="M114.31 106.542C114.716 106.835 114.827 107.804 114.963 108.305C116.483 107.371 117.793 107.216 119.42 106.635C119.664 107.039 119.789 107.152 119.773 107.632C118.677 108.789 114.683 107.893 114.789 110.532C114.83 111.568 116.002 112.163 115.317 113.235C114.699 114.202 112.749 114.558 112.417 115.692C111.931 116.462 103.257 122.35 101.692 123.513C100.064 122.498 98.3831 121.594 96.6821 120.711C102.769 116.662 108.649 112.275 114.68 108.136C114.526 107.607 114.41 107.083 114.31 106.542Z" fill="#B5231A"/>
<path d="M160.729 80.3027C161.787 81.2141 162.831 82.0675 163.997 82.8351C163.851 85.1928 163.925 87.5894 163.92 89.9529L163.887 102.416L163.804 109.801C163.784 111.328 163.645 113.003 163.893 114.506C162.858 114.964 161.768 116.026 160.861 116.731C160.873 108.424 160.827 100.116 160.724 91.8089C160.698 87.9939 160.531 84.1108 160.729 80.3027Z" fill="#F8D03C"/>
<path d="M144.607 97.7961L144.906 97.7883C145.607 98.654 145.111 99.8339 145.665 100.562C145.76 100.554 145.855 100.542 145.95 100.537C145.967 100.537 145.982 100.543 145.997 100.546C145.177 101.571 144.187 102.468 143.395 103.509C142.907 107.719 142.636 111.962 142.188 116.18C141.998 117.981 141.882 119.872 141.491 121.64C138.218 121.036 130.949 119.331 127.884 119.475C126.505 119.54 125.15 120.108 123.782 120.266C123.755 120.259 123.727 120.251 123.699 120.243C122.424 119.866 120.724 120.83 119.466 121.09C118.628 121.264 118.35 120.693 117.664 120.294C117.609 120.262 117.549 120.24 117.495 120.208C117.419 120.164 117.348 120.113 117.274 120.066L117.299 120.222L116.655 119.995L116.68 119.642C117.688 119.132 118.315 118.102 119.368 117.593C119.815 117.668 119.75 118.597 120.118 119.019C120.929 119.075 121.653 118.902 122.398 118.588L122.265 118.424C122.786 118.16 123.496 118.03 124.061 117.866C125.32 117.501 126.603 117.164 127.918 117.093C131.338 116.911 136.378 118.269 139.824 118.933L139.901 117.409L140.217 111.429C140.522 108.253 140.385 104.917 141.015 101.79C141.951 100.701 143.135 99.844 144.101 98.7901C144.414 98.449 144.615 98.2551 144.607 97.7961Z" fill="#B5231A"/>
<path d="M152.422 77.8116C153.452 79.0802 154.502 80.3645 155.687 81.4931C154.249 82.3558 152.876 83.5655 151.531 84.5806C146.997 88.0033 142.22 92.1278 137.417 95.0687C136.384 93.6727 135.348 92.4727 133.944 91.444C140.14 86.9497 146.299 82.4055 152.422 77.8116Z" fill="#B5231A"/>
<path d="M109.838 87.345C112.026 88.1158 114.303 88.6396 116.535 89.273C120.233 90.3334 123.927 91.4126 127.614 92.5107C126.667 92.6931 125.361 92.164 124.436 91.8948C123.554 92.7612 122.105 93.9354 121.648 95.1058C122.465 95.8777 124.072 96.3426 125.109 96.8054L124.991 96.9926C121.181 95.7509 116.401 93.0961 112.894 91.038C114.875 93.6948 116.399 98.1559 117.671 101.285C117.406 102.823 119.079 105.058 119.42 106.635C117.792 107.216 116.483 107.371 114.963 108.305C114.826 107.804 114.716 106.835 114.309 106.542C113.622 104.666 113.24 102.582 112.771 100.635C111.687 96.229 110.709 91.7978 109.838 87.345Z" fill="#B5231A"/>
<path d="M77.748 107.883C80.0968 106.724 82.3953 104.624 84.4919 103.039C90.5908 98.4263 96.6146 93.7319 102.799 89.2315C104.765 87.8002 106.799 85.9254 108.969 84.8367C106.55 87.4039 103.651 89.6865 100.976 91.9917C94.3918 97.5831 87.7347 103.088 81.0064 108.506C83.4605 112.347 85.2449 116.738 87.1874 120.857C89.5536 125.874 92.0367 130.839 94.3776 135.867C95.4597 138.192 96.3921 140.702 97.6371 142.929C101.077 144.223 104.546 145.437 108.042 146.57C108.978 146.913 109.918 147.241 110.863 147.556C112.583 148.048 119.444 150.18 120.713 150.947L120.719 151.163C121.05 151.345 121.374 151.527 121.456 151.94C121.538 152.354 121.41 152.532 121.225 152.878C120.773 153.132 120.39 153.08 119.912 152.936C118.83 152.61 117.626 151.905 116.49 152.024C114.766 151.779 112.731 150.845 111.059 150.297C106.145 148.685 101.137 146.811 96.1189 145.58C94.7018 143.247 93.1292 139.002 91.8762 136.339C89.6829 131.678 87.333 127.091 85.1104 122.445C82.7707 117.553 80.5728 112.519 77.748 107.883Z" fill="#C1550C"/>
<path d="M139.635 136.894C140.544 135.838 142.053 134.906 143.163 134.017L151.181 127.562C151.22 129.226 151.019 138.784 151.37 139.656C147.853 142.834 143.546 145.331 140.158 148.593C137.069 150.917 134.177 153.51 131.056 155.786L130.001 156.546L128.569 156.163C128.509 152.72 128.358 149.256 128.442 145.816L130.588 144.065C132.336 142.25 135.509 140.132 137.587 138.524L139.635 136.894Z" fill="url(#paint7_linear_271_828)"/>
<path d="M137.588 138.524L139.636 136.894C139.801 140.211 139.688 143.584 139.665 146.907C139.053 146.915 138.442 146.97 137.852 146.788C137.459 145.433 137.665 140.317 137.588 138.524Z" fill="#931919"/>
<path d="M128.442 145.816L130.588 144.065C131.468 146.596 130.438 152.959 131.056 155.786L130.001 156.546L128.569 156.163C128.509 152.72 128.358 149.256 128.442 145.816Z" fill="#931919"/>
<path d="M143.827 57.5022C143.853 60.3754 143.75 80.1078 144.159 81.0471C142.545 82.3137 140.81 83.372 139.177 84.5974C138.204 85.3329 137.217 86.0508 136.217 86.7506C134.637 88.039 132.685 89.3613 131.341 90.889C131.572 88.9136 131.485 86.8061 131.505 84.8097C131.563 78.9478 131.249 73.013 131.582 67.166L130.409 67.9824L130.164 67.8687C131.853 66.4624 141.392 58.6154 142.605 58.2201C143.046 58.0695 143.439 57.7579 143.827 57.5022Z" fill="#F7B617"/>
<path d="M136 63.54L139.191 61.0486C138.983 64.1671 139.098 67.3375 139.121 70.463L139.177 84.5974C138.204 85.3329 137.217 86.0508 136.217 86.7506C135.98 79.0214 136.231 71.2727 136 63.54Z" fill="#DD9105"/>
<path d="M182.156 81.7552C182.611 82.6391 181.862 96.7465 182.404 99.7357L180.031 101.628C179.844 101.814 179.662 102.008 179.46 102.177C177.243 103.679 175.358 105.714 173.104 107.146C172.299 107.807 171.472 108.45 170.685 109.133C170.492 109.32 170.303 109.517 170.1 109.694C167.851 110.972 166.137 113.239 163.893 114.506C163.644 113.003 163.784 111.328 163.804 109.801L163.887 102.416L163.92 89.9529C163.925 87.5894 163.851 85.1928 163.997 82.8351C166.117 83.9071 167.987 84.5454 170.342 84.8565L171.214 84.944C174.349 84.9774 176.772 84.5508 179.647 83.2697C180.528 82.8482 181.336 82.2844 182.156 81.7552Z" fill="#FBE74D"/>
<path d="M170.342 84.8565L171.214 84.944C171.867 85.0539 172.491 85.0952 173.153 85.1044C173.05 92.4211 172.854 99.8359 173.104 107.146C172.299 107.807 171.472 108.451 170.685 109.133C170.268 108.329 170.389 87.5335 170.342 84.8565Z" fill="#FAD225"/>
<path d="M182.156 81.7552C182.611 82.6391 181.862 96.7465 182.405 99.7357L180.032 101.628C179.845 101.814 179.662 102.008 179.46 102.177C177.243 103.679 175.358 105.714 173.104 107.146C172.854 99.8358 173.051 92.421 173.153 85.1043C172.491 85.0951 171.867 85.0539 171.214 84.944C174.349 84.9774 176.773 84.5508 179.647 83.2697C180.528 82.8482 181.336 82.2844 182.156 81.7552Z" fill="#FAF56C"/>
<path d="M182.156 81.7552C182.611 82.6391 181.862 96.7465 182.404 99.7357L180.031 101.628C179.598 100.608 179.719 85.7151 179.647 83.2697C180.528 82.8482 181.336 82.2844 182.156 81.7552Z" fill="#FAD225"/>
<path d="M112.895 91.038C116.401 93.0961 121.181 95.7509 124.992 96.9926L125.11 96.8054C124.072 96.3426 122.466 95.8777 121.648 95.1058C122.105 93.9354 123.554 92.7612 124.437 91.8948C125.361 92.164 126.667 92.6931 127.615 92.5107C129.534 92.9432 131.375 93.6802 133.3 94.084C134.521 95.6328 135.928 97.1944 136.811 98.9668C138.658 98.2716 141.718 96.8124 143.396 96.3751C143.602 96.4505 143.77 96.4882 143.931 96.64C143.939 96.7056 143.945 96.7712 143.954 96.8368C144.002 97.2085 144.005 97.4921 144.307 97.7529C144.337 97.78 144.373 97.8012 144.406 97.8254L144.607 97.7961C144.615 98.2551 144.414 98.449 144.101 98.7901C143.136 99.844 141.951 100.701 141.016 101.79C140.386 104.917 140.522 108.253 140.217 111.429L139.901 117.409L139.824 118.933C136.378 118.269 131.338 116.911 127.918 117.093C126.603 117.164 125.32 117.501 124.061 117.866C123.496 118.03 122.786 118.16 122.265 118.424C121.572 118.599 120.93 118.73 120.215 118.789L120.144 118.667C120.562 118.286 120.945 118.146 121.475 117.964C121.394 117.942 121.314 117.909 121.232 117.896C120.959 117.858 120.772 117.922 120.499 117.812C120.249 117.711 120.178 116.961 120.073 116.682C120.056 116.636 120.035 116.592 120.016 116.547C120.384 116.04 121.008 115.585 121.472 115.156C119.716 113.725 117.295 112.642 115.902 110.863C115.868 111.631 115.876 112.398 115.879 113.166C114.753 114.027 113.637 114.97 112.417 115.692C112.749 114.558 114.699 114.202 115.317 113.235C116.002 112.163 114.83 111.568 114.789 110.532C114.683 107.892 118.677 108.789 119.773 107.632C119.789 107.152 119.664 107.039 119.421 106.635C119.079 105.058 117.407 102.823 117.672 101.285C116.399 98.1559 114.875 93.6948 112.895 91.038Z" fill="#DA3725"/>
<path d="M144.607 97.7961C144.615 98.2551 144.414 98.449 144.101 98.7901C143.135 99.844 141.95 100.701 141.015 101.79C140.385 104.917 140.522 108.253 140.217 111.429L139.901 117.409L139.824 118.933C136.378 118.269 131.338 116.911 127.918 117.093C126.603 117.164 125.32 117.501 124.061 117.866C123.495 118.03 122.786 118.16 122.265 118.424C121.572 118.599 120.929 118.73 120.215 118.789L120.144 118.668C120.561 118.286 120.945 118.146 121.475 117.964C123.183 117.896 124.923 116.566 126.695 116.38C129.587 116.077 136.234 117.749 139.397 118.275C139.355 116.241 139.406 114.197 139.421 112.163L139.427 111.205C139.478 107.928 139.478 104.64 139.696 101.368C141.086 100.064 142.867 98.9669 144.406 97.8254L144.607 97.7961Z" fill="#FBE74D"/>
<path d="M112.895 91.038C116.401 93.0961 121.181 95.7509 124.992 96.9926C127.029 98.1718 129.613 99.4597 131.902 99.9766C133.253 103.874 134.833 107.707 136.311 111.559C136.863 112.996 137.763 114.739 138 116.233C137.714 116.212 137.841 116.265 137.664 116.126C135.989 114.801 123.466 109.986 120.873 109.048C119.699 106.507 118.757 103.864 117.671 101.285C116.399 98.1559 114.875 93.6948 112.895 91.038Z" fill="#FBE74D"/>
<path d="M131.111 102.55C131.79 103.269 133.654 108.05 134.248 109.304C135.192 111.308 136.184 113.288 137.223 115.244C135.802 114.355 134.376 113.526 132.889 112.749L124.244 108.25C126.592 106.47 128.925 104.525 131.111 102.55Z" fill="#DA3725"/>
<path d="M114.354 92.5629C116.56 93.4966 118.726 94.987 120.839 96.1467C123.921 97.8397 127.093 99.3742 130.15 101.117C129.078 102.029 127.961 102.886 126.857 103.757C125.319 104.989 123.788 106.278 122.132 107.351C120.636 104.588 119.243 101.77 117.766 98.9952C116.63 96.8597 115.369 94.7576 114.354 92.5629Z" fill="#B5231A"/>
<path d="M138.523 35.8204C138.579 35.8193 138.635 35.826 138.69 35.817C140.161 35.5737 143.557 31.1354 145.147 30.8337C145.223 31.1291 145.286 31.3928 145.327 31.6957C145.567 33.4411 147.164 34.6274 145.916 36.487C145.052 37.7781 142.496 38.24 141.334 40.0448L141.411 40.2461C141.819 39.9619 142.119 39.6174 142.447 39.2479C144.448 41.3504 146.155 43.738 148.352 45.648L149.072 45.9892L149.077 46.2966C149.161 46.9334 149.171 47.6779 149.42 48.2652C149.137 48.8338 147.165 51.9524 147.146 52.2451C147.139 52.3397 147.205 52.4251 147.236 52.5151C148.482 51.4433 149.877 50.0619 151.332 49.3218C152.712 47.7089 155.183 46.0604 156.881 44.7255C161.684 40.95 166.822 37.317 171.228 33.0911L173.055 33.9713L173.372 34.1211C175.309 34.9625 177.396 35.6916 179.268 36.6472C179.185 40.0709 179.245 43.5024 179.254 46.9271C179.259 48.7386 179.409 50.7096 179.116 52.4932C180.223 53.1132 181.272 53.7609 182.293 54.5154C186.203 58.0381 188.659 61.6466 188.949 67.0551C189.174 71.2635 187.796 75.9403 184.949 79.1141C184.097 80.0636 183.14 80.9446 182.156 81.7552C181.336 82.2844 180.528 82.8482 179.647 83.2697C176.773 84.5508 174.349 84.9774 171.214 84.944L170.342 84.8565C167.987 84.5455 166.117 83.9071 163.997 82.8352C162.831 82.0675 161.787 81.2141 160.729 80.3027C160.245 79.7669 159.756 79.2358 159.262 78.7096C158.295 77.319 157.605 75.9227 156.995 74.3438C156.668 73.6713 156.481 72.863 156.248 72.1489C155.926 72.3629 155.603 72.5703 155.304 72.816C152.981 74.3658 149.157 77.6719 146.945 78.6955C146.201 79.6148 145.078 80.2992 144.159 81.0471C143.75 80.1078 143.853 60.3754 143.827 57.5022C143.439 57.7579 143.046 58.0695 142.605 58.2201C141.392 58.6154 131.853 66.4623 130.164 67.8687C128.166 69.1491 126.284 70.7941 124.401 72.2452C119.984 75.6495 115.625 79.1325 111.256 82.5977C110.364 83.3053 110.021 84.3393 108.969 84.8367C106.799 85.9254 104.765 87.8002 102.799 89.2315C96.6148 93.7319 90.591 98.4263 84.492 103.039C82.3955 104.624 80.097 106.724 77.7482 107.883C80.573 112.519 82.7709 117.553 85.1106 122.445C87.3332 127.091 89.683 131.678 91.8763 136.339C93.1294 139.002 94.702 143.247 96.1191 145.58C95.5336 145.627 94.933 145.616 94.3451 145.633C87.6172 132.628 81.6948 119.181 74.3293 106.508C72.0592 105.657 59.5883 100.282 58.3217 100.597C58.1141 100.345 58.0203 100.213 57.9717 99.8875C58.8171 98.3445 66.2584 92.9022 68.0092 91.4875C81.9511 80.2213 96.0626 69.2169 110.151 58.1391C119.55 50.6258 129.008 43.1859 138.523 35.8204Z" fill="#F7B617"/>
<path d="M86.518 84.7499C87.3318 85.1703 89.5733 87.9985 90.3349 88.8142C89.6676 89.4102 89.0155 90.0254 88.3578 90.6321C86.933 89.4898 85.6639 87.8693 84.4219 86.5255C85.1499 85.9609 85.8351 85.368 86.518 84.7499Z" fill="#0A0739"/>
<path d="M76.6571 92.7063C78.095 93.8611 79.4033 95.4567 80.6846 96.7943L78.7816 98.4573L78.5976 98.5193C77.7611 98.1588 75.3929 95.3057 74.6938 94.4577L76.6571 92.7063Z" fill="#12163A"/>
<path d="M81.6479 88.7795C83.0289 89.8948 84.2688 91.5227 85.5617 92.7808L83.3861 94.6208C83.3648 94.6268 83.344 94.641 83.322 94.6386C82.8197 94.5829 80.0146 91.1442 79.4917 90.5507L81.6479 88.7795Z" fill="#0A0739"/>
<path d="M138.406 42.3187C139.826 43.8491 143.519 47.3651 144.225 49.0096C143.12 49.4283 142.035 50.4634 141.051 51.1479C139.164 49.0277 137.039 47.1135 135.072 45.0629C136.24 44.2437 137.424 43.3552 138.406 42.3187Z" fill="#12163A"/>
<path d="M142.447 39.2479C144.448 41.3504 146.155 43.738 148.352 45.648C147.501 46.2661 145.858 47.2141 145.407 48.1447L145.582 48.2604C145.452 48.6086 145.274 48.9095 144.949 49.1149C144.814 49.2 144.656 49.2305 144.506 49.2694C144.247 49.1005 144.322 49.203 144.225 49.0096C143.519 47.3651 139.826 43.8491 138.406 42.3186C138.61 42.0383 138.895 41.8992 139.188 41.7272C139.999 41.4141 140.772 40.823 141.411 40.2461C141.819 39.9619 142.119 39.6175 142.447 39.2479Z" fill="#12163A"/>
<path d="M138.406 42.3186C138.61 42.0383 138.895 41.8992 139.188 41.7272C140.321 42.894 144.356 47.8973 145.407 48.1447L145.582 48.2604C145.452 48.6086 145.274 48.9095 144.949 49.1149C144.814 49.2 144.656 49.2305 144.506 49.2694C144.247 49.1005 144.322 49.203 144.225 49.0096C143.519 47.3651 139.826 43.8491 138.406 42.3186Z" fill="#F9FBF4"/>
<path d="M100.485 74.1963C101.446 74.1542 102.605 74.2612 103.333 74.968C103.815 75.4351 104.012 76.1531 103.972 76.81C103.94 77.3517 103.751 77.9229 103.407 78.3472C102.297 79.7123 100.449 80.7899 99.0453 81.8628C97.197 83.2711 95.3933 84.737 93.6368 86.2582L93.5088 86.3707C92.8876 86.1719 91.1013 83.9841 90.6802 83.3467C90.4565 83.0079 90.3598 82.6115 90.4673 82.2119C90.662 81.4888 99.2381 74.863 100.485 74.1963Z" fill="#B5231A"/>
<path d="M171.228 33.0911L173.055 33.9713C172.068 34.8681 171.053 35.7349 170.014 36.5707C170.397 41.3699 170.271 46.3933 170.166 51.2118C167.99 51.5064 166.129 52.1576 164.172 53.1433C163.016 53.9042 161.903 54.6894 160.881 55.6251C160.603 54.6218 160.741 53.4418 160.757 52.403C160.802 49.572 161.138 46.3729 160.717 43.5842L160.484 43.5551C160.548 43.4861 160.612 43.4165 160.677 43.3483C164.111 39.7421 169.077 37.7301 172.442 34.0817C172.215 33.7305 172.22 33.742 171.817 33.6237C169.732 34.034 168.03 36.6741 166.2 37.7801C163.148 39.6248 153.319 48.7205 151.332 49.3218C152.712 47.7089 155.183 46.0604 156.881 44.7255C161.684 40.95 166.822 37.317 171.228 33.0911Z" fill="#FAD225"/>
<path d="M164.126 40.7184C164.014 44.7891 163.717 49.1008 164.172 53.1433C163.016 53.9042 161.903 54.6894 160.881 55.6251C160.603 54.6218 160.741 53.4417 160.757 52.403C160.802 49.572 161.138 46.3729 160.717 43.5842C161.854 42.6385 163.038 41.7194 164.126 40.7184Z" fill="#FAD225"/>
<path d="M173.055 33.9714L173.372 34.1211C175.308 34.9626 177.396 35.6916 179.268 36.6473C179.185 40.0709 179.245 43.5024 179.254 46.9271C179.259 48.7386 179.409 50.7096 179.116 52.4932C176.633 51.3748 174.153 51.1267 171.455 51.1415L170.165 51.2118C170.271 46.3934 170.397 41.3699 170.014 36.5708C171.053 35.735 172.067 34.8681 173.055 33.9714Z" fill="#FBE74D"/>
<path d="M173.055 33.9714L173.372 34.1211C173.119 36.1705 173.23 38.3295 173.213 40.3957C173.164 43.9336 173.159 47.4719 173.198 51.0099C172.637 51.0069 171.968 50.9114 171.455 51.1415L170.165 51.2118C170.271 46.3934 170.397 41.3699 170.014 36.5708C171.053 35.735 172.067 34.8681 173.055 33.9714Z" fill="#F8D03C"/>
<path d="M160.484 43.5551L160.717 43.5842C161.138 46.3729 160.802 49.572 160.756 52.4031C160.741 53.4418 160.603 54.6218 160.881 55.6251C157.298 59.4191 155.715 63.1429 155.85 68.3969C155.882 69.6453 155.972 70.9289 156.248 72.1489C155.926 72.3629 155.603 72.5703 155.304 72.8161C154.073 71.995 153.047 69.2822 152.379 67.9495C151.951 65.5408 152.063 62.9907 152.062 60.5504C152.079 57.3059 152.065 54.0613 152.019 50.8171C150.65 52.1225 148.907 53.015 147.503 54.4175C147.371 54.5485 147.236 54.6753 147.103 54.8049C145.991 55.6802 144.899 56.5795 143.827 57.5022C143.439 57.7579 143.046 58.0695 142.605 58.2201C143.425 57.2838 144.578 56.5274 145.534 55.7274L153.061 49.5536C155.155 47.8392 158.172 44.6924 160.484 43.5551Z" fill="#F8D03C"/>
<path d="M152.019 50.8171C152.817 49.826 154.083 49.0508 155.064 48.2158C155.122 53.8345 155.09 59.4537 154.971 65.0714C154.082 66.0124 153.213 66.9585 152.379 67.9494C151.951 65.5407 152.063 62.9907 152.061 60.5504C152.079 57.3059 152.065 54.0613 152.019 50.8171Z" fill="#DD9105"/>
<path d="M152.019 50.8171C152.065 54.0613 152.079 57.3059 152.062 60.5504C152.063 62.9907 151.951 65.5408 152.379 67.9495C153.047 69.2822 154.073 71.995 155.304 72.8161C152.981 74.3659 149.157 77.6719 146.945 78.6955C146.201 79.6148 145.078 80.2992 144.159 81.0471C143.75 80.1078 143.853 60.3754 143.827 57.5022C144.899 56.5795 145.991 55.6802 147.103 54.8048C147.236 54.6753 147.371 54.5485 147.503 54.4175C148.907 53.015 150.65 52.1225 152.019 50.8171Z" fill="#FAD225"/>
<path d="M147.103 54.8049L146.978 70.8927C146.957 73.4271 146.706 76.1812 146.945 78.6955C146.201 79.6148 145.078 80.2993 144.159 81.0472C143.75 80.1078 143.853 60.3754 143.827 57.5022C144.899 56.5795 145.991 55.6802 147.103 54.8049Z" fill="#DD9105"/>
<path d="M148.352 45.648L149.072 45.9892L149.077 46.2966C149.161 46.9334 149.171 47.6779 149.42 48.2652C149.137 48.8338 147.165 51.9524 147.146 52.2451C147.139 52.3397 147.205 52.4251 147.236 52.5151C146.393 53.6781 144.673 55.0066 143.44 55.7445C143.419 55.7812 143.402 55.8212 143.376 55.8543C142.534 56.9043 139.187 59.1594 137.93 60.1542C135.422 62.1386 132.984 64.2506 130.42 66.1545C127.506 68.3177 124.457 70.2763 121.565 72.4765C116.336 76.4549 111.105 80.3579 105.737 84.1486C102.135 86.6923 98.6168 89.2083 94.7748 91.3961C92.9117 92.4569 91.2653 92.9239 89.2051 93.4095C90.8933 91.8528 92.7748 90.5221 94.4896 89C97.299 86.5062 100.012 83.9211 102.88 81.4906C108.782 76.4902 114.915 71.76 120.968 66.9478L130.748 59.1443C132.501 57.751 134.237 56.2434 136.087 54.9834C137.612 53.5937 139.395 52.3817 141.051 51.1479C142.035 50.4634 143.12 49.4282 144.225 49.0096C144.322 49.203 144.247 49.1005 144.506 49.2694C144.656 49.2305 144.814 49.2 144.949 49.1149C145.274 48.9095 145.452 48.6086 145.582 48.2604L145.407 48.1447C145.858 47.2141 147.501 46.2661 148.352 45.648Z" fill="#FBE74D"/>
<path d="M149.077 46.2966C149.161 46.9334 149.171 47.678 149.42 48.2652C149.137 48.8338 147.165 51.9524 147.146 52.2452C147.139 52.3398 147.205 52.4251 147.236 52.5151C146.393 53.6782 144.673 55.0066 143.44 55.7446C143.448 54.8271 145.349 54.2561 145.864 53.5845C146.401 52.8849 146.588 51.9151 146.471 51.0636L146.367 50.2548C146.586 49.8391 146.598 49.7611 147.006 49.544C147.474 49.5906 147.881 49.6812 148.314 49.4503C148.764 48.9212 149.063 48.2701 149.059 47.5651C149.056 47.1424 149.071 46.7196 149.077 46.2966Z" fill="#FAF56C"/>
<path d="M148.352 45.648L149.072 45.9892L149.077 46.2966C148.422 46.1217 148.261 46.0861 147.644 46.454C146.627 47.0588 144.819 50.6615 144.271 50.5884C143.83 50.5293 143.407 50.2833 143.008 50.0943C142.068 50.7815 136.627 55.0158 136.137 55.0242L136.087 54.9834C137.612 53.5937 139.395 52.3817 141.051 51.1479C142.035 50.4634 143.12 49.4282 144.225 49.0096C144.322 49.203 144.247 49.1005 144.506 49.2694C144.656 49.2305 144.814 49.2 144.949 49.1149C145.274 48.9095 145.452 48.6086 145.582 48.2604L145.407 48.1447C145.858 47.2141 147.501 46.2661 148.352 45.648Z" fill="#FAF56C"/>
<path d="M171.455 51.1414C174.153 51.1267 176.633 51.3747 179.117 52.4932C180.223 53.1132 181.272 53.7609 182.293 54.5154C186.203 58.0381 188.659 61.6466 188.949 67.0551C189.174 71.2635 187.796 75.9403 184.949 79.1141C184.097 80.0636 183.141 80.9446 182.156 81.7552C181.336 82.2844 180.528 82.8482 179.647 83.2697C176.773 84.5508 174.349 84.9774 171.214 84.944L170.342 84.8565C167.988 84.5454 166.117 83.9071 163.997 82.8351C162.831 82.0674 161.787 81.2141 160.729 80.3027C160.245 79.7668 159.756 79.2358 159.262 78.7095C158.295 77.319 157.605 75.9227 156.995 74.3438C156.668 73.6713 156.481 72.8629 156.248 72.1489C155.972 70.9288 155.882 69.6453 155.85 68.3969C155.715 63.1429 157.298 59.4191 160.881 55.6251C161.903 54.6894 163.016 53.9042 164.172 53.1433C166.13 52.1576 167.991 51.5064 170.166 51.2118L171.455 51.1414Z" fill="#F9FBF4"/>
<path d="M170.478 52.9313C174.016 52.5162 177.93 53.5886 180.812 55.6607C184.2 58.0957 186.482 61.6465 187.112 65.7826C187.436 67.8063 187.349 69.8746 186.854 71.8635C186.359 73.8524 185.468 75.7209 184.233 77.3569C181.788 80.6456 178.224 82.7183 174.187 83.3142C170.785 83.813 166.87 82.888 164.028 80.9757C160.69 78.7345 158.377 75.261 157.596 71.3168C156.817 67.2665 157.577 62.6855 159.947 59.2706C162.421 55.7057 166.295 53.7166 170.478 52.9313Z" fill="#771722"/>
<path d="M172.969 80.3478C172.342 80.5261 171.601 80.5804 170.948 80.5695C167.791 80.5169 164.537 78.7502 162.42 76.4776C160.298 74.2009 159.245 71.4401 159.378 68.3244C159.43 66.7603 159.791 65.2219 160.439 63.7974C161.087 62.373 162.01 61.0906 163.156 60.024C163.191 60.4812 163.114 60.9823 163.476 61.3165C163.519 61.3563 163.576 61.3789 163.625 61.4101C162.702 62.8027 162.068 64.3664 161.761 66.0085C161.454 67.6506 161.48 69.3376 161.837 70.9695C161.917 71.3346 162.007 71.6974 162.107 72.0576C162.981 74.5117 164.212 76.1478 166.165 77.8564C168.187 79.3579 170.419 80.3288 172.969 80.3478Z" fill="#B5231A"/>
<path d="M174.7 56.5096C178.043 57.428 180.488 59.0422 182.213 62.1159C183.824 64.9883 184.36 68.3186 183.425 71.5031C182.506 74.6312 180.338 77.4167 177.459 78.9694C176.13 79.687 174.596 80.2106 173.086 80.336C173.38 79.8141 173.674 79.2894 173.929 78.7464C175.986 74.3429 176.653 68.5806 174.982 63.9649L174.832 63.1523C175.117 61.0813 174.826 58.6035 174.7 56.5096Z" fill="#DA3725"/>
<path d="M163.155 60.0241C163.529 59.7132 163.909 59.4097 164.294 59.1137C167.442 56.7212 170.842 56.0024 174.7 56.5097C174.826 58.6035 175.117 61.0813 174.832 63.1523L174.982 63.9649C176.653 68.5806 175.986 74.3429 173.929 78.7464C173.674 79.2894 173.38 79.8141 173.086 80.3361L172.969 80.3479C170.419 80.3288 168.187 79.3579 166.165 77.8564C164.212 76.1478 162.981 74.5117 162.107 72.0576C162.007 71.6974 161.917 71.3346 161.837 70.9695C161.48 69.3376 161.454 67.6506 161.761 66.0085C162.068 64.3664 162.702 62.8027 163.625 61.4101C163.576 61.3789 163.519 61.3563 163.476 61.3165C163.114 60.9823 163.191 60.4812 163.155 60.0241Z" fill="url(#paint8_linear_271_828)"/>
<path d="M164.624 71.2719C166.05 74.6039 167.923 76.2687 170.806 78.3932C169.733 78.0245 167.583 77.1012 166.502 77.6468C166.346 77.7263 166.301 77.7627 166.165 77.8563C164.212 76.1477 162.981 74.5116 162.107 72.0575C162.873 71.6226 163.79 71.5566 164.624 71.2719Z" fill="#FEAABA"/>
<path d="M163.625 61.4101C164.115 60.8309 164.615 60.3255 165.397 60.1925C165.45 60.1834 165.504 60.1848 165.558 60.181C165.814 60.4221 165.789 60.3022 165.795 60.5972C165.814 61.3342 165.38 62.1183 165.082 62.7684C163.787 65.5958 163.436 68.3146 164.624 71.2719C163.79 71.5566 162.873 71.6226 162.107 72.0575C162.007 71.6973 161.917 71.3345 161.837 70.9695C161.48 69.3376 161.454 67.6505 161.761 66.0084C162.068 64.3664 162.702 62.8027 163.625 61.4101Z" fill="#F9FBF4"/>
<path d="M174.982 63.9649C174.921 65.3675 174.838 66.7268 173.698 67.7241C172.824 68.4878 171.591 68.6773 170.469 68.57C169.404 68.4682 168.409 68.019 167.734 67.1702C167.413 66.7576 167.177 66.2848 167.041 65.7797C166.904 65.2746 166.87 64.7473 166.94 64.2288C167.1 63.044 167.843 62.105 168.795 61.4274C169.683 60.796 170.59 60.4882 171.68 60.7077C173.15 61.0032 174.027 61.9859 174.832 63.1523L174.982 63.9649Z" fill="#FEAABA"/>
</g>
<defs>
<linearGradient id="paint0_linear_271_828" x1="72.0983" y1="222.778" x2="59.3403" y2="222.833" gradientUnits="userSpaceOnUse">
<stop stop-color="#5F6132"/>
<stop offset="1" stop-color="#72814A"/>
</linearGradient>
<linearGradient id="paint1_linear_271_828" x1="76.0769" y1="198.319" x2="67.6942" y2="199.625" gradientUnits="userSpaceOnUse">
<stop stop-color="#5A804C"/>
<stop offset="1" stop-color="#6EBF91"/>
</linearGradient>
<linearGradient id="paint2_linear_271_828" x1="50.6804" y1="232.773" x2="37.5431" y2="226.956" gradientUnits="userSpaceOnUse">
<stop stop-color="#58BB9F"/>
<stop offset="1" stop-color="#7AE3D1"/>
</linearGradient>
<linearGradient id="paint3_linear_271_828" x1="27.8207" y1="182.536" x2="22.5815" y2="177.911" gradientUnits="userSpaceOnUse">
<stop stop-color="#FFC204"/>
<stop offset="1" stop-color="#BE6A05"/>
</linearGradient>
<linearGradient id="paint4_linear_271_828" x1="132.394" y1="158.663" x2="126.437" y2="154.068" gradientUnits="userSpaceOnUse">
<stop stop-color="#FFC014"/>
<stop offset="1" stop-color="#FFF54B"/>
</linearGradient>
<linearGradient id="paint5_linear_271_828" x1="228.86" y1="46.2632" x2="161.419" y2="78.5285" gradientUnits="userSpaceOnUse">
<stop stop-color="#F9F4DD"/>
<stop offset="1" stop-color="#F8F9FF"/>
</linearGradient>
<linearGradient id="paint6_linear_271_828" x1="86.7626" y1="93.4124" x2="168.763" y2="122.604" gradientUnits="userSpaceOnUse">
<stop stop-color="#FCA217"/>
<stop offset="1" stop-color="#FDF554"/>
</linearGradient>
<linearGradient id="paint7_linear_271_828" x1="144.047" y1="151.092" x2="138.064" y2="132.153" gradientUnits="userSpaceOnUse">
<stop stop-color="#AD271D"/>
<stop offset="1" stop-color="#CC402C"/>
</linearGradient>
<linearGradient id="paint8_linear_271_828" x1="162.081" y1="62.1151" x2="177.887" y2="71.8646" gradientUnits="userSpaceOnUse">
<stop stop-color="#F6434C"/>
<stop offset="1" stop-color="#FF6373"/>
</linearGradient>
<clipPath id="clip0_271_828">
<rect width="236.072" height="256" fill="white" transform="translate(10)"/>
</clipPath>
</defs>
</svg>
