<svg width="51" height="51" viewBox="0 0 51 51" fill="none" xmlns="http://www.w3.org/2000/svg">
<path d="M13.3513 0.0519812C13.3939 0.0471722 13.4329 0.0436574 13.4758 0.044539C14.0271 0.0558974 14.5735 0.269204 14.9493 0.678012C15.3016 1.06135 15.435 1.60051 15.4051 2.11108C15.3692 2.72358 15.0572 3.13051 14.6103 3.52257C14.5941 5.47781 14.6286 7.43259 14.6368 9.38771C14.779 9.39144 14.9127 9.39896 15.0531 9.42563C15.2389 8.63958 15.5046 7.88936 15.8703 7.16835C17.1557 4.63406 19.5395 2.6087 22.2436 1.72879C24.9434 0.850344 27.9436 1.13012 30.4639 2.41397C30.922 2.64735 31.3905 2.89469 31.8129 3.18888C32.1576 3.42911 32.4839 3.71759 32.7944 4.00025C34.4254 5.48504 35.3786 7.29234 36.0509 9.36675L36.4895 9.36291C36.5252 7.4131 36.4877 5.4599 36.5062 3.50946C36.4031 3.4364 36.2952 3.34067 36.2109 3.24596C35.8748 2.86842 35.6825 2.30796 35.7146 1.80361C35.7453 1.32011 35.9742 0.871253 36.3382 0.552906C36.7337 0.20701 37.2435 0.0590335 37.7642 0.0943803C38.2493 0.127308 38.694 0.34634 39.0101 0.716733C39.3442 1.10808 39.4873 1.64775 39.441 2.15611C39.3885 2.73161 39.0805 3.1495 38.6462 3.50692L38.6558 9.58855C39.0174 10.0446 39.1338 10.4171 39.1311 10.9981C39.5994 11.0224 40.0293 11.0638 40.3932 11.3996C40.7814 11.7578 40.8211 12.2974 40.8432 12.7929C40.8806 13.6293 40.8356 14.484 40.8346 15.3222C40.8338 15.9986 40.8935 17.0849 40.7801 17.7306C40.7283 18.0255 40.6497 18.2774 40.4415 18.5009C40.0697 18.9 39.646 18.9287 39.1337 18.9475C39.1078 19.4381 39.0569 19.9156 38.6739 20.2734C38.0458 20.8603 36.5428 20.6639 35.7151 20.6359C35.4362 20.9953 35.1975 21.3952 34.9378 21.7695C34.5784 22.2875 34.187 22.7858 33.7833 23.2699C34.1143 23.4839 34.4459 23.6965 34.781 23.9041C35.1059 24.1055 35.4799 24.2999 35.7541 24.5687C35.9126 24.724 36.0225 24.9103 36.0721 25.1273C36.1521 25.4773 36.1113 25.8767 36.1096 26.2347L36.1028 27.8449C37.5543 27.8454 39.0041 27.8531 40.4553 27.8837C40.4935 27.806 40.5318 27.7106 40.5897 27.6456C40.6409 27.5883 40.6912 27.5546 40.7703 27.5525C40.9213 27.5483 41.046 27.6609 41.1505 27.7561C41.3798 27.9649 41.57 28.2201 41.7825 28.446C42.3998 29.102 43.0026 29.7663 43.6032 30.4377C43.8668 30.7323 44.129 31.0283 44.3971 31.3188C44.6127 31.5525 44.8515 31.7855 45.0389 32.0424C45.1187 32.1518 45.1187 32.3239 45.1871 32.4157C45.272 32.5299 46.019 32.8527 46.2029 32.9583C46.6402 33.2094 47.0466 33.513 47.4324 33.8365C49.2889 35.3931 50.6608 37.7209 50.8638 40.1612C51.049 42.3886 50.2958 43.9567 48.8929 45.6118C48.8936 46.2819 48.9741 49.5303 48.8129 49.9198C48.6416 50.0735 47.6813 50.0216 47.4099 50.0218L43.1391 50.0191C42.5066 50.0186 41.8438 50.0707 41.2147 50.0222C41.0856 50.0124 40.9114 49.9954 40.8096 49.9049C40.7352 49.8389 40.7138 49.7833 40.7003 49.6875C40.6371 49.2393 40.6757 48.7567 40.6758 48.3041C40.6759 47.2567 40.7041 46.1909 40.6426 45.1458C40.2685 46.3911 39.2754 48.9996 38.5058 50.0138L14.1869 50.0001C13.7882 49.9998 12.6476 50.058 12.3086 49.9652C12.0511 49.5529 11.9334 49.0057 11.771 48.5465C11.3948 47.4826 11.0401 46.3823 10.5621 45.3595C10.5558 46.1296 10.5459 46.9002 10.5504 47.6703C10.5536 48.2006 10.5761 48.7344 10.561 49.2642C10.5561 49.4411 10.5533 49.8507 10.4201 49.9753C10.0166 50.0974 7.17064 50.0204 6.51787 50.0208L4.00238 50.0237C3.59206 50.0246 3.17925 50.0423 2.76939 50.0278C2.57181 50.0208 2.33491 50.0261 2.15255 49.9447C2.0247 49.7026 2.10422 46.091 2.10527 45.5537C0.951618 44.1304 0.226528 42.8708 0.178757 40.9831C0.103308 38.002 1.75117 35.1274 4.15136 33.425C4.60807 33.101 5.0808 32.8566 5.58889 32.6273C5.64813 32.6006 5.92441 32.4898 5.94427 32.4355C6.00322 32.2749 5.96356 32.1119 6.06099 31.9486C6.33461 31.4902 7.28459 30.6419 7.68959 30.2174C8.31639 29.5604 8.90052 28.8612 9.53037 28.2066C9.72585 28.0035 10.0132 27.6719 10.3192 27.6783C10.5417 27.6831 10.6834 27.8378 10.8291 27.9841C11.6823 27.9601 12.5386 27.9706 13.3923 27.9696C13.934 27.969 14.4947 27.9404 15.034 27.9818C15.0279 27.3922 14.9476 25.2386 15.0857 24.7824C15.1136 24.69 15.1563 24.6273 15.2299 24.5647C15.4568 24.3715 15.7539 24.2451 16.0157 24.1044L17.2387 23.4474C16.4468 22.6885 15.8308 21.7605 15.4206 20.7446C14.8194 20.7584 13.6909 20.8421 13.1475 20.6949C12.8867 20.6243 12.6494 20.4949 12.4557 20.3065C12.0634 19.9248 12.0071 19.4411 12.0083 18.9258C11.7581 18.9026 11.5298 18.8482 11.3072 18.729C10.9079 18.5151 10.593 18.1441 10.4639 17.709C10.1909 16.7888 10.3297 15.523 10.3271 14.5579C10.3254 13.9118 10.2724 13.2561 10.3439 12.6127C10.3754 12.3293 10.4373 12.0217 10.5805 11.7716C10.8785 11.2516 11.3991 11.0349 11.9482 10.8806C11.9392 10.3262 12.0983 9.96541 12.4328 9.52927C12.4719 7.54533 12.435 5.55607 12.4376 3.57134C12.0145 3.1981 11.709 2.78959 11.6347 2.21658C11.567 1.69313 11.7246 1.13804 12.0486 0.722237C12.3825 0.293939 12.8244 0.114345 13.3513 0.0519812Z" fill="#040D55"/>
<path d="M17.2938 26.4691C17.289 26.3632 17.2761 26.2431 17.2993 26.1394C17.3237 26.0304 17.3851 25.9805 17.4744 25.9207C17.503 26.0947 17.5097 26.23 17.479 26.405C17.4533 26.3608 17.4721 26.3756 17.4219 26.3614L17.2938 26.4691Z" fill="#F5E4C1"/>
<path d="M31.2592 24.3078C31.3364 24.2813 31.394 24.2494 31.4732 24.2781C31.4829 24.3493 31.4834 24.4105 31.4796 24.4818C31.0302 24.7998 30.6783 25.2645 30.201 25.5529C30.2009 25.5444 30.2 25.5357 30.2008 25.5272C30.2278 25.2315 31.0239 24.5455 31.2592 24.3078Z" fill="#8378BD"/>
<path d="M31.2592 24.3078C31.5372 23.9938 31.8526 23.7171 32.1642 23.4371C32.2595 23.4874 32.3545 23.5381 32.4486 23.5907C32.1314 23.8944 31.8125 24.1952 31.4796 24.4818C31.4834 24.4105 31.4829 24.3493 31.4732 24.2781C31.394 24.2494 31.3364 24.2813 31.2592 24.3078Z" fill="#92C7EA"/>
<path d="M34.8324 18.5425C34.9092 18.4675 34.9847 18.3913 35.068 18.3234C35.0834 18.7272 35.1653 19.4733 35.0545 19.8466C34.9892 19.9415 34.9272 20.0445 34.8521 20.1316C34.7818 19.6271 34.8352 19.0543 34.8324 18.5425Z" fill="#1080AA"/>
<path d="M15.9384 18.3784C16.1358 18.6329 16.3527 18.8289 16.5977 19.0359C16.6214 19.2645 16.7097 19.6345 16.6489 19.8512C16.6232 19.6949 16.5973 19.4547 16.464 19.3506C16.4286 19.3229 16.3801 19.3171 16.3358 19.3216C16.2193 19.3335 16.0973 19.4456 16.0095 19.5157C16.0094 19.7485 16.0783 20.0277 16.027 20.2493C15.87 19.6678 15.935 18.9796 15.9384 18.3784Z" fill="#1080AA"/>
<path d="M20.1297 24.0641C20.4958 24.2369 20.7339 24.7155 21.0385 24.8742C21.0913 24.8102 21.0695 24.7507 21.0707 24.6707C21.2483 25.0397 21.4028 25.4295 21.5476 25.8128C20.9197 25.4592 20.2097 24.9379 19.6832 24.4471C19.9839 24.5404 20.4565 24.9588 20.7001 25.177L20.9401 24.9031C20.6826 24.6124 20.3553 24.3823 20.1297 24.0641Z" fill="#C03A78"/>
<path d="M11.0028 17.1289C11.3369 17.4238 11.629 17.6634 12.0364 17.8541C12.0321 17.6882 12.0193 17.5185 12.0377 17.3534C12.0669 17.696 12.0673 18.0309 12.0368 18.3734C11.8253 18.2862 11.6091 18.191 11.4306 18.0454C11.1341 17.8036 11.0459 17.4925 11.0028 17.1289Z" fill="#AC254D"/>
<path d="M14.4471 32.7906L15.0749 32.7896C15.0758 33.1215 15.0681 33.4565 15.0806 33.7881C14.8728 33.6723 14.6678 33.5896 14.4393 33.5249C14.4475 33.2825 14.4694 33.0321 14.4471 32.7906Z" fill="#0FB39C"/>
<path d="M39.0783 11.6903C39.3707 11.6989 39.7447 11.6869 39.9582 11.9222C40.088 12.0651 40.125 12.2665 40.1339 12.453C39.7844 12.46 39.427 12.4832 39.0786 12.4509L39.0783 11.6903Z" fill="#FEFDFD"/>
<path d="M27.4482 31.705C27.4237 31.7942 27.3175 31.8545 27.2411 31.898C26.8397 32.1264 26.2218 32.2452 25.7642 32.247L25.5084 32.2418C24.9624 32.2171 24.2828 32.0969 23.8327 31.7683C25.0768 31.9921 26.2132 31.9921 27.4482 31.705Z" fill="#FEFDFD"/>
<path d="M36.4027 1.71324C36.5278 1.4104 36.6682 1.12198 36.9507 0.933235C37.2578 0.728093 37.5978 0.725115 37.9466 0.791226C37.804 1.16391 37.5266 1.40153 37.1689 1.56456C36.9099 1.68267 36.6812 1.70233 36.4027 1.71324Z" fill="#F4EB23"/>
<path d="M27.502 34.0779C27.4601 34.1888 27.304 34.2519 27.2 34.2983C26.7726 34.4888 26.2449 34.5961 25.7791 34.624C25.6861 34.6282 25.5953 34.6316 25.5035 34.6486C25.3977 34.6073 25.245 34.6059 25.1312 34.5885C24.6619 34.5168 24.0642 34.4504 23.6889 34.1343C25.0357 34.3573 26.1576 34.3667 27.502 34.0779Z" fill="#FEFDFD"/>
<path d="M6.75919 32.2478C7.10682 31.8975 7.42418 31.5222 7.77939 31.1777C7.84236 31.3911 7.91557 31.5887 8.00384 31.7934C7.68162 32.2002 7.36262 32.6111 7.06529 33.0366C6.95643 32.7769 6.86047 32.5106 6.75919 32.2478Z" fill="#FEFDFD"/>
<path d="M13.09 3.7889C13.366 3.83242 13.6337 3.83343 13.9123 3.82744C13.915 4.21894 13.8957 4.61174 13.9045 5.00273C13.9024 5.10202 13.9124 5.20526 13.8565 5.29161C13.7872 5.33936 13.7836 5.34818 13.7007 5.34433C13.4165 5.19549 13.2314 4.69504 13.1105 4.40831C13.1035 4.20199 13.0932 3.99528 13.09 3.7889Z" fill="#EA4317"/>
<path d="M43.1223 31.0678C43.5296 31.4583 43.8844 31.8955 44.2897 32.2878L44.0862 32.9047C43.7132 32.7182 43.2619 32.0476 42.9085 31.742C42.9823 31.5183 43.0605 31.2951 43.1223 31.0678Z" fill="#FEFDFD"/>
<path d="M12.1996 32.3385L15.076 32.3372L15.0749 32.7896L14.4471 32.7906L14.41 32.7818C14.1661 32.7137 12.7157 32.756 12.3287 32.7471L12.1996 32.3385Z" fill="#FEFDFD"/>
<path d="M33.8484 28.4728C33.8398 29.3904 33.8609 30.3094 33.861 31.2274C33.8611 31.6494 33.9058 32.132 33.8205 32.5439C33.755 32.6049 33.6806 32.6389 33.6013 32.6783C33.5175 32.133 33.5682 31.5431 33.5671 30.9923C33.5655 30.2047 33.5445 29.4188 33.5284 28.6315L33.5419 28.5991C33.6424 28.5479 33.7415 28.5087 33.8484 28.4728Z" fill="#F5E4C1"/>
<path d="M13.1105 4.40831C13.2314 4.69504 13.4165 5.19549 13.7007 5.34433C13.7836 5.34818 13.7872 5.33936 13.8565 5.29161C13.9124 5.20526 13.9024 5.10202 13.9045 5.00273C13.9428 5.47329 13.9159 5.93721 13.8998 6.40765C13.6294 6.49626 13.3547 6.76316 13.1123 6.91986C13.108 6.19744 13.1312 5.47016 13.1046 4.74853C13.0988 4.63698 13.1083 4.52031 13.1105 4.40831Z" fill="#D23221"/>
<path d="M35.0545 19.8466L35.097 20.2291C34.47 21.5174 33.4543 22.5883 32.4486 23.5907C32.3545 23.5381 32.2595 23.4874 32.1642 23.4371C32.898 22.7112 33.5891 21.9608 34.2206 21.1425C34.4658 20.8164 34.6666 20.4936 34.8521 20.1316C34.9272 20.0445 34.9892 19.9415 35.0545 19.8466Z" fill="#FEFDFD"/>
<path d="M38.5361 1.25279C38.7255 1.48572 38.8394 1.75036 38.8124 2.05607C38.7841 2.37581 38.6034 2.6718 38.3503 2.86512C38.0914 3.06291 37.7511 3.16694 37.4261 3.11795C37.13 3.07331 36.8554 2.91943 36.6766 2.67774C36.52 2.46611 36.4504 2.2225 36.4094 1.96696C36.5256 2.07631 36.6201 2.20639 36.73 2.32207C36.924 2.52624 37.2204 2.61976 37.499 2.61919C37.7776 2.61863 38.0462 2.51912 38.2432 2.31941C38.5434 2.01511 38.5426 1.65005 38.5361 1.25279Z" fill="#EA4317"/>
<path d="M12.6595 19.4794C12.9056 19.4974 13.1481 19.5575 13.3943 19.569C13.8813 19.5918 14.3781 19.5583 14.8664 19.56C14.981 19.5604 15.1315 19.5491 15.2397 19.5859C15.2517 19.6353 15.2625 19.6833 15.2711 19.7334C15.2552 19.868 15.2605 20.0092 15.2578 20.1449C14.7115 20.1961 13.8891 20.2398 13.3638 20.0796C13.0318 19.9783 12.8214 19.779 12.6595 19.4794Z" fill="#F1194C"/>
<path d="M18.1485 45.638C18.2136 45.8932 18.3202 46.1169 18.5542 46.2575C18.7599 46.3811 19.0311 46.4116 19.2615 46.3478C19.5547 46.2666 19.7359 46.0711 19.9021 45.8296C19.9512 46.0872 19.9765 46.3554 19.8819 46.6068C19.7944 46.8393 19.6194 47.0133 19.3918 47.1108C19.142 47.2178 18.8636 47.2165 18.6146 47.1084C18.3616 46.9985 18.1562 46.7888 18.063 46.5282C17.9584 46.2356 18.017 45.9117 18.1485 45.638Z" fill="#AC254D"/>
<path d="M17.2938 26.4691L17.4219 26.3614C17.4721 26.3756 17.4533 26.3608 17.479 26.405L17.5155 26.569C17.5284 27.1817 17.5236 27.7949 17.5229 28.4078L17.5243 30.9216C17.5261 31.4901 17.5758 32.1092 17.4696 32.6701L17.2534 32.5305L17.2671 28.3823C17.2672 27.9953 17.2139 26.7759 17.2938 26.4691Z" fill="#FEFDFD"/>
<path d="M36.0507 32.3373L39.114 32.3376C39.0485 32.5184 38.9599 32.714 38.9254 32.9034C38.343 32.9051 37.7647 32.8861 37.1831 32.8594C36.8108 32.879 36.4412 32.9094 36.0679 32.903C36.0562 32.7139 36.0487 32.5269 36.0507 32.3373Z" fill="#FEFDFD"/>
<path d="M18.1485 45.638C18.2231 45.4424 18.3532 45.2649 18.5459 45.1722C18.7654 45.0665 19.029 45.0804 19.2531 45.1643C19.5524 45.2763 19.7596 45.4946 19.8835 45.7847C19.8898 45.7996 19.8959 45.8146 19.9021 45.8296C19.7359 46.0711 19.5547 46.2666 19.2615 46.3478C19.0311 46.4116 18.7599 46.3811 18.5542 46.2575C18.3202 46.1169 18.2136 45.8932 18.1485 45.638Z" fill="#F4D610"/>
<path d="M18.8883 45.1809C18.9266 45.184 18.9637 45.1892 19.0001 45.2029C19.0962 45.2387 19.1567 45.3255 19.1879 45.4198C19.2171 45.5086 19.2227 45.6458 19.171 45.7268C19.1495 45.7604 19.1293 45.7509 19.0936 45.7542L19.0591 45.7185C19.0811 45.6467 19.0999 45.6024 19.0824 45.5271L19.0084 45.4903C18.9242 45.5738 18.8726 45.6812 18.8146 45.7836C18.7207 45.7211 18.6313 45.6479 18.5409 45.5802C18.6374 45.4162 18.7366 45.2975 18.8883 45.1809Z" fill="#FEFDFD"/>
<path d="M33.1129 45.7094C33.2047 45.926 33.2378 46.1355 33.1823 46.3678C33.1172 46.6405 32.9262 46.8717 32.6887 47.0155C32.4366 47.1682 32.1379 47.2167 31.8522 47.1387C31.5727 47.0624 31.3292 46.8777 31.1958 46.6188C31.029 46.2953 31.0537 45.9676 31.1602 45.633C31.3115 45.9563 31.4741 46.2144 31.8337 46.3354C32.0839 46.4196 32.3686 46.3963 32.6024 46.2736C32.8522 46.1425 32.984 45.9515 33.1129 45.7094Z" fill="#AC254D"/>
<path d="M39.0786 12.4509C39.427 12.4832 39.7844 12.46 40.1339 12.453C40.1473 12.997 40.1403 13.5417 40.1384 14.0859L39.0944 14.0851C39.0951 13.5406 39.1038 12.9948 39.0786 12.4509Z" fill="#F4D610"/>
<path d="M31.1602 45.633C31.3599 45.3423 31.5965 45.1002 31.9602 45.035C32.2258 44.9874 32.503 45.0541 32.7206 45.2124C32.9021 45.3446 33.0176 45.5105 33.1129 45.7094C32.984 45.9515 32.8522 46.1425 32.6024 46.2736C32.3686 46.3963 32.0839 46.4196 31.8337 46.3354C31.4741 46.2144 31.3115 45.9563 31.1602 45.633Z" fill="#F4D610"/>
<path d="M31.867 45.1157C32.0216 45.1073 32.1849 45.09 32.3342 45.1391C32.4699 45.1838 32.5662 45.2399 32.6319 45.3681C32.632 45.4069 32.6409 45.4422 32.6176 45.4757C32.5626 45.5549 32.4493 45.5958 32.3593 45.6192C32.2953 45.5839 32.1688 45.4549 32.1083 45.4384C31.9519 45.3957 31.7979 45.5645 31.6154 45.4544C31.5965 45.3935 31.5944 45.4182 31.6112 45.3617C31.6522 45.2243 31.7457 45.1777 31.867 45.1157Z" fill="#FEFDFD"/>
<path d="M16.7124 19.13C16.9907 19.2604 17.239 19.4724 17.4991 19.6372C18.201 20.082 19.1613 20.4934 19.5248 21.2932C19.1489 20.9934 18.7213 20.7656 18.2669 20.6106C17.9631 21.3069 18.2771 21.2295 18.2961 21.754C18.2168 21.6505 18.1518 21.5329 18.0658 21.4358C17.8817 21.2278 17.6529 21.0585 17.4556 20.8631C17.0028 20.4148 16.8559 19.7275 16.7124 19.13Z" fill="#194D94"/>
<path d="M39.0944 14.0851L40.1384 14.0859C40.1505 14.6459 40.2238 15.3104 40.1205 15.859C40.1143 15.872 40.1078 15.8849 40.1018 15.898C40.0777 15.9512 40.0621 16.0016 40.0456 16.0574C39.9132 16.1458 39.4266 16.124 39.2739 16.0896C39.2173 16.0769 39.1614 16.047 39.111 16.0191C39.0843 15.3712 39.0844 14.7332 39.0944 14.0851Z" fill="#EA4317"/>
<path d="M39.111 16.0191C39.1614 16.047 39.2173 16.0769 39.2739 16.0896C39.4266 16.124 39.9132 16.1458 40.0456 16.0574C40.0621 16.0016 40.0777 15.9512 40.1018 15.898C40.1078 15.8849 40.1143 15.872 40.1205 15.859C40.1728 16.3331 40.2511 17.6085 39.9633 17.9655C39.7523 18.2272 39.4056 18.2468 39.0968 18.275C39.0949 17.523 39.0911 16.7709 39.111 16.0191Z" fill="#F1194C"/>
<path d="M36.0793 28.6071L40.3298 28.6073C40.2782 28.7835 40.2228 28.9573 40.1627 29.1308C38.804 29.1056 37.4412 29.1264 36.0821 29.1268L36.0793 28.6071Z" fill="#FEFDFD"/>
<path d="M10.9242 28.6481L15.0907 28.6361C15.0864 28.8153 15.0852 28.9949 15.0703 29.1736L11.1153 29.1759C11.0489 29.0007 10.9837 28.8257 10.9242 28.6481Z" fill="#FEFDFD"/>
<path d="M13.0954 9.39488L13.0799 6.1445C13.0801 5.69203 13.0376 5.19394 13.1046 4.74853C13.1312 5.47016 13.108 6.19744 13.1123 6.91986C13.3547 6.76316 13.6294 6.49626 13.8998 6.40765L13.9012 9.39432L13.0954 9.39488Z" fill="#AC254D"/>
<path d="M37.9466 0.791226C38.2045 0.893339 38.3859 1.01251 38.5361 1.25279C38.5426 1.65005 38.5434 2.01511 38.2432 2.31941C38.0462 2.51912 37.7776 2.61863 37.499 2.61919C37.2204 2.61976 36.924 2.52624 36.73 2.32207C36.6201 2.20639 36.5256 2.07631 36.4094 1.96696C36.3945 1.88564 36.402 1.79614 36.4027 1.71324C36.6812 1.70233 36.9099 1.68267 37.1689 1.56456C37.5266 1.40153 37.804 1.16391 37.9466 0.791226Z" fill="#F4D610"/>
<path d="M12.5782 18.149L12.593 18.1511C12.6175 18.2821 12.6993 18.3812 12.8094 18.4551C13.2124 18.726 14.7705 18.7328 15.261 18.6274C15.2685 18.9802 15.3124 19.3853 15.2711 19.7334C15.2625 19.6833 15.2517 19.6353 15.2397 19.5859C15.1315 19.5491 14.981 19.5604 14.8664 19.56C14.3781 19.5583 13.8813 19.5918 13.3943 19.569C13.1481 19.5575 12.9056 19.4974 12.6595 19.4794C12.4806 19.094 12.5625 18.5635 12.5782 18.149Z" fill="#AC254D"/>
<path d="M10.9774 13.7264C10.9574 13.1589 10.8633 12.3775 11.295 11.9312C11.5031 11.7161 11.7535 11.6531 12.0348 11.5946L12.0335 14.5578C12.0192 14.5555 12.0048 14.5534 11.9905 14.5508C11.4979 14.4599 11.2386 14.116 10.9774 13.7264Z" fill="#F4EB23"/>
<path d="M32.0405 20.4728C32.0961 20.3861 32.1541 20.3189 32.2344 20.254C32.6057 19.9537 33.0497 19.7252 33.4539 19.4713C33.922 19.1772 34.3773 18.8565 34.8324 18.5425C34.8352 19.0543 34.7818 19.6271 34.8521 20.1316C34.6666 20.4936 34.4658 20.8164 34.2206 21.1425C34.1834 21.077 34.1548 21.01 34.1245 20.9413C34.0003 20.6598 33.8725 20.475 33.5699 20.3661C33.1017 20.1977 32.4835 20.2631 32.0405 20.4728Z" fill="#194D94"/>
<path d="M29.1145 33.3977C29.1285 33.9785 29.1229 34.5594 29.136 35.1399C28.6845 35.4128 28.2353 35.6941 27.7736 35.9492C27.1016 36.3204 26.413 36.66 25.739 37.0264C25.8032 36.7253 25.7454 36.422 25.7995 36.1245C26.4792 36.0426 27.0871 35.8284 27.6205 35.3854C28.1075 34.981 28.5227 34.3125 28.5845 33.674C28.7544 33.5707 28.9365 33.4862 29.1145 33.3977Z" fill="#095161"/>
<path d="M37.9959 35.7124C38.0679 35.7784 38.1313 35.8409 38.1901 35.919C37.9296 36.4607 37.5546 36.9241 37.1745 37.3856C35.8008 39.0535 34.1705 40.4987 32.3862 41.7152C32.0052 41.975 31.6139 42.2218 31.2172 42.457C30.9184 42.6342 30.5788 42.7995 30.3124 43.0211C30.1102 43.1892 30.0582 43.4941 29.8789 43.6538C29.9249 43.3954 29.9873 43.1378 30.0416 42.8808C30.4442 42.588 30.9111 42.3644 31.3282 42.0879C33.3238 40.8842 35.962 38.6751 37.2596 36.7481C37.4718 36.5929 37.8383 35.9494 37.9959 35.7124Z" fill="#FEFDFD"/>
<path d="M10.9774 13.7264C11.2386 14.116 11.4979 14.4599 11.9905 14.5508C12.0048 14.5534 12.0192 14.5555 12.0335 14.5578C12.0524 15.1626 12.0419 15.7657 12.0385 16.3705C12.0366 16.6963 12.0553 17.0287 12.0377 17.3534C12.0193 17.5185 12.0321 17.6882 12.0364 17.8541C11.629 17.6634 11.3369 17.4238 11.0028 17.1289C10.8975 16.657 10.9707 16.1077 10.9729 15.6246C10.9758 14.9914 10.9663 14.36 10.9774 13.7264Z" fill="#D23221"/>
<path d="M36.0821 29.1268C37.4412 29.1264 38.804 29.1056 40.1627 29.1308C40.0449 29.4251 39.9379 29.7208 39.8364 30.0211L36.1078 30.0246C36.1031 29.725 36.0947 29.4261 36.0821 29.1268Z" fill="#1080AA"/>
<path d="M29.0973 28.5162C29.1339 29.1114 29.1247 29.7128 29.1192 30.3089C28.1792 31.1731 26.9449 31.5307 25.6977 31.6054C25.695 31.461 25.7078 31.2974 25.7501 31.1591C26.4548 31.0657 27.0553 30.8478 27.5847 30.3556C27.9859 29.9826 28.2639 29.5159 28.2832 28.9603C28.555 28.8191 28.838 28.6791 29.0973 28.5162Z" fill="#095161"/>
<path d="M44.7577 33.0499C46.8549 33.861 48.6309 35.7192 49.5258 37.7565C49.9493 38.7206 50.0418 39.5603 50.1798 40.5848C50.1756 40.6673 50.1825 40.774 50.1486 40.8484C50.1269 40.7754 50.1159 40.7144 50.1103 40.6385C50.0854 40.4648 50.0585 40.2918 50.0227 40.12C49.6319 38.244 48.508 36.3825 47.0917 35.0977C46.6276 34.6766 46.1322 34.3263 45.6102 33.9818C45.2871 33.7826 44.9432 33.6265 44.629 33.4117L44.7577 33.0499Z" fill="#FEFDFD"/>
<path d="M28.5845 33.674C28.5227 34.3125 28.1075 34.981 27.6205 35.3854C27.0871 35.8284 26.4792 36.0426 25.7995 36.1245L25.7826 36.1185C25.7885 35.6206 25.7809 35.1219 25.7791 34.624C26.2449 34.5961 26.7726 34.4888 27.2 34.2983C27.304 34.2519 27.4601 34.1888 27.502 34.0779C27.8572 34.0123 28.2377 33.7965 28.5845 33.674Z" fill="#1080AA"/>
<path d="M6.29274 33.1031L6.4179 33.4322C6.29738 33.5062 6.17602 33.5774 6.0529 33.647C3.58856 35.1308 1.70695 37.2737 0.995236 40.108C0.955986 40.2643 0.920709 40.4272 0.951024 40.5878C0.93263 40.6345 0.91698 40.6881 0.892334 40.7316C0.86672 39.9014 1.11308 38.979 1.39138 38.2017C2.03293 36.4099 3.2407 34.8637 4.85685 33.8482C5.31606 33.5597 5.80327 33.334 6.29274 33.1031Z" fill="#FEFDFD"/>
<path d="M28.2832 28.9603C28.2639 29.5159 27.9859 29.9826 27.5847 30.3556C27.0553 30.8478 26.4548 31.0657 25.7501 31.1591C25.6579 31.1568 25.5693 31.1566 25.479 31.1353C25.5738 30.9451 25.5029 29.8385 25.4986 29.5684L25.7283 29.5403C26.6212 29.5623 27.4658 29.2918 28.2832 28.9603Z" fill="#1080AA"/>
<path d="M25.4986 29.5684L25.7283 29.5403C25.8099 29.8996 25.8637 30.8166 25.7501 31.1591C25.6579 31.1568 25.5693 31.1566 25.479 31.1353C25.5738 30.9451 25.5029 29.8385 25.4986 29.5684Z" fill="#0FB39C"/>
<path d="M22.6595 28.8998C23.5903 29.2932 24.4775 29.5652 25.4986 29.5684C25.5029 29.8385 25.5738 30.9451 25.479 31.1353C24.7554 31.0828 24.0924 30.9548 23.5228 30.476C23.0642 30.0904 22.7146 29.501 22.6595 28.8998Z" fill="#2AD4E2"/>
<path d="M15.7386 25.0512C16.0054 24.8522 17.48 24.014 17.7437 23.98C17.8293 23.969 17.8738 24.0301 17.9348 24.0797L16.1162 25.0837C16.1781 25.599 16.1439 26.0962 16.1376 26.6124L16.1282 28.553L16.1287 31.7142C16.1295 32.3357 16.1523 32.9617 16.1159 33.5823L15.7671 33.409L15.7386 25.0512Z" fill="#FEFDFD"/>
<path d="M21.8218 28.4772L22.6595 28.8998C22.7146 29.501 23.0642 30.0904 23.5228 30.476C24.0924 30.9548 24.7554 31.0828 25.479 31.1353C25.5693 31.1566 25.6579 31.1568 25.7501 31.1591C25.7078 31.2974 25.695 31.461 25.6977 31.6054C24.5958 31.5546 23.5442 31.433 22.5817 30.8463C22.325 30.6898 22.1044 30.495 21.8556 30.3316L21.832 30.3163C21.8448 29.7048 21.8223 29.0895 21.8218 28.4772Z" fill="#1080AA"/>
<path d="M22.7525 33.8136C23.0604 33.9367 23.3694 34.0448 23.6889 34.1343C24.0642 34.4504 24.6619 34.5168 25.1312 34.5885C25.245 34.6059 25.3977 34.6073 25.5035 34.6486C25.5953 34.6316 25.6861 34.6282 25.7791 34.624C25.7809 35.1219 25.7885 35.6206 25.7826 36.1185C25.6518 36.1229 25.5229 36.1318 25.3932 36.1117C25.1247 36.0782 24.8501 36.0137 24.5945 35.9254C23.912 35.6897 23.2614 35.2076 22.9454 34.5434C22.8635 34.3712 22.6875 33.9924 22.7525 33.8136Z" fill="#2AD4E2"/>
<path d="M25.5035 34.6486C25.5953 34.6316 25.6861 34.6282 25.7791 34.624C25.7809 35.1219 25.7885 35.6206 25.7826 36.1185C25.6518 36.1229 25.5229 36.1318 25.3932 36.1117L25.4678 36.0912C25.5577 35.9391 25.4992 34.9069 25.5035 34.6486Z" fill="#0FB39C"/>
<path d="M33.5002 28.6395L33.5284 28.6315C33.5445 29.4188 33.5655 30.2047 33.5671 30.9923C33.5682 31.5431 33.5175 32.133 33.6013 32.6783C32.9613 33.0334 32.3125 33.3771 31.6812 33.7471C31.6512 33.3981 31.9329 32.9183 32.063 32.5959L32.7615 30.8271C33.0183 30.1839 33.4599 29.3292 33.5002 28.6395Z" fill="#F4D610"/>
<path d="M32.9933 24.0768L33.2727 23.7763C33.9647 24.2301 34.648 24.7 35.3443 25.1467C35.3457 27.8954 35.317 30.6475 35.3476 33.3958L35.0003 33.571C34.9326 32.5446 34.9868 31.4982 34.9934 30.4697L35.0016 25.4414C34.3143 25.0501 33.6292 24.5471 32.9933 24.0768Z" fill="#FEFDFD"/>
<path d="M21.8525 33.3971C22.1484 33.5479 22.4395 33.7004 22.7525 33.8136C22.6875 33.9924 22.8635 34.3712 22.9454 34.5434C23.2614 35.2076 23.912 35.6897 24.5945 35.9254C24.8501 36.0137 25.1247 36.0782 25.3932 36.1117C25.5229 36.1318 25.6518 36.1229 25.7826 36.1185L25.7995 36.1245C25.7454 36.422 25.8032 36.7253 25.739 37.0264C25.6942 37.0569 25.6499 37.076 25.5999 37.0966C25.3866 37.058 25.133 36.8747 24.9359 36.7776C24.3129 36.4708 23.6849 36.1717 23.0796 35.8304C22.6609 35.5942 22.2647 35.3239 21.849 35.0843L21.8525 33.3971Z" fill="#1080AA"/>
<path d="M13.3753 36.2568L13.405 36.2883C13.7226 36.6281 13.9731 37.0278 14.2779 37.3799C14.7159 37.8861 15.2391 38.4782 15.7165 38.9386C16.1161 39.324 16.5516 39.6831 16.974 40.0434C18.2149 41.135 19.5325 42.065 21.0158 42.7986C21.1094 43.2813 21.2027 43.7634 21.3132 44.2426C21.4229 44.9299 21.6786 45.6638 21.9245 46.3137C22.0343 46.6042 22.1688 46.8949 22.2619 47.1906L22.2414 47.2039C22.1271 47.1367 22.0195 46.8254 21.9628 46.6992C21.4187 45.486 21.0617 44.2622 20.7245 42.9799C20.3714 42.7221 19.9784 42.518 19.604 42.2928C19.2715 42.0928 18.95 41.8713 18.6284 41.6544C17.6127 40.9694 16.6795 40.1669 15.7734 39.3457C15.646 39.1668 15.4468 39.0031 15.2885 38.8476C14.9697 38.5346 14.6464 38.2236 14.3381 37.9003C13.9484 37.4918 13.6182 37.0331 13.234 36.6216C12.4542 37.1033 11.653 37.6512 10.8177 38.0286C10.7823 37.9491 10.7571 37.9225 10.7754 37.8357C11.0559 37.6086 11.4107 37.4359 11.7215 37.2521C12.2751 36.9246 12.8277 36.5942 13.3753 36.2568Z" fill="#FEFDFD"/>
<path d="M36.1834 10.0209C36.7012 9.98304 37.8002 9.86149 38.2116 10.1727C38.4093 10.3224 38.4711 10.513 38.5043 10.7485C38.5142 10.9457 38.5161 11.1413 38.5138 11.3388L38.5141 12.0521L36.3926 12.0487C36.3749 11.8114 36.3675 11.5733 36.3576 11.3355C36.3206 11.1524 36.3187 10.9497 36.303 10.7629C36.2663 10.515 36.2263 10.2679 36.1834 10.0209Z" fill="#FEFDFD"/>
<path d="M36.303 10.7629C36.5626 10.7873 36.8502 10.7405 37.114 10.7376C37.5769 10.7325 38.0408 10.7517 38.5043 10.7485C38.5142 10.9457 38.5161 11.1413 38.5138 11.3388C37.7949 11.304 37.0767 11.3201 36.3576 11.3355C36.3206 11.1524 36.3187 10.9497 36.303 10.7629Z" fill="#EE9011"/>
<path d="M36.3576 11.3355C37.0767 11.3201 37.7949 11.304 38.5138 11.3388L38.5141 12.0521L36.3926 12.0487C36.3749 11.8114 36.3675 11.5733 36.3576 11.3355Z" fill="#FEFDFD"/>
<path d="M12.5701 10.4016C12.7509 10.1581 12.9801 10.0581 13.276 10.0147C13.7838 9.94014 14.3394 9.9993 14.852 10.0177C14.8041 10.6861 14.7689 11.3522 14.7497 12.0221C14.4046 12.0177 14.0594 12.0465 13.7142 12.05C13.3327 12.0539 12.9522 12.0308 12.571 12.0201L12.5701 10.4016Z" fill="#FEFDFD"/>
<path d="M13.6417 10.7918C13.8734 10.7846 14.1267 10.7713 14.3439 10.8625C14.4479 10.9063 14.5142 10.9556 14.5584 11.0614C14.5481 11.105 14.5548 11.1053 14.5296 11.1333C14.3761 11.3039 14.076 11.2788 13.8688 11.2856C13.7151 11.2895 13.5513 11.297 13.3995 11.27C13.243 11.2423 13.1164 11.1866 13.0255 11.055C13.0202 10.9961 13.0111 10.9789 13.0552 10.9328C13.1994 10.7818 13.4515 10.7969 13.6417 10.7918Z" fill="#F77E43"/>
<path d="M7.96231 30.9729C8.74775 30.1972 9.45546 29.3144 10.1935 28.4916C10.4207 29.1458 10.6999 29.7859 10.9487 30.4327C11.4145 31.644 11.8718 32.86 12.3836 34.0529C12.5851 34.5228 12.7764 35.0003 12.9846 35.4668C13.0407 35.5924 13.1247 35.7052 13.1767 35.8324C13.2073 35.9071 13.2149 35.9706 13.2121 36.0505C13.1848 36.093 13.173 36.1073 13.1308 36.1386C12.687 35.5884 12.1426 34.3122 11.836 33.6425C11.179 32.2078 10.5472 30.767 9.92552 29.3168C9.35146 29.9974 8.7993 30.9243 8.14546 31.5198L7.96231 30.9729Z" fill="#FEFDFD"/>
<path d="M35.74 18.3222C36.6643 18.3229 37.5915 18.3074 38.5154 18.3253C38.5192 18.3904 38.522 18.4555 38.5239 18.5206C38.5357 18.9224 38.568 19.4552 38.2591 19.7643C38.1425 19.881 38.0006 19.9404 37.8408 19.9726C37.41 20.0593 36.2545 19.9746 35.7406 19.9736L35.74 18.3222Z" fill="#AC254D"/>
<path d="M10.817 43.7754C11.0562 44.056 11.2332 44.4374 11.4168 44.7567C11.7098 45.2662 12.008 45.7772 12.3294 46.2695C12.8018 46.993 13.2851 47.7078 13.8 48.402C13.9976 48.6684 14.2647 48.9369 14.4382 49.1905C14.4599 49.2222 14.4576 49.2444 14.4626 49.2817L14.4451 49.3162C13.8879 49.3254 13.3292 49.3126 12.7714 49.3195C12.3963 48.4594 12.0912 47.4685 11.7661 46.578C11.4506 45.7135 10.9197 44.6804 10.817 43.7754Z" fill="#665CAA"/>
<path d="M37.1535 3.74193L37.9939 3.74363C37.9427 5.61223 37.9748 7.48779 37.9745 9.35719C37.7108 9.38194 37.4376 9.36651 37.1726 9.36493L37.1535 3.74193Z" fill="#F1194C"/>
<path d="M38.0404 35.6592C38.754 34.2385 39.3412 32.7899 39.8841 31.2969L40.4982 29.6062C40.6234 29.2633 40.7352 28.8878 40.9122 28.5691C41.644 29.2959 42.2812 30.1001 42.9728 30.8621C42.9161 31.0933 42.8434 31.3224 42.7779 31.5514C42.1626 30.9335 41.5626 30.2713 41.0394 29.5731C40.8344 30.0467 40.6611 30.5356 40.467 31.0141C39.9856 32.2008 39.4853 33.3996 38.9206 34.549C38.7097 34.9782 38.5105 35.4492 38.2217 35.8311L38.0404 35.6592Z" fill="#FEFDFD"/>
<path d="M12.8449 0.979002C13.0829 0.791051 13.3531 0.698867 13.6586 0.735073C13.9683 0.771781 14.2564 0.935886 14.449 1.18046C14.4697 1.20668 14.485 1.23324 14.501 1.2624C14.6528 1.50567 14.7506 1.78104 14.7351 2.07117C14.7193 2.36671 14.5813 2.63609 14.361 2.83229C14.0982 3.0663 13.7387 3.18085 13.3888 3.15338C13.0831 3.12937 12.7908 2.99645 12.591 2.76103C12.3831 2.51618 12.269 2.15655 12.3005 1.83659C12.338 1.45408 12.561 1.20979 12.8449 0.979002Z" fill="#EA4317"/>
<path d="M12.8449 0.979002C13.0829 0.791051 13.3531 0.698867 13.6586 0.735073C13.9683 0.771781 14.2564 0.935886 14.449 1.18046C14.4697 1.20668 14.485 1.23324 14.501 1.2624C14.4997 1.33027 14.4999 1.40102 14.489 1.46821C14.4455 1.73798 14.3173 2.00115 14.0911 2.16305C13.8775 2.31591 13.5969 2.36524 13.3414 2.30981C13.1324 2.26448 12.9477 2.14451 12.8402 1.95752C12.6619 1.64768 12.7497 1.29851 12.8449 0.979002Z" fill="#F4EB23"/>
<path d="M18.2669 20.6106C18.7213 20.7656 19.1489 20.9934 19.5248 21.2932C19.7281 21.6268 19.8737 21.9953 20.0382 22.3492C20.3948 23.1163 20.7377 23.8929 21.0707 24.6707C21.0695 24.7507 21.0913 24.8102 21.0385 24.8742C20.7339 24.7155 20.4958 24.2369 20.1297 24.0641C20.005 23.9825 19.7203 23.6481 19.5792 23.5212C19.0132 23.0119 18.372 22.5602 17.8568 21.9997C17.9196 22.0007 17.9891 22.005 18.0504 21.9895C18.1766 21.9576 18.2346 21.8573 18.2961 21.754C18.2771 21.2295 17.9631 21.3069 18.2669 20.6106Z" fill="#665CAA"/>
<path d="M28.9107 26.2722C28.976 26.2602 29.0203 26.2554 29.0857 26.2682L29.1158 26.3283C29.1124 26.5048 29.006 26.6631 28.9233 26.8143C27.5356 27.3406 25.9501 27.1969 24.4922 27.1971C24.0667 27.1971 23.4295 27.242 23.0229 27.1948C22.9212 27.1831 22.916 27.1461 22.8601 27.0693C22.7119 26.8494 22.5707 26.6245 22.4268 26.4018C23.4736 26.4293 24.519 26.4331 25.5661 26.4331C26.697 26.4331 27.7889 26.4373 28.9107 26.2722Z" fill="#194D94"/>
<path d="M28.35 48.2052C28.6141 48.239 28.8784 48.2735 29.1439 48.2952C30.3854 48.3966 31.5848 48.2124 32.6277 47.4953C32.9339 47.2847 33.2155 47.0251 33.499 46.785C33.3529 47.7403 32.6914 48.2274 31.9545 48.7683C31.7362 48.9284 31.4477 49.0669 31.2646 49.2609L31.2743 49.2968C31.0444 49.3601 30.1855 49.3047 29.8877 49.304C29.2282 49.3023 28.5685 49.3151 27.9089 49.3193C28.0483 48.9455 28.2024 48.576 28.35 48.2052Z" fill="#4E1D6D"/>
<path d="M16.0095 19.5157C16.0973 19.4456 16.2193 19.3335 16.3358 19.3216C16.3801 19.3171 16.4286 19.3229 16.464 19.3506C16.5973 19.4547 16.6232 19.6949 16.6489 19.8512C16.8313 20.7612 17.0979 21.429 17.8568 21.9997C18.372 22.5602 19.0132 23.0119 19.5792 23.5212C19.7203 23.6481 20.005 23.9825 20.1297 24.0641C20.3553 24.3823 20.6826 24.6124 20.9401 24.9031L20.7001 25.177C20.4565 24.9588 19.9839 24.5404 19.6832 24.4471C19.3471 24.3097 18.7461 23.8202 18.4445 23.5825C17.4201 22.7752 16.1875 21.6123 16.027 20.2493C16.0783 20.0277 16.0094 19.7485 16.0095 19.5157Z" fill="#8378BD"/>
<path d="M36.1078 30.0246L39.8364 30.0211C39.6162 30.533 39.4518 31.0729 39.2745 31.6008C38.827 31.6095 38.3801 31.5904 37.9328 31.5893L36.1082 31.6027L36.1078 30.0246Z" fill="#095161"/>
<path d="M16.258 45.6993C16.2662 45.7049 16.2744 45.7103 16.2825 45.716C16.4933 45.8645 16.6731 46.0686 16.8586 46.2476C17.0397 46.4224 17.2321 46.5861 17.4231 46.75C18.8741 47.9949 20.3698 48.5711 22.2987 48.2551C22.3991 48.2386 22.603 48.1568 22.6858 48.2163C22.8317 48.3212 23.1335 49.1023 23.1895 49.2989L20.5046 49.3065C19.9034 49.3122 19.2725 49.3552 18.6734 49.3053C19.0739 49.263 19.5011 49.2912 19.9047 49.2911C19.6151 49.0568 19.2952 48.8486 18.9921 48.631C18.1757 48.0448 17.3641 47.4122 16.7607 46.5988C16.5558 46.3225 16.3608 46.0302 16.258 45.6993Z" fill="#4E1D6D"/>
<path d="M12.571 12.0201C12.9522 12.0308 13.3327 12.0539 13.7142 12.05C14.0594 12.0465 14.4046 12.0177 14.7497 12.0221L14.7327 14.6499L12.5706 14.6508L12.571 12.0201Z" fill="#EE9011"/>
<path d="M6.4179 33.4322C6.86975 34.5073 7.29789 35.5875 7.77706 36.6512C8.08825 37.3421 8.44035 38.013 8.75907 38.7002C8.30858 38.7829 7.73672 39.3259 7.29172 39.5348C7.04362 37.5502 6.40319 35.6159 6.0529 33.647C6.17602 33.5774 6.29738 33.5062 6.4179 33.4322Z" fill="#0C7061"/>
<path d="M36.278 15.64C36.9454 16.1157 37.7432 15.9324 38.5133 15.9194C38.5135 16.7208 38.5018 17.5241 38.5154 18.3253C37.5915 18.3074 36.6643 18.3229 35.74 18.3222C35.7241 18.0894 35.705 17.8488 35.7486 17.6181C35.8007 17.3418 35.9318 17.094 36.0338 16.8341C36.1818 16.4564 36.2615 16.0448 36.278 15.64Z" fill="#F1194C"/>
<path d="M28.5164 31.2477C28.7219 31.1274 28.9324 31.0117 29.1262 30.8731L29.1324 32.8631C28.0815 33.5256 26.8885 34.0146 25.6239 34.0048C25.6612 33.9915 25.6827 33.9766 25.7145 33.954C25.7666 33.8277 25.7749 33.7078 25.7873 33.5736L25.7895 33.5532C25.7851 33.1183 25.7893 32.6812 25.7642 32.247C26.2218 32.2452 26.8397 32.1264 27.2411 31.898C27.3175 31.8545 27.4237 31.7942 27.4482 31.705C27.7974 31.6195 28.1848 31.3966 28.5164 31.2477Z" fill="#095161"/>
<path d="M28.5164 31.2477C28.3601 32.0233 28.0649 32.6196 27.3873 33.0658C26.9141 33.3774 26.3577 33.5608 25.7895 33.5532C25.7851 33.1183 25.7893 32.6812 25.7642 32.247C26.2218 32.2452 26.8397 32.1264 27.2411 31.898C27.3175 31.8545 27.4237 31.7942 27.4482 31.705C27.7974 31.6195 28.1848 31.3966 28.5164 31.2477Z" fill="#1080AA"/>
<path d="M21.8327 30.8852C22.1271 31.0658 22.4129 31.2431 22.7291 31.3848C23.0887 31.526 23.4827 31.6152 23.8327 31.7683C24.2828 32.0969 24.9624 32.2171 25.5084 32.2418L25.7642 32.247C25.7893 32.6812 25.7851 33.1183 25.7895 33.5532L25.7873 33.5736C25.7749 33.7078 25.7666 33.8277 25.7145 33.954C25.6827 33.9766 25.6612 33.9915 25.6239 34.0048C24.244 33.9892 22.9594 33.6505 21.8489 32.8019C21.8525 32.1627 21.8436 31.5242 21.8327 30.8852Z" fill="#1080AA"/>
<path d="M22.7291 31.3848C23.0887 31.526 23.4827 31.6152 23.8327 31.7683C24.2828 32.0969 24.9624 32.2171 25.5084 32.2418L25.7642 32.247C25.7893 32.6812 25.7851 33.1183 25.7895 33.5532L25.7873 33.5736C25.6925 33.5747 25.601 33.5684 25.5065 33.5595C24.8119 33.5236 24.1557 33.4022 23.5873 32.9744C23.0716 32.5863 22.821 32.0103 22.7291 31.3848Z" fill="#2AD4E2"/>
<path d="M25.5084 32.2418L25.7642 32.247C25.7893 32.6812 25.7851 33.1183 25.7895 33.5532L25.7873 33.5736C25.6925 33.5747 25.601 33.5684 25.5065 33.5595C25.5207 33.1209 25.5109 32.6806 25.5084 32.2418Z" fill="#0FB39C"/>
<path d="M42.1947 39.088C43.1884 37.301 44.0618 35.3807 44.629 33.4117C44.9432 33.6265 45.2871 33.7826 45.6102 33.9818C44.922 35.8729 44.2209 37.7145 43.945 39.7201L43.9412 39.7375C43.352 39.521 42.7641 39.3618 42.1947 39.088Z" fill="#0C7061"/>
<path d="M32.0405 20.4728C32.4835 20.2631 33.1017 20.1977 33.5699 20.3661C33.8725 20.475 34.0003 20.6598 34.1245 20.9413C34.1548 21.01 34.1834 21.077 34.2206 21.1425C33.5891 21.9608 32.898 22.7112 32.1642 23.4371C31.8526 23.7171 31.5372 23.9938 31.2592 24.3078C31.0239 24.5455 30.2278 25.2315 30.2008 25.5272C30.2 25.5357 30.2009 25.5444 30.201 25.5529C30.1071 25.655 29.9972 25.742 29.8919 25.8321C30.4403 24.5246 30.8973 23.1734 31.4316 21.8589C31.6173 21.4021 31.7711 20.8877 32.0405 20.4728Z" fill="#665CAA"/>
<path d="M8.00384 31.7934C8.1475 32.2922 8.36453 32.7859 8.5534 33.2696C8.91268 34.19 9.28311 35.1062 9.68364 36.0094C9.93854 36.5841 10.2253 37.1523 10.4694 37.7302C10.1259 37.9412 9.78645 38.1551 9.4644 38.3985C8.83681 37.2347 8.29008 36.0143 7.77701 34.796C7.53213 34.2144 7.27695 33.6313 7.06529 33.0366C7.36262 32.6111 7.68162 32.2002 8.00384 31.7934Z" fill="#665CAA"/>
<path d="M29.5739 27.0644C29.9306 26.7177 31.6089 25.2573 31.9185 25.11C32.5643 25.5443 33.2503 25.9512 33.8407 26.4591C33.8427 26.6876 33.8495 26.9162 33.8215 27.1434L33.8169 26.535C33.7146 26.5794 33.6247 26.6268 33.5324 26.6896C32.6079 27.2402 31.6989 27.841 30.7969 28.4285C30.4044 28.6843 29.9943 29.0199 29.5739 29.2204L29.5739 27.0644Z" fill="#7E1413"/>
<path d="M36.3926 12.0487L38.5141 12.0521C38.5142 12.9692 38.5392 13.8936 38.5086 14.8098L38.5133 15.9194C37.7432 15.9324 36.9454 16.1157 36.278 15.64C36.2906 15.4917 36.3027 15.3436 36.321 15.1959C36.4323 14.1684 36.4241 13.0806 36.3926 12.0487Z" fill="#EE9011"/>
<path d="M38.4138 15.2328C38.4409 15.0911 38.4764 14.9504 38.5086 14.8098L38.5133 15.9194C37.7432 15.9324 36.9454 16.1157 36.278 15.64C36.2906 15.4917 36.3027 15.3436 36.321 15.1959C36.3598 15.223 36.3987 15.2418 36.447 15.2422C36.631 15.2435 36.8343 15.1942 37.0202 15.1803C37.4867 15.1453 37.9515 15.1605 38.4138 15.2328Z" fill="#EA4317"/>
<path d="M42.9085 31.742C43.2619 32.0476 43.7132 32.7182 44.0862 32.9047C43.8969 33.471 43.7182 34.0443 43.5012 34.6006C43.0439 35.772 42.4958 36.8951 41.9379 38.0208C41.5001 37.9307 41.08 37.8135 40.6519 37.6854C41.3523 36.2022 41.9719 34.6604 42.4962 33.1065C42.644 32.6684 42.832 32.1993 42.9085 31.742Z" fill="#665CAA"/>
<path d="M21.8431 26.8863C22.1701 27.0134 22.3912 27.3416 22.698 27.5098C22.8279 27.5811 22.9594 27.6098 23.105 27.6272C23.7762 27.7075 24.4824 27.6667 25.1574 27.666C26.0127 27.6652 26.8784 27.7021 27.7298 27.6042C28.1937 27.5509 28.6431 27.4191 29.0927 27.2983L29.0945 28.0765L28.6522 28.3328C28.3394 28.4807 28.0121 28.6189 27.6856 28.7331C26.2815 29.2242 24.7446 29.2403 23.3441 28.73C22.8282 28.542 22.3461 28.2883 21.8531 28.0495C21.8396 27.6621 21.835 27.2739 21.8431 26.8863Z" fill="#4E1D6D"/>
<path d="M11.1153 29.1759L15.0703 29.1736C15.0397 29.9995 15.0602 30.8318 15.061 31.6585L12.027 31.6591C11.8795 31.3417 11.7732 30.9909 11.6525 30.6621C11.4713 30.1681 11.2797 29.6756 11.1153 29.1759Z" fill="#4E1D6D"/>
<path d="M17.4744 25.9207C18.0318 25.5722 18.6387 25.3666 19.2067 25.0507C19.9664 25.4992 20.6682 26.0742 21.3877 26.5852C21.3794 27.52 21.4022 28.4578 21.3691 29.3919C21.1611 29.3327 19.0784 27.6923 18.6974 27.4131C18.3083 27.128 17.8909 26.8706 17.5155 26.569L17.479 26.405C17.5097 26.23 17.503 26.0947 17.4744 25.9207Z" fill="#7E1413"/>
<path d="M12.5706 14.6508L14.7327 14.6499C14.7301 15.6195 14.7348 16.6243 15.2873 17.465C15.2824 17.771 15.2836 18.0784 15.2629 18.3837C15.2655 18.4653 15.2697 18.5459 15.261 18.6274C14.7705 18.7328 13.2124 18.726 12.8094 18.4551C12.6993 18.3812 12.6175 18.2821 12.593 18.1511L12.5782 18.149C12.55 17.7595 12.5715 17.3533 12.5713 16.962L12.5706 14.6508Z" fill="url(#paint0_linear_42_39917)"/>
<path d="M12.593 18.1511C12.6228 18.1332 12.6496 18.1087 12.6824 18.0972C12.7636 18.0688 13.0384 18.124 13.1404 18.1301C13.4786 18.1501 14.8158 18.2131 15.0499 18.1423C15.1174 18.1218 15.1768 18.0939 15.2463 18.1196C15.2485 18.2079 15.2476 18.2964 15.2629 18.3837C15.2655 18.4653 15.2697 18.5459 15.261 18.6274C14.7705 18.7328 13.2124 18.726 12.8094 18.4551C12.6993 18.3812 12.6175 18.2821 12.593 18.1511Z" fill="#F1194C"/>
<path d="M17.5229 28.4078C18.36 28.8303 19.1756 29.6684 19.9532 30.2213C19.9606 31.5049 19.9948 32.8015 19.9512 34.0842C19.1296 33.6139 18.2615 33.1868 17.4696 32.6701C17.5758 32.1092 17.5261 31.4901 17.5243 30.9216L17.5229 28.4078Z" fill="#EE9011"/>
<path d="M10.7797 42.2367C11.2331 42.8321 11.6255 43.4732 12.0804 44.07C13.5145 45.9517 15.3723 47.911 17.3059 49.2831C16.6343 49.3042 15.9638 49.3043 15.292 49.3062C15.0108 49.307 14.7257 49.3254 14.4451 49.3162L14.4626 49.2817C14.4576 49.2444 14.4599 49.2222 14.4382 49.1905C14.2647 48.9369 13.9976 48.6684 13.8 48.402C13.2851 47.7078 12.8018 46.993 12.3294 46.2695C12.008 45.7772 11.7098 45.2662 11.4168 44.7567C11.2332 44.4374 11.0562 44.056 10.817 43.7754C10.7421 43.2541 10.7818 42.759 10.7797 42.2367Z" fill="#4E1D6D"/>
<path d="M17.5155 26.569C17.8909 26.8706 18.3083 27.128 18.6974 27.4131C19.0784 27.6923 21.1611 29.3327 21.3691 29.3919L21.3683 34.8871C20.8987 34.6218 20.4061 34.3718 19.9512 34.0842C19.9948 32.8015 19.9606 31.5049 19.9532 30.2213C19.1756 29.6684 18.36 28.8303 17.5229 28.4078C17.5236 27.7949 17.5284 27.1817 17.5155 26.569Z" fill="#EA4317"/>
<path d="M17.056 6.42615C18.6267 4.17356 20.9624 2.56552 23.6877 2.07276C26.2627 1.60717 29.0544 2.12949 31.2134 3.62932C33.511 5.22538 35.0884 7.66422 35.5715 10.4219C35.7119 11.2237 35.7685 12.0447 35.7732 12.858C35.7025 12.8439 35.6227 12.8362 35.5641 12.7915C35.4787 12.7263 35.5009 12.4369 35.4898 12.3317C35.4861 11.8754 35.408 11.3962 35.3196 10.9487C34.768 8.15535 33.236 5.57189 30.8427 3.97685C28.7181 2.56089 26.0671 2.11751 23.5738 2.6157C21.0911 3.11174 18.8471 4.66825 17.4465 6.76651C17.4414 6.75232 17.4366 6.73797 17.4312 6.7239C17.375 6.57986 17.1901 6.48532 17.056 6.42615Z" fill="#FEFDFD"/>
<path d="M40.149 42.3681C40.1701 43.1499 40.1928 43.9124 40.0557 44.6868C39.6482 46.0327 39.176 47.3365 38.5391 48.5939C38.4207 48.8279 38.3116 49.0799 38.1745 49.3029C37.6497 49.3666 37.09 49.3109 36.5608 49.3062C35.5987 49.2977 34.6361 49.3 33.6741 49.3193C33.9211 49.0662 34.1968 48.852 34.4646 48.6221C34.9044 48.2443 35.3497 47.8611 35.7652 47.4572C37.3867 45.8808 38.7946 44.1737 40.149 42.3681Z" fill="#4E1D6D"/>
<path d="M39.1645 45.0522C39.4449 44.9207 39.7577 44.7707 40.0557 44.6868C39.6482 46.0327 39.176 47.3365 38.5391 48.5939C38.4207 48.8279 38.3116 49.0799 38.1745 49.3029C37.8841 49.2723 37.5606 49.2975 37.2664 49.2941C37.5986 48.6423 37.9229 47.9785 38.2112 47.306C38.5326 46.5563 38.8225 45.7931 39.1645 45.0522Z" fill="#665CAA"/>
<path d="M9.57212 38.6239L10.612 37.9246C11.6238 39.9238 12.8928 41.8583 14.3396 43.5714C14.7499 44.0571 15.1871 44.5247 15.6196 44.9908C15.8253 45.2124 16.0951 45.4463 16.258 45.6993C16.3608 46.0302 16.5558 46.3225 16.7607 46.5988C17.3641 47.4122 18.1757 48.0448 18.9921 48.631C19.2952 48.8486 19.6151 49.0568 19.9047 49.2911C19.5011 49.2912 19.0739 49.263 18.6734 49.3053C18.0565 48.913 17.4707 48.4427 16.911 47.9734C14.396 45.8646 12.2803 43.2742 10.5898 40.4686C10.2299 39.8713 9.86521 39.2568 9.57212 38.6239Z" fill="url(#paint1_linear_42_39917)"/>
<path d="M13.234 36.6216C13.6182 37.0331 13.9484 37.4918 14.3381 37.9003C14.6464 38.2236 14.9697 38.5346 15.2885 38.8476C15.4468 39.0031 15.646 39.1668 15.7734 39.3457C15.7601 39.3733 15.7419 39.399 15.7335 39.4285C15.6903 39.5794 15.9381 40.5474 15.9698 40.7844C15.9931 40.958 15.9976 41.1277 15.9819 41.3023C15.8429 41.2943 15.7126 41.2824 15.5752 41.3118C15.1963 41.4104 14.9142 41.5769 14.7105 41.9259C14.5032 42.281 14.4481 42.7276 14.564 43.122C14.6399 43.3807 14.7808 43.597 14.9544 43.8006L14.9111 43.8466C13.7676 42.555 12.7497 41.1009 11.8194 39.6513C11.4763 39.1168 11.1709 38.5564 10.8177 38.0286C11.653 37.6512 12.4542 37.1033 13.234 36.6216Z" fill="#8378BD"/>
<path d="M41.0394 29.5731C41.5626 30.2713 42.1626 30.9335 42.7779 31.5514C42.3263 32.988 41.8024 34.4167 41.223 35.8071C40.9746 36.4032 40.7016 36.989 40.4452 37.5816C39.9575 37.3015 39.4814 36.9851 39.0669 36.6031C38.7862 36.3444 38.5337 36.0533 38.2217 35.8311C38.5105 35.4492 38.7097 34.9782 38.9206 34.549C39.4853 33.3996 39.9856 32.2008 40.467 31.0141C40.6611 30.5356 40.8344 30.0467 41.0394 29.5731Z" fill="#665CAA"/>
<path d="M40.5422 37.8685C40.984 37.9866 41.4165 38.1108 41.8755 38.139C41.397 39.016 40.9183 39.8872 40.3885 40.7348C38.7551 43.348 36.7505 45.711 34.4362 47.7466C33.8317 48.2783 33.2006 48.882 32.511 49.3C32.0973 49.3276 31.6876 49.295 31.2743 49.2968L31.2646 49.2609C31.4477 49.0669 31.7362 48.9284 31.9545 48.7683C32.6914 48.2274 33.3529 47.7403 33.499 46.785C33.8792 46.3945 34.3066 46.0464 34.7083 45.6781C35.0657 45.3504 35.4072 44.9985 35.7456 44.6511C37.2174 43.14 38.5325 41.4088 39.606 39.5948C39.9405 39.0295 40.2372 38.4493 40.5422 37.8685Z" fill="#665CAA"/>
<path d="M8.14546 31.5198C8.7993 30.9243 9.35146 29.9974 9.92552 29.3168C10.5472 30.767 11.179 32.2078 11.836 33.6425C12.1426 34.3122 12.687 35.5884 13.1308 36.1386C12.4379 36.4063 11.2665 37.2134 10.6336 37.6426C10.1846 36.81 9.83301 35.9049 9.48465 35.0263C9.02324 33.8627 8.58045 32.6935 8.14546 31.5198Z" fill="#665CAA"/>
<path d="M33.5324 26.6896C33.6247 26.6268 33.7146 26.5794 33.8169 26.535L33.8215 27.1434C33.8084 27.5884 33.8232 28.0284 33.8484 28.4728C33.7415 28.5087 33.6424 28.5479 33.5419 28.5991L33.5284 28.6315L33.5002 28.6395C33.4599 29.3292 33.0183 30.1839 32.7615 30.8271L32.063 32.5959C31.9329 32.9183 31.6512 33.3981 31.6812 33.7471C31.333 33.9642 30.9734 34.1635 30.617 34.3666C30.2748 34.5668 29.922 34.7471 29.5797 34.9475C29.528 33.0431 29.5733 31.1262 29.5739 29.2204C29.9943 29.0199 30.4044 28.6843 30.7969 28.4285C31.6989 27.841 32.6079 27.2402 33.5324 26.6896Z" fill="#D23221"/>
<path d="M33.5324 26.6896C33.6247 26.6268 33.7146 26.5794 33.8169 26.535L33.8215 27.1434C33.8084 27.5884 33.8232 28.0284 33.8484 28.4728C33.7415 28.5087 33.6424 28.5479 33.5419 28.5991C33.4901 27.9789 33.5334 27.3147 33.5324 26.6896Z" fill="#F77E43"/>
<path d="M30.5469 30.6097C31.2017 30.2003 31.8323 29.7351 32.4683 29.2965C32.7972 29.0697 33.1392 28.8116 33.5002 28.6395C33.4599 29.3292 33.0183 30.1839 32.7615 30.8271L32.063 32.5959C31.9329 32.9183 31.6512 33.3981 31.6812 33.7471C31.333 33.9642 30.9734 34.1635 30.617 34.3666C30.6094 34.3592 30.6007 34.3528 30.5944 34.3442C30.4735 34.1793 30.5468 30.9819 30.5469 30.6097Z" fill="#EE9011"/>
<path d="M41.3533 49.2994L41.3568 46.2524C41.3539 45.8213 41.2889 45.3662 41.3528 44.9387C41.3847 44.7243 41.4764 44.5624 41.5916 44.3845C42.3744 45.5835 43.5432 46.5658 44.9613 46.9055C46.1642 47.1936 47.1562 46.8772 48.1846 46.2485C48.1907 46.5938 48.1872 46.9398 48.1874 47.2852L48.1887 49.3218L43.2463 49.3208L41.3533 49.2994Z" fill="#095161"/>
<path d="M43.2689 47.2178C43.7404 47.6527 44.3991 47.911 45.0226 48.0298C46.2481 48.2631 47.1805 47.9687 48.1874 47.2852L48.1887 49.3218L43.2463 49.3208C43.2468 48.6202 43.2373 47.9179 43.2689 47.2178Z" fill="#0FB39C"/>
<path d="M45.6102 33.9818C46.1322 34.3263 46.6276 34.6766 47.0917 35.0977C48.508 36.3825 49.6319 38.244 50.0227 40.12C50.0585 40.2918 50.0854 40.4648 50.1103 40.6385C49.7998 40.653 49.4934 40.5701 49.1787 40.5854C49.0587 40.2959 48.9226 40.048 48.6954 39.8276C48.3991 39.5401 48.011 39.3749 47.5952 39.3852C46.987 39.4003 46.6687 39.701 46.2737 40.113C46.0111 40.0157 45.6377 40.0104 45.3536 39.9727C44.8764 39.9095 44.4121 39.8396 43.945 39.7201C44.2209 37.7145 44.922 35.8729 45.6102 33.9818Z" fill="#3CE1B0"/>
<path d="M9.8552 43.766L9.83573 49.3185C9.35582 49.318 8.87512 49.313 8.39532 49.3233C7.96485 49.3326 7.33037 49.4247 6.92525 49.3244C5.54821 49.284 4.15764 49.3176 2.77929 49.3252L2.78133 47.1901C2.76543 46.8454 2.7493 46.5023 2.75536 46.1571C3.74427 46.7808 4.72995 47.1318 5.90568 46.8678C7.65536 46.475 8.87619 45.1852 9.8552 43.766Z" fill="#095161"/>
<path d="M2.78133 47.1901C3.66788 47.8912 4.6625 48.2106 5.7958 48.078C6.60212 47.9835 7.27627 47.6325 7.9893 47.2738C7.97204 47.9762 7.86069 48.6397 7.7421 49.3293C7.4704 49.3272 7.19678 49.3179 6.92525 49.3244C5.54821 49.284 4.15764 49.3176 2.77929 49.3252L2.78133 47.1901Z" fill="#0FB39C"/>
<path d="M8.75907 38.7002C8.9812 39.0738 9.17787 39.4635 9.38971 39.8431C9.57988 40.1838 9.80116 40.527 9.95455 40.8853C9.87087 41.3873 9.80755 41.8752 9.65999 42.3657C9.29375 43.5829 8.44522 44.7309 7.41314 45.469C6.62345 46.0336 5.61039 46.4206 4.62844 46.2539C3.57814 46.0755 2.66177 45.2373 2.06617 44.3957C1.96618 44.2545 1.85853 44.09 1.79805 43.9272C2.46482 44.2165 3.11928 44.4508 3.85748 44.3852C4.8267 44.2992 5.76185 43.785 6.38208 43.0399C7.21585 42.0383 7.39187 40.8219 7.27667 39.559L7.29172 39.5348C7.73672 39.3259 8.30858 38.7829 8.75907 38.7002Z" fill="#095161"/>
<path d="M46.2737 40.113C46.6687 39.701 46.987 39.4003 47.5952 39.3852C48.011 39.3749 48.3991 39.5401 48.6954 39.8276C48.9226 40.048 49.0587 40.2959 49.1787 40.5854C49.4934 40.5701 49.7998 40.653 50.1103 40.6385C50.1159 40.7144 50.1269 40.7754 50.1486 40.8484C50.1825 40.774 50.1756 40.6673 50.1798 40.5848C50.309 41.5751 49.9182 43.0986 49.3058 43.8923C49.298 43.9025 49.2891 43.9117 49.2807 43.9215C48.6413 44.2068 48.0534 44.4187 47.3437 44.3738C46.3906 44.3134 45.5205 43.8039 44.8995 43.097C44.0564 42.1372 43.8548 40.9788 43.9412 39.7375L43.945 39.7201C44.4121 39.8396 44.8764 39.9095 45.3536 39.9727C45.6377 40.0104 46.0111 40.0157 46.2737 40.113Z" fill="#0FB39C"/>
<path d="M46.2737 40.113C46.6687 39.701 46.987 39.4003 47.5952 39.3852C48.011 39.3749 48.3991 39.5401 48.6954 39.8276C48.9226 40.048 49.0587 40.2959 49.1787 40.5854C49.2489 40.9279 49.2549 41.2411 49.1263 41.572C48.9599 42.0001 48.6342 42.3473 48.2071 42.5234C47.8145 42.6853 47.3646 42.6717 46.9762 42.5037C46.5909 42.3369 46.2655 42.0163 46.1182 41.6212C45.9163 41.0798 46.0518 40.6154 46.2737 40.113Z" fill="#040D55"/>
<path d="M46.4574 40.7669C46.7293 41.1655 47.0212 41.5601 47.5289 41.6577C47.9066 41.7304 48.2909 41.6113 48.6012 41.395C48.649 41.3616 48.6948 41.3254 48.7402 41.2888C48.7037 41.4908 48.6022 41.684 48.4649 41.8361C48.2474 42.0769 47.934 42.2167 47.6095 42.2196C47.3023 42.2224 47.0065 42.0995 46.7915 41.88C46.4789 41.5608 46.4601 41.1852 46.4574 40.7669Z" fill="#EA4317"/>
<path d="M46.4574 40.7669C46.4691 40.6765 46.5084 40.5938 46.5195 40.5022C46.5332 40.5094 46.547 40.5166 46.5607 40.5241C46.7044 40.603 46.82 40.7299 46.9601 40.8161C47.2987 41.0244 47.8989 41.0614 48.2732 40.9592C48.4683 40.9059 48.6212 40.8142 48.7701 40.6793C48.78 40.8864 48.7896 41.0852 48.7402 41.2888C48.6948 41.3254 48.649 41.3616 48.6012 41.395C48.2909 41.6113 47.9066 41.7304 47.5289 41.6577C47.0212 41.5601 46.7293 41.1655 46.4574 40.7669Z" fill="#F77E43"/>
<path d="M46.5195 40.5022C46.6808 40.1747 46.9189 39.9296 47.2751 39.8165C47.5793 39.7198 47.9208 39.7614 48.1987 39.9156C48.4637 40.0626 48.6707 40.3294 48.7565 40.6196C48.7633 40.6427 48.765 40.6544 48.7701 40.6793C48.6212 40.8142 48.4683 40.9059 48.2732 40.9592C47.8989 41.0614 47.2987 41.0244 46.9601 40.8161C46.82 40.7299 46.7044 40.603 46.5607 40.5241C46.547 40.5166 46.5332 40.5094 46.5195 40.5022Z" fill="#F4D610"/>
<path d="M41.2306 40.7436L42.1947 39.088C42.7641 39.3618 43.352 39.521 43.9412 39.7375C43.8548 40.9788 44.0564 42.1372 44.8995 43.097C45.5205 43.8039 46.3906 44.3134 47.3437 44.3738C48.0534 44.4187 48.6413 44.2068 49.2807 43.9215C49.1535 44.2301 48.9505 44.505 48.7363 44.759C48.0731 45.5458 47.278 46.2435 46.2061 46.3281C45.1248 46.4135 43.9892 45.9366 43.181 45.2382C41.815 44.0579 41.349 42.4905 41.2306 40.7436Z" fill="#095161"/>
<path d="M1.80308 40.5933C1.80798 40.5752 1.81186 40.5567 1.81779 40.5388C1.95573 40.1239 2.28065 39.7363 2.66913 39.5358C3.03911 39.3448 3.49243 39.3176 3.88458 39.4554C4.39612 39.635 4.68355 40.017 4.90512 40.4871C5.75778 40.2731 6.49977 39.9648 7.27667 39.559C7.39187 40.8219 7.21585 42.0383 6.38208 43.0399C5.76185 43.785 4.8267 44.2992 3.85748 44.3852C3.11928 44.4508 2.46482 44.2165 1.79805 43.9272C1.08848 43.0982 0.844026 41.7911 0.892334 40.7316C0.91698 40.6881 0.93263 40.6345 0.951024 40.5878C1.23955 40.502 1.50975 40.5831 1.80308 40.5933Z" fill="#0FB39C"/>
<path d="M1.80308 40.5933C1.80798 40.5752 1.81186 40.5567 1.81779 40.5388C1.95573 40.1239 2.28065 39.7363 2.66913 39.5358C3.03911 39.3448 3.49243 39.3176 3.88458 39.4554C4.39612 39.635 4.68355 40.017 4.90512 40.4871C5.03033 40.9549 5.00787 41.4492 4.76078 41.8759C4.55285 42.235 4.19062 42.4981 3.78896 42.5973C3.33751 42.7087 2.85335 42.6165 2.45961 42.3744C2.12087 42.1663 1.87987 41.8474 1.78829 41.4588C1.72863 41.2056 1.71859 40.8408 1.80308 40.5933Z" fill="#040D55"/>
<path d="M2.21769 41.3556C2.65397 41.584 3.0472 41.755 3.55359 41.6531C3.91819 41.5798 4.20799 41.352 4.36964 41.0182C4.41955 40.9151 4.44042 40.7963 4.50775 40.7028C4.51771 40.6891 4.52829 40.6757 4.53859 40.662C4.58957 41.055 4.56298 41.4363 4.31589 41.7675C4.1199 42.0302 3.82217 42.1812 3.49905 42.2171C3.19244 42.2512 2.87338 42.1785 2.62998 41.9844C2.41876 41.8161 2.3077 41.603 2.21769 41.3556Z" fill="#EA4317"/>
<path d="M3.89941 39.9095C4.19911 40.1027 4.43426 40.3055 4.53859 40.662C4.52829 40.6757 4.51771 40.6891 4.50775 40.7028C4.44042 40.7963 4.41955 40.9151 4.36964 41.0182C4.20799 41.352 3.91819 41.5798 3.55359 41.6531C3.0472 41.755 2.65397 41.584 2.21769 41.3556C2.1592 41.1437 2.1578 40.9542 2.16808 40.7372C2.55908 40.9546 3.17988 41.0461 3.61594 40.9402C3.76016 40.9052 3.90325 40.8331 3.97726 40.6985C4.09766 40.4794 3.95791 40.1375 3.89941 39.9095Z" fill="#F77E43"/>
<path d="M2.16808 40.7372C2.1954 40.6401 2.22333 40.544 2.26979 40.4541C2.4294 40.1448 2.73125 39.8811 3.06864 39.7865C3.3645 39.7034 3.63591 39.7619 3.89941 39.9095C3.95791 40.1375 4.09766 40.4794 3.97726 40.6985C3.90325 40.8331 3.76016 40.9052 3.61594 40.9402C3.17988 41.0461 2.55908 40.9546 2.16808 40.7372Z" fill="#F4D610"/>
<path d="M21.9026 44.5438L22.416 44.5454C22.9372 44.547 23.4833 44.5165 24.0015 44.5655L26.306 44.5723C27.0955 44.5806 27.9022 44.601 28.6903 44.5556C28.8647 44.5556 29.039 44.5486 29.2133 44.5428C28.9064 45.0792 28.6144 45.599 28.3713 46.169C27.9299 47.2041 27.6063 48.2942 27.1454 49.3189L23.9338 49.3191C23.3838 47.6913 22.7578 46.038 21.9026 44.5438Z" fill="url(#paint2_linear_42_39917)"/>
<path d="M22.416 44.5454C22.9372 44.547 23.4833 44.5165 24.0015 44.5655C23.541 44.5848 23.0776 44.5731 22.6167 44.571C23.1811 45.3964 24.2842 46.7949 25.3018 46.9819C25.8129 47.0759 26.3093 46.9017 26.7215 46.6056C27.0614 46.3615 27.358 46.0365 27.6344 45.7237C27.8744 45.452 28.3215 44.7458 28.6363 44.6216C28.6165 44.6805 28.5955 44.7387 28.5721 44.7963C28.4253 45.1559 28.218 45.5072 28.0436 45.8554C27.607 46.7269 27.1422 47.9195 26.1713 48.3138C25.7394 48.4892 25.2329 48.49 24.8052 48.301C23.7805 47.848 23.3188 46.511 22.8894 45.562C22.7359 45.2227 22.5507 44.892 22.416 44.5454Z" fill="#36C84E"/>
<path d="M24.0015 44.5655L26.306 44.5723C27.0955 44.5806 27.9022 44.601 28.6903 44.5556L28.6363 44.6216C28.3215 44.7458 27.8744 45.452 27.6344 45.7237C27.358 46.0365 27.0614 46.3615 26.7215 46.6056C26.3093 46.9017 25.8129 47.0759 25.3018 46.9819C24.2842 46.7949 23.1811 45.3964 22.6167 44.571C23.0776 44.5731 23.541 44.5848 24.0015 44.5655Z" fill="#9BE642"/>
<path d="M0.951024 40.5878C0.920709 40.4272 0.955986 40.2643 0.995236 40.108C1.70695 37.2737 3.58856 35.1308 6.0529 33.647C6.40319 35.6159 7.04362 37.5502 7.29172 39.5348L7.27667 39.559C6.49977 39.9648 5.75778 40.2731 4.90512 40.4871C4.68355 40.017 4.39612 39.635 3.88458 39.4554C3.49243 39.3176 3.03911 39.3448 2.66913 39.5358C2.28065 39.7363 1.95573 40.1239 1.81779 40.5388C1.81186 40.5567 1.80798 40.5752 1.80308 40.5933C1.50975 40.5831 1.23955 40.502 0.951024 40.5878Z" fill="#3CE1B0"/>
<path d="M15.7734 39.3457C16.6795 40.1669 17.6127 40.9694 18.6284 41.6544C18.95 41.8713 19.2715 42.0928 19.604 42.2928C19.9784 42.518 20.3714 42.7221 20.7245 42.9799C21.0617 44.2622 21.4187 45.486 21.9628 46.6992C22.0195 46.8254 22.1271 47.1367 22.2414 47.2039L22.2619 47.1906C22.3944 47.4461 22.5346 47.6952 22.6159 47.9726C21.4127 48.1342 20.2398 48.0845 19.0861 47.6728C19.3963 47.5947 19.6973 47.5133 19.9264 47.2733C20.1859 47.0015 20.3012 46.5898 20.2974 46.2191C20.2935 45.8371 20.1574 45.4697 19.8765 45.2039C19.6291 44.9698 19.2947 44.8376 18.9533 44.8486C18.604 44.8598 18.2726 45.0186 18.0421 45.2808C17.6828 45.6895 17.6971 46.1664 17.7268 46.6725C16.7491 45.787 15.7653 44.853 14.9111 43.8466L14.9544 43.8006C14.7808 43.597 14.6399 43.3807 14.564 43.122C14.4481 42.7276 14.5032 42.281 14.7105 41.9259C14.9142 41.5769 15.1963 41.4104 15.5752 41.3118C15.7126 41.2824 15.8429 41.2943 15.9819 41.3023C15.9976 41.1277 15.9931 40.958 15.9698 40.7844C15.9381 40.5474 15.6903 39.5794 15.7335 39.4285C15.7419 39.399 15.7601 39.3733 15.7734 39.3457Z" fill="#665CAA"/>
<path d="M15.5752 41.3118C16.013 41.3221 16.3828 41.3905 16.6992 41.7243C16.9615 42.0011 17.1054 42.389 17.0919 42.7695C17.0784 43.1501 16.9085 43.5395 16.6214 43.7926C16.3777 44.0074 16.0527 44.1285 15.7267 44.0982C15.4382 44.0714 15.1987 43.9435 14.9544 43.8006C14.7808 43.597 14.6399 43.3807 14.564 43.122C14.4481 42.7276 14.5032 42.281 14.7105 41.9259C14.9142 41.5769 15.1963 41.4104 15.5752 41.3118Z" fill="#040D55"/>
<path d="M16.6784 42.2587C16.7243 42.4558 16.7216 42.7209 16.6652 42.9159C16.5943 43.1613 16.4406 43.3645 16.2137 43.4862C15.9728 43.6155 15.6809 43.6364 15.4223 43.5494C15.186 43.4699 14.9859 43.3034 14.8787 43.077C14.7257 42.7541 14.7952 42.431 14.9073 42.1102C15.0126 42.3825 15.1495 42.6051 15.4273 42.7319C15.6555 42.8361 15.9175 42.8388 16.1484 42.7412C16.392 42.6382 16.5379 42.4735 16.6784 42.2587Z" fill="#AC254D"/>
<path d="M14.9073 42.1102C15.0468 41.8507 15.2229 41.634 15.5129 41.5386C15.7463 41.4619 15.9925 41.503 16.2046 41.6211C16.415 41.7382 16.6058 41.9525 16.6635 42.1895C16.6691 42.2124 16.6738 42.2355 16.6784 42.2587C16.5379 42.4735 16.392 42.6382 16.1484 42.7412C15.9175 42.8388 15.6555 42.8361 15.4273 42.7319C15.1495 42.6051 15.0126 42.3825 14.9073 42.1102Z" fill="#F4D610"/>
<path d="M15.6038 41.607C15.7046 41.6168 15.8247 41.6137 15.8926 41.6928C15.8696 41.8129 15.7693 41.8638 15.7096 41.9609C15.6721 42.0218 15.6784 42.0447 15.6962 42.1066C15.9166 42.1139 16.0009 41.8165 16.2098 41.8238C16.1813 41.8968 16.1341 41.9712 16.0806 42.0284C15.992 42.1228 15.879 42.1848 15.747 42.1802C15.6447 42.1766 15.5443 42.1306 15.4794 42.0506C15.4329 41.9933 15.4104 41.9188 15.4235 41.8452C15.4432 41.7344 15.5177 41.6697 15.6038 41.607Z" fill="#FEFDFD"/>
<path d="M32.9933 24.0768C33.6292 24.5471 34.3143 25.0501 35.0016 25.4414L34.9934 30.4697C34.9868 31.4982 34.9326 32.5446 35.0003 33.571C33.4582 34.4862 31.8643 35.3308 30.299 36.2076C28.716 37.0943 27.1482 38.02 25.5436 38.8664C23.3895 37.6316 21.2053 36.4428 19.035 35.2366L17.1095 34.1679C16.7801 33.9825 16.4211 33.8051 16.1159 33.5823C16.1523 32.9617 16.1295 32.3357 16.1287 31.7142L16.1282 28.553L16.1376 26.6124C16.1439 26.0962 16.1781 25.599 16.1162 25.0837L17.9348 24.0797C18.2249 24.2857 18.5111 24.496 18.7961 24.7089C18.3677 24.8901 16.9884 25.3786 16.8319 25.7795C16.7848 25.9 16.7711 26.045 16.7641 26.1739C16.73 26.7931 16.7702 27.4282 16.7702 28.0491C16.7701 29.1353 16.753 30.2222 16.7627 31.3084C16.7669 31.7853 16.8412 32.3794 16.7349 32.8427C17.6785 33.225 18.7052 33.9106 19.6004 34.4148C20.8357 35.1106 22.0841 35.7857 23.3294 36.4634C24.0711 36.8671 24.8027 37.2914 25.5595 37.6664C26.4287 37.2503 27.2671 36.7448 28.1081 36.2746L32.3424 33.9206C32.7443 33.6998 33.1412 33.4693 33.5403 33.2434C33.793 33.1003 34.0563 32.9289 34.3313 32.834C34.2566 32.1126 34.3245 31.3698 34.3261 30.6459L34.3253 26.1842C33.7144 25.6268 32.9187 25.2576 32.2672 24.738L32.9933 24.0768Z" fill="#EA4317"/>
<path d="M34.3313 32.834L34.3405 32.8842C34.0475 33.2359 32.286 34.1003 31.7953 34.3783C31.0942 34.7757 30.4089 35.2005 29.7081 35.5987C28.9791 36.013 28.2357 36.3993 27.5009 36.8027C26.847 37.1617 26.2044 37.5275 25.534 37.8564C24.6782 37.3238 23.6098 36.8098 22.7072 36.3249C21.2084 35.5197 19.7267 34.6899 18.2496 33.8457C17.859 33.6224 17.0973 33.3077 16.804 33.0291C16.7373 32.9657 16.7375 32.9319 16.7349 32.8427C17.6785 33.225 18.7052 33.9106 19.6004 34.4148C20.8357 35.1106 22.0841 35.7857 23.3294 36.4634C24.0711 36.8671 24.8027 37.2914 25.5595 37.6664C26.4287 37.2503 27.2671 36.7448 28.1081 36.2746L32.3424 33.9206C32.7443 33.6998 33.1412 33.4693 33.5403 33.2434C33.793 33.1003 34.0563 32.9289 34.3313 32.834Z" fill="#FEFDFD"/>
<path d="M29.8789 43.6538C30.0582 43.4941 30.1102 43.1892 30.3124 43.0211C30.5788 42.7995 30.9184 42.6342 31.2172 42.457C31.6139 42.2218 32.0052 41.975 32.3862 41.7152C34.1705 40.4987 35.8008 39.0535 37.1745 37.3856C37.5546 36.9241 37.9296 36.4607 38.1901 35.919C38.4769 36.5523 39.7154 37.4155 40.3304 37.7612C40.0451 38.3942 39.6806 39.0094 39.3211 39.6026C38.2129 41.4307 36.9011 43.1306 35.4014 44.6567C34.7789 45.2902 34.1123 45.8634 33.4679 46.4721C33.5154 45.9923 33.498 45.569 33.1738 45.177C32.9442 44.8993 32.5894 44.7161 32.2305 44.6854C31.8501 44.6528 31.4529 44.7882 31.1655 45.0376C30.8537 45.3081 30.6765 45.6795 30.654 46.0895C30.6319 46.4934 30.7463 46.9287 31.0293 47.2267C31.2613 47.4709 31.5586 47.577 31.8702 47.6793C30.7005 48.0665 29.659 48.131 28.4434 47.9796C28.6781 47.3601 28.8861 46.7293 29.1053 46.1041C29.3074 45.5279 29.5313 44.9511 29.6713 44.3559C29.743 44.1228 29.8023 43.8854 29.8789 43.6538Z" fill="#8378BD"/>
<path d="M35.0578 41.3568C35.2964 41.3453 35.536 41.3886 35.7487 41.4996C36.0666 41.6655 36.2897 41.9668 36.3898 42.3075C36.5061 42.7029 36.4604 43.1368 36.2505 43.4928C36.0283 43.8693 35.6993 44.038 35.2943 44.1501C35.0746 44.1931 34.8105 44.1318 34.6141 44.0316C34.2987 43.8705 34.0799 43.5775 33.9769 43.2426C33.8519 42.8358 33.8875 42.3755 34.0994 42.0032C34.3197 41.6162 34.6496 41.4696 35.0578 41.3568Z" fill="#040D55"/>
<path d="M34.3157 42.2517C34.3923 42.0421 34.5149 41.8778 34.7087 41.7619C34.9206 41.6351 35.1846 41.5984 35.4232 41.6624C35.6995 41.7366 35.8771 41.918 36.0152 42.1597C36.1488 42.4138 36.2216 42.6765 36.1357 42.9623C36.0657 43.1955 35.8935 43.3743 35.6769 43.4803C35.393 43.6192 35.0479 43.6335 34.7534 43.5184C34.5291 43.4308 34.325 43.2624 34.2352 43.0347C34.1272 42.7614 34.1977 42.5063 34.3157 42.2517Z" fill="#AC254D"/>
<path d="M34.3157 42.2517C34.3923 42.0421 34.5149 41.8778 34.7087 41.7619C34.9206 41.6351 35.1846 41.5984 35.4232 41.6624C35.6995 41.7366 35.8771 41.918 36.0152 42.1597C35.9503 42.4086 35.8441 42.6055 35.612 42.7352C35.405 42.8508 35.1421 42.8679 34.9171 42.7988C34.6541 42.7179 34.4907 42.565 34.3595 42.3303L34.3318 42.2814C34.3264 42.2716 34.3211 42.2616 34.3157 42.2517Z" fill="#F4D610"/>
<path d="M35.0704 41.7205C35.235 41.7154 35.407 41.6981 35.5419 41.8118C35.604 41.8642 35.6287 41.9218 35.6372 42.0015C35.606 42.08 35.6052 42.0829 35.5333 42.1267C35.4453 42.1171 35.4217 42.0889 35.3523 42.0366L35.3262 42.0218C35.2075 42.0218 35.0732 42.1099 34.9614 42.1533C34.8949 42.1453 34.8601 42.1385 34.8189 42.0765C34.7957 42.0418 34.7877 41.9985 34.8008 41.9595C34.8419 41.8369 34.9645 41.7792 35.0704 41.7205Z" fill="#FEFDFD"/>
<path d="M12.3287 32.7471C12.7157 32.756 14.1661 32.7137 14.41 32.7818L14.4471 32.7906C14.4694 33.0321 14.4475 33.2825 14.4393 33.5249C14.4272 34.8864 14.6403 35.8022 15.6135 36.7958C17.5909 38.8147 22.4359 42.1204 25.3149 42.1555C27.2669 42.1793 28.9905 41.3597 30.6511 40.4214C31.7079 39.8244 32.7144 39.1714 33.6939 38.4551C35.0105 37.4535 36.2471 36.1292 36.7508 34.5261C36.9182 33.9932 36.947 33.4249 37.1193 32.8996L37.174 32.8759L37.1831 32.8594C37.7647 32.8861 38.343 32.9051 38.9254 32.9034C38.6223 33.7412 38.3429 34.595 37.9439 35.3936C37.754 35.7737 37.5003 36.1148 37.3076 36.4887C37.2998 36.4961 37.2916 36.5032 37.284 36.511C37.0197 36.7816 36.802 37.143 36.565 37.4418C36.2248 37.8707 35.8243 38.2833 35.4365 38.6705C34.5824 39.5235 33.6744 40.2999 32.7002 41.0133C32.216 41.3679 31.6946 41.6773 31.2242 42.0482C30.7958 42.3118 30.3187 42.5633 29.927 42.8771C29.8094 43.2955 29.7055 43.7168 29.5918 44.136C29.2986 44.2063 27.8917 44.1476 27.4821 44.1474L21.4164 44.1502C21.3872 44.0114 21.3623 43.8702 21.3195 43.7347C21.274 43.3948 21.1722 43.0445 21.0987 42.708C20.6517 42.3518 19.9791 42.044 19.4782 41.7277C18.617 41.184 17.8072 40.5635 17.0128 39.9278C16.7866 39.6975 16.5345 39.4947 16.3 39.2732C15.5056 38.5226 13.9479 36.982 13.5049 36.0052C13.3369 35.6347 13.2124 35.2355 13.0793 34.8512C12.8358 34.1482 12.6013 33.4395 12.3287 32.7471Z" fill="#1080AA"/>
<path d="M14.41 32.7818L14.4471 32.7906C14.4694 33.0321 14.4475 33.2825 14.4393 33.5249C14.4272 34.8864 14.6403 35.8022 15.6135 36.7958C17.5909 38.8147 22.4359 42.1204 25.3149 42.1555C27.2669 42.1793 28.9905 41.3597 30.6511 40.4214C31.7079 39.8244 32.7144 39.1714 33.6939 38.4551C35.0105 37.4535 36.2471 36.1292 36.7508 34.5261C36.9182 33.9932 36.947 33.4249 37.1193 32.8996L37.174 32.8759C37.1928 33.1686 37.1165 33.5315 37.0493 33.8156C36.7486 35.0855 36.127 36.2138 35.2686 37.1914C34.8315 37.6893 34.3346 38.1433 33.8111 38.549C32.3116 39.6836 30.6863 40.686 28.9769 41.4738C27.0388 42.367 25.2743 42.6737 23.2156 41.9069C20.9136 41.0496 18.1115 39.2408 16.2773 37.6074C15.6885 37.0832 15.064 36.5193 14.7342 35.7892C14.3951 35.0386 14.3569 34.2539 14.3577 33.4429C14.3579 33.2406 14.3389 32.9695 14.41 32.7818Z" fill="#040D55"/>
<path d="M36.0679 32.903C36.4412 32.9094 36.8108 32.879 37.1831 32.8594L37.174 32.8759L37.1193 32.8996C36.947 33.4249 36.9182 33.9932 36.7508 34.5261C36.2471 36.1292 35.0105 37.4535 33.6939 38.4551C32.7144 39.1714 31.7079 39.8244 30.6511 40.4214C28.9905 41.3597 27.2669 42.1793 25.3149 42.1555C22.4359 42.1204 17.5909 38.8147 15.6135 36.7958C14.6403 35.8022 14.4272 34.8864 14.4393 33.5249C14.6678 33.5896 14.8728 33.6723 15.0806 33.7881L15.0907 33.8019C15.442 33.9668 15.7794 34.172 16.1181 34.3617L17.8706 35.3435C18.8518 35.8866 19.8426 36.4173 20.8173 36.9714C22.3815 37.8605 23.941 38.7786 25.5398 39.6041C26.3703 39.2504 27.137 38.7624 27.9214 38.3197L31.6025 36.2456L34.3986 34.6864C34.9225 34.3958 35.4678 34.1261 35.9662 33.7933C36.0802 33.4959 36.0845 33.2168 36.0679 32.903Z" fill="#3CE1B0"/>
<path d="M25.5398 39.6041C26.3703 39.2504 27.137 38.7624 27.9214 38.3197L31.6025 36.2456L34.3986 34.6864C34.9225 34.3958 35.4678 34.1261 35.9662 33.7933C35.9658 34.0189 35.9721 34.2713 35.8859 34.4834C35.7837 34.7352 35.5939 34.8715 35.3784 35.0191C34.7707 35.4351 34.1119 35.7834 33.4688 36.141L30.61 37.7362L27.5491 39.489C26.8966 39.862 26.2356 40.2781 25.5415 40.5674C24.6926 40.151 23.888 39.6469 23.0672 39.179L19.1658 36.9615L16.8363 35.6207C16.2459 35.2853 15.6368 34.9714 15.0887 34.5685L15.0907 33.8019C15.442 33.9668 15.7794 34.172 16.1181 34.3617L17.8706 35.3435C18.8518 35.8866 19.8426 36.4173 20.8173 36.9714C22.3815 37.8605 23.941 38.7786 25.5398 39.6041Z" fill="#0C7061"/>
<path d="M17.4465 6.76651C18.8471 4.66825 21.0911 3.11174 23.5738 2.6157C26.0671 2.11751 28.7181 2.56089 30.8427 3.97685C33.236 5.57189 34.768 8.15535 35.3196 10.9487C35.408 11.3962 35.4861 11.8754 35.4898 12.3317C35.5009 12.4369 35.4787 12.7263 35.5641 12.7915C35.6227 12.8362 35.7025 12.8439 35.7732 12.858C35.7857 13.7106 35.7812 15.7727 35.4253 16.5088C35.1084 17.6993 33.3696 18.5898 32.3672 19.2017C32.0534 19.3933 31.679 19.5742 31.4477 19.8668C31.1496 20.2442 30.8828 21.0838 30.6989 21.5575C30.1743 22.9087 29.7043 24.2813 29.1676 25.6276C28.1125 26.0037 26.7218 25.8666 25.6114 25.8676C24.4724 25.8687 23.3254 25.8652 22.1872 25.9125L21.1266 23.2164C20.766 22.2823 20.3838 20.9073 19.7522 20.1427C19.3948 19.7099 18.8886 19.4364 18.4104 19.1581C17.4875 18.6209 16.3792 17.967 15.8548 17.0022C15.6523 16.8423 15.5211 16.3175 15.4669 16.072C15.2896 15.2682 15.3684 14.398 15.3684 13.5804C15.3688 11.2844 15.3387 9.418 16.4877 7.33252C16.6591 7.02149 16.8629 6.72446 17.056 6.42615C17.1901 6.48532 17.375 6.57986 17.4312 6.7239C17.4366 6.73797 17.4414 6.75232 17.4465 6.76651Z" fill="#0FB39C"/>
<path d="M15.8749 11.4087C16.0134 11.4711 16.2299 11.3866 16.265 11.4588C16.2528 11.4996 16.2062 11.6023 16.2294 11.6363C16.2584 11.6789 16.3042 11.6959 16.3485 11.7191C16.3927 11.8918 16.2794 12.4183 16.1923 12.5633C16.1862 12.5735 16.1795 12.5833 16.1734 12.5936C16.1425 12.6465 16.1135 12.7007 16.0829 12.7539C15.9374 12.3237 15.8994 11.8592 15.8749 11.4087Z" fill="#0C7061"/>
<path d="M31.3319 7.58865C31.3986 7.58566 31.4684 7.58102 31.5343 7.59362C31.6652 7.61855 31.7879 7.70088 31.8597 7.813C31.9292 7.92166 31.9477 8.05734 31.9148 8.18155C31.8647 8.3708 31.742 8.45726 31.579 8.54847C31.5196 8.54836 31.4604 8.54728 31.4021 8.53468C31.2558 8.50303 31.1172 8.42556 31.0387 8.29463C30.9772 8.19223 30.9661 8.07334 30.9955 7.95879C31.0439 7.77095 31.172 7.68133 31.3319 7.58865Z" fill="#040D55"/>
<path d="M19.555 7.58742C19.62 7.58403 19.6869 7.57973 19.7516 7.58843C19.8941 7.6077 20.0422 7.69049 20.1263 7.80826C20.1948 7.90421 20.2146 8.02073 20.1949 8.13562C20.1606 8.33521 20.0205 8.43664 19.8653 8.54655C19.8104 8.5474 19.7545 8.54853 19.6998 8.54271C19.55 8.52689 19.4005 8.44896 19.3098 8.32781C19.233 8.2253 19.2081 8.10171 19.2328 7.97688C19.2713 7.78238 19.3984 7.69117 19.555 7.58742Z" fill="#040D55"/>
<path d="M25.3497 12.5913C25.5073 12.5758 25.6421 12.5736 25.7941 12.6239C25.9999 12.692 26.1741 12.834 26.2649 13.0328C26.3471 13.2129 26.3535 13.4212 26.2813 13.6057C26.1763 13.8743 25.9684 14.0194 25.7124 14.1249C25.5485 14.1547 25.3848 14.1353 25.2309 14.0724C25.0284 13.9896 24.8723 13.8192 24.7972 13.615C24.723 13.4133 24.7312 13.1863 24.8293 12.9939C24.9445 12.7679 25.1173 12.6671 25.3497 12.5913Z" fill="#0C7061"/>
<path d="M24.3269 20.0199C24.4034 20.0163 24.4866 20.0176 24.5621 20.0302C24.7362 20.0595 24.8317 20.1931 24.9291 20.3263C24.956 20.9993 24.963 21.6707 24.9634 22.3442C24.9637 22.8071 24.9754 23.2719 24.9201 23.7324C24.8303 23.8671 24.7315 23.9442 24.5919 24.0258C24.3636 24.0257 24.2601 23.9894 24.0703 23.8639C24.0695 23.8604 24.0689 23.8569 24.0682 23.8534C23.9354 23.2423 23.8769 20.9259 24.0273 20.3234C24.0672 20.1634 24.1976 20.1008 24.3269 20.0199Z" fill="#040D55"/>
<path d="M26.6251 19.9918C26.7892 20.0199 26.9954 20.0682 27.0977 20.2121C27.3148 20.518 27.2477 23.3674 27.1852 23.7858C27.0682 23.9472 26.9836 24.0205 26.7974 24.0938C26.622 24.0882 26.4365 24.0887 26.3048 23.9547C26.2101 23.8584 26.1826 23.7376 26.1643 23.6078C26.1094 23.2149 26.1449 22.7985 26.1469 22.4023L26.1517 20.33C26.2997 20.1559 26.4007 20.064 26.6251 19.9918Z" fill="#040D55"/>
<path d="M26.8682 17.38L26.8526 17.2853C26.5803 15.5679 26.9532 13.82 27.9867 12.41C28.8726 11.2014 30.3868 10.2274 31.877 10.0026C31.6262 10.5143 31.4788 10.534 31.1517 10.9346C31.1447 11.0124 31.1634 11.0182 31.2102 11.0823L31.1647 11.1077C30.7751 11.3216 30.3853 11.4916 30.0104 11.7383C28.8654 12.4921 28.0306 13.7121 27.6384 15.0134C27.3903 15.8368 27.31 16.6625 27.3105 17.5176L26.8682 17.38Z" fill="#0C7061"/>
<path d="M18.7461 10.7841C18.7401 10.7677 18.7346 10.7511 18.7282 10.7348C18.6607 10.5639 18.4841 10.536 18.3566 10.4277C18.0273 10.1482 18.0903 9.22342 18.1657 8.84436C18.1774 9.18421 18.1449 9.5175 18.1424 9.85633C19.9584 10.0352 21.6836 10.6797 22.8747 12.1288C24.1263 13.6515 24.4622 15.4171 24.2612 17.3372C24.2588 17.3601 24.2555 17.3829 24.2524 17.4057C24.1035 17.4498 23.9549 17.4908 23.8038 17.5271C23.7967 16.1233 23.5277 14.6773 22.7753 13.4736C22.0982 12.3901 20.9594 11.4666 19.7522 11.0382C19.4199 10.9203 19.0865 10.864 18.7461 10.7841Z" fill="#0C7061"/>
<path d="M35.4898 12.3317C35.5009 12.4369 35.4787 12.7263 35.5641 12.7915C35.6227 12.8362 35.7025 12.8439 35.7732 12.858C35.7857 13.7106 35.7812 15.7727 35.4253 16.5088C35.2581 16.6316 35.111 16.813 34.9645 16.9606C34.7206 17.2064 34.4681 17.4244 34.1821 17.6209C33.7431 17.9224 33.2749 18.1887 32.8039 18.4367C32.0643 18.826 31.2001 19.1731 30.6468 19.8216C29.6438 20.9973 29.3685 23.375 28.289 24.4072C28.1714 24.5197 28.0327 24.5942 27.8912 24.6717C28.0884 23.2137 28.3937 20.5997 29.5864 19.6315C30.1305 19.1898 30.8263 18.9206 31.4395 18.5851C32.2942 18.1176 33.0702 17.5752 33.7658 16.8921C35.1632 15.5197 35.4778 14.2303 35.4898 12.3317Z" fill="#3CE1B0"/>
<path d="M17.056 6.42615C17.1901 6.48532 17.375 6.57986 17.4312 6.7239C17.4366 6.73797 17.4414 6.75232 17.4465 6.76651C16.6524 7.92354 15.8091 9.99806 15.8749 11.4087C15.8994 11.8592 15.9374 12.3237 16.0829 12.7539C16.1919 13.2233 16.4 13.7745 16.6327 14.1982C16.8449 15.2228 16.9253 15.5804 17.497 16.4879C17.6639 17.1934 18.8318 18.1439 19.4302 18.5105C20.8433 19.376 22.2031 19.3742 22.6636 21.2599C22.9867 22.5828 22.675 24.1923 22.5059 25.5319C22.3454 24.881 22.1292 24.2441 21.9371 23.602C21.5837 22.4211 21.286 20.967 20.5662 19.9545C20.3047 19.5867 19.9317 19.3009 19.5488 19.0688C19.0727 18.7802 18.5789 18.5203 18.1016 18.2333C17.3902 17.8055 16.6498 17.2573 15.8548 17.0022C15.6523 16.8423 15.5211 16.3175 15.4669 16.072C15.2896 15.2682 15.3684 14.398 15.3684 13.5804C15.3688 11.2844 15.3387 9.418 16.4877 7.33252C16.6591 7.02149 16.8629 6.72446 17.056 6.42615Z" fill="#3CE1B0"/>
<path d="M31.2102 11.0823C31.8248 10.8376 32.6726 10.5757 33.3188 10.8606C33.7469 11.0493 34.0114 11.5024 34.1652 11.9236C34.5909 13.09 34.5924 14.4796 34.0549 15.6095C33.5474 16.6762 32.6288 17.4199 31.5219 17.8017C30.5001 18.1542 29.4258 18.152 28.3914 17.8518C28.0328 17.7477 27.6748 17.594 27.3105 17.5176C27.31 16.6625 27.3903 15.8368 27.6384 15.0134C28.0306 13.7121 28.8654 12.4921 30.0104 11.7383C30.3853 11.4916 30.7751 11.3216 31.1647 11.1077L31.2102 11.0823Z" fill="#040D55"/>
<path d="M30.5569 13.2458C30.821 13.2178 31.1235 13.2776 31.3588 13.3976C31.7053 13.5744 31.9721 13.9083 32.0828 14.2791C32.1932 14.6489 32.1576 15.0631 31.9659 15.4004C31.7407 15.7969 31.3662 15.9805 30.9447 16.091C30.5959 16.0953 30.2876 16.0675 29.982 15.8764C29.6487 15.668 29.411 15.3222 29.3318 14.938C29.2555 14.5677 29.3196 14.1595 29.5379 13.8471C29.7805 13.4998 30.1496 13.3155 30.5569 13.2458Z" fill="#F5E4C1"/>
<path d="M16.6327 14.1982C16.6493 14.0616 16.6463 13.9199 16.6514 13.7822C16.6843 12.8816 16.8411 11.775 17.5532 11.1364C17.9079 10.8184 18.2897 10.7649 18.7461 10.7841C19.0865 10.864 19.4199 10.9203 19.7522 11.0382C20.9594 11.4666 22.0982 12.3901 22.7753 13.4736C23.5277 14.6773 23.7967 16.1233 23.8038 17.5271C22.9481 17.7958 22.2752 18.0697 21.3512 18.0951C19.746 18.139 18.6395 17.561 17.497 16.4879C16.9253 15.5804 16.8449 15.2228 16.6327 14.1982Z" fill="#040D55"/>
<path d="M20.2654 13.2198C20.5787 13.221 20.869 13.2864 21.1304 13.4682C21.4424 13.6853 21.6447 14.0434 21.7 14.4164C21.7549 14.7879 21.6511 15.1905 21.4181 15.4861C21.1792 15.7891 20.8176 15.9389 20.4425 15.983C20.1089 15.9838 19.7938 15.9317 19.5121 15.741C19.2074 15.5347 19.0035 15.2016 18.943 14.8403C18.8834 14.4845 18.9728 14.1112 19.1827 13.818C19.4523 13.4414 19.827 13.2947 20.2654 13.2198Z" fill="#F5E4C1"/>
<path d="M25.5313 3.02052C25.8113 2.99786 26.1179 3.02583 26.3963 3.06233C28.83 3.3815 30.2358 4.51785 31.6865 6.40036C31.4292 6.63855 31.1144 6.81316 30.8277 7.0131C30.5821 7.18438 30.3466 7.37753 30.1119 7.56339C29.5581 8.00201 28.99 8.46624 28.4806 8.95426C28.1454 9.27546 27.8351 9.62311 27.5064 9.95098C26.9294 10.5265 26.3006 10.8938 25.4707 10.8925C25.0267 10.8438 24.6407 10.7193 24.2686 10.4688C23.6659 10.0631 22.9865 9.22477 22.429 8.70177C21.4505 7.78372 20.4145 7.01383 19.2994 6.27078C19.7172 5.80249 20.1301 5.32498 20.5978 4.90489C21.9913 3.65297 23.6927 3.13122 25.5313 3.02052Z" fill="#3CE1B0"/>
<path d="M25.4737 7.92982C25.6132 7.93366 25.7466 7.95028 25.8741 8.01074C26.0565 8.0972 26.1959 8.24842 26.2627 8.43926C26.3344 8.6441 26.317 8.86929 26.2151 9.06098C26.0864 9.30323 25.8882 9.4067 25.6374 9.48293C25.466 9.474 25.3068 9.45564 25.1555 9.36839C24.9668 9.25955 24.8283 9.08431 24.7786 8.8715C24.7342 8.68095 24.7655 8.47118 24.8705 8.3051C25.0157 8.07561 25.2204 7.99277 25.4737 7.92982Z" fill="#0C7061"/>
<path d="M25.5821 3.33276C26.3142 3.33073 27.5715 3.43736 28.1432 3.93001C28.2441 4.01687 28.3271 4.13311 28.3331 4.27003C28.3387 4.39904 28.274 4.51336 28.1878 4.60468C27.6457 5.1787 26.2177 5.2173 25.4781 5.22623C24.7287 5.23267 23.5137 5.193 22.8981 4.74432C22.778 4.65673 22.6663 4.53206 22.6504 4.37819C22.6369 4.24743 22.6928 4.12565 22.7779 4.02902C23.2985 3.43758 24.8151 3.35892 25.5821 3.33276Z" fill="#FEFDFD"/>
<defs>
<linearGradient id="paint0_linear_42_39917" x1="25.8657" y1="0.267786" x2="25.3979" y2="43.1469" gradientUnits="userSpaceOnUse">
<stop stop-color="#BA3B29"/>
<stop offset="1" stop-color="#F30842"/>
</linearGradient>
<linearGradient id="paint1_linear_42_39917" x1="20.7715" y1="45.019" x2="28.5838" y2="5.01999" gradientUnits="userSpaceOnUse">
<stop stop-color="#6551A6"/>
<stop offset="1" stop-color="#8F7CBA"/>
</linearGradient>
<linearGradient id="paint2_linear_42_39917" x1="25.4411" y1="-0.423725" x2="23.1538" y2="49.8383" gradientUnits="userSpaceOnUse">
<stop stop-color="#0D8631"/>
<stop offset="1" stop-color="#197545"/>
</linearGradient>
</defs>
</svg>
